<svg xmlns="http://www.w3.org/2000/svg" xmlns:xlink="http://www.w3.org/1999/xlink" viewBox="0 0 500 500"><defs><style>.cls-1{isolation:isolate;}.cls-2{fill:#fbcc31;}.cls-3{fill:#f7931e;}.cls-4{fill:#999;}.cls-11,.cls-4,.cls-6,.cls-8,.cls-9{mix-blend-mode:multiply;}.cls-5,.cls-7{fill:#fff;}.cls-5{opacity:0.5;}.cls-6{fill:#939598;}.cls-7{opacity:0.7;}.cls-8{fill:#bcbec0;}.cls-9{fill:#d1d3d4;}.cls-10{fill:#fbae31;}.cls-11{fill:#754c24;opacity:0.3;}.cls-12{fill:#eaff8a;}.cls-13{fill:url(#linear-gradient);}.cls-14{fill:url(#linear-gradient-2);}</style><linearGradient id="linear-gradient" x1="13384.23" y1="970.51" x2="13384.23" y2="965.78" gradientTransform="matrix(-1.24, 0.34, 0.46, 1.66, 16306.4, -6130.75)" gradientUnits="userSpaceOnUse"><stop offset="0" stop-color="#094216"/><stop offset="0.58" stop-color="#14465e"/><stop offset="1" stop-color="#1c4995"/></linearGradient><linearGradient id="linear-gradient-2" x1="12591.62" y1="6589.7" x2="12591.62" y2="6586.65" gradientTransform="matrix(-1.14, 0.59, -0.79, -1.53, 19909.6, 3176.84)" xlink:href="#linear-gradient"/></defs><title>objects</title><g class="cls-1"><g id="Layer_1" data-name="Layer 1"><path class="cls-2" d="M489.52,323.69l-23.19-19.84L460.24,281s-1.5-.38-3.33,1.94c-6.32,8-20.75,36.67-29.94,53.16-11.84,21.25-20.4,53.85-26.3,64.65,0,1.67-1.56,13.18-1.56,13.18l47.77-14.62,13.3-3.53a21.49,21.49,0,0,0,13.93-11.64l12.55-26.75,6.91-17A14.71,14.71,0,0,0,489.52,323.69Z"/><path class="cls-3" d="M480.77,321.3,462.7,308.15,456.91,283s-20.22,25.67-31.42,45.56-16.41,47-18.17,50.81-6.64,21.44-6.64,21.44L443.16,389l7,.25a28.53,28.53,0,0,0,25.38-13.66l11.1-18.2,2.94-9.45A24.11,24.11,0,0,0,480.77,321.3Z"/><path class="cls-4" d="M476.15,333.47,449,321.78a26.4,26.4,0,0,1,.09-21.46L456.91,283s-88.35,21.58-104.15,134.12c-7.07,50.35,46.35-3.14,46.35-3.14l20.94-40.42,36.27,3.94a27.71,27.71,0,0,0,27.56-14.73l2.78-5.33h0A19.19,19.19,0,0,0,476.15,333.47Z"/><path class="cls-3" d="M103.64,485.58l30.21-23.38,23.69-4.07a4,4,0,0,0,.06-3.92c-3.78-8-21.65-27.31-31.47-39.44-12.65-15.62-37.21-28.94-43.7-36.75-1.51-.15-11-3.28-11-3.28L58.88,429.43l-4,15.16c-1.84,7-.77,13.15,2.93,16.82L75,478.47l11.5,9.66C90.47,491.45,97.37,490.43,103.64,485.58Z"/><path class="cls-4" d="M110.48,476.17l21.46-18.49,25.65-3.46s-12.1-25.43-23.87-40.19S100.46,390.32,98,387.92,82.42,378,82.42,378L70.11,426.51l-4,7.77C60.24,445.67,59.7,457,64.69,464L75,478.47l6.87,4.37C89,487.4,100.55,484.72,110.48,476.17Z"/><circle class="cls-3" cx="243.88" cy="256.41" r="230.55" transform="translate(-92.95 364.9) rotate(-64.29)"/><path class="cls-5" d="M343.89,48.68A230,230,0,0,1,465,191.25,229.7,229.7,0,0,0,351.53,70.5C236.81,15.26,99,63.49,43.78,178.21A229.7,229.7,0,0,0,30.37,343.38a230,230,0,0,1,5.78-187C91.39,41.66,229.17-6.56,343.89,48.68Z"/><ellipse class="cls-6" cx="320.89" cy="125.4" rx="33.3" ry="32.95" transform="translate(139.63 418.39) rotate(-79.6)"/><ellipse class="cls-2" cx="314.9" cy="116.19" rx="33.3" ry="32.95" transform="translate(143.78 404.95) rotate(-79.6)"/><path class="cls-7" d="M318.34,97.46c-8.48-1.56-16.2,1.83-15.35-2.82s8.42-7.15,16.89-5.59,14.66,6.58,13.81,11.23S326.82,99,318.34,97.46Z"/><ellipse class="cls-8" cx="313.38" cy="117.8" rx="18.76" ry="22.89" transform="translate(140.95 404.76) rotate(-79.6)"/><path class="cls-8" d="M331.45,130.33c.24-9.23-7.11-17.72-17.57-19.64-9.69-1.78-18.9,2.67-22.63,10.27,2.13,7.34,9.31,13.56,18.73,15.29C318.48,137.81,326.57,135.31,331.45,130.33Z"/><ellipse class="cls-6" cx="322.1" cy="234.59" rx="23.38" ry="23.14" transform="translate(33.23 509.06) rotate(-79.6)"/><ellipse class="cls-2" cx="317.9" cy="228.12" rx="23.38" ry="23.14" transform="translate(36.14 499.62) rotate(-79.6)"/><path class="cls-7" d="M320.31,215c-6-1.09-11.38,1.28-10.78-2s5.91-5,11.86-3.93,10.29,4.62,9.7,7.88S326.27,216.06,320.31,215Z"/><ellipse class="cls-8" cx="316.82" cy="229.25" rx="13.18" ry="16.08" transform="translate(34.16 499.49) rotate(-79.6)"/><path class="cls-8" d="M329.52,238c.17-6.48-5-12.45-12.34-13.79-6.81-1.25-13.27,1.88-15.89,7.22,1.49,5.16,6.54,9.52,13.15,10.74C320.41,243.3,326.09,241.55,329.52,238Z"/><ellipse class="cls-6" cx="403.02" cy="321.55" rx="21.03" ry="20.81" transform="translate(14.01 659.91) rotate(-79.6)"/><ellipse class="cls-2" cx="399.24" cy="315.73" rx="21.03" ry="20.81" transform="translate(16.64 651.43) rotate(-79.6)"/><path class="cls-7" d="M401.41,303.9c-5.35-1-10.23,1.15-9.69-1.78s5.31-4.51,10.67-3.53,9.26,4.16,8.72,7.09S406.77,304.88,401.41,303.9Z"/><ellipse class="cls-8" cx="398.28" cy="316.74" rx="11.85" ry="14.46" transform="translate(14.85 651.31) rotate(-79.6)"/><path class="cls-8" d="M409.69,324.66c.15-5.83-4.49-11.19-11.1-12.4-6.12-1.12-11.93,1.69-14.29,6.49,1.34,4.64,5.88,8.57,11.83,9.66C401.5,329.38,406.61,327.8,409.69,324.66Z"/><path class="cls-9" d="M202.93,263.23c96.87,46.64,203.48,43,269.65-35.64a229.39,229.39,0,0,1-21,128.84c-55.24,114.73-193,162.95-307.75,107.71s-162.95-193-107.71-307.75a230.94,230.94,0,0,1,31.39-48.58C77.05,182.74,129.8,228,202.93,263.23Z"/><ellipse class="cls-6" cx="180.73" cy="264.43" rx="60.34" ry="56.24" transform="matrix(1, -0.05, 0.05, 1, -12.2, 8.77)"/><ellipse class="cls-2" cx="166.28" cy="251.62" rx="60.34" ry="56.24" transform="matrix(1, -0.05, 0.05, 1, -11.62, 8.07)"/><path class="cls-7" d="M164.77,219.48c-15.77.74-28.17,9.31-28.55,1.34s12.1-15,27.87-15.76,28.85,5.12,29.22,13.08S180.54,218.74,164.77,219.48Z"/><ellipse class="cls-8" cx="164.21" cy="254.85" rx="41.92" ry="31.69" transform="translate(-11.77 7.98) rotate(-2.69)"/><path class="cls-8" d="M201.58,268.42c-3.34-15.27-19.93-26.37-39.37-25.46-18,.85-32.63,11.75-36.19,25.69,6.79,11.24,22.16,18.67,39.67,17.85C181.48,285.77,194.91,278.51,201.58,268.42Z"/><path class="cls-2" d="M207.61,8.32l22.66,34.31,21.9,8.87s.19,1.54-2.33,3.06c-8.74,5.28-39,16-56.46,23.12-22.56,9.12-56,13.57-67.41,18.08-1.65-.24-13.27-.09-13.27-.09l20.42-45.59L142,28l37.62-12.24Z"/><path class="cls-10" d="M206.39,11l19.16,34.69,24.29,8.87s-28,16.88-49.1,25.53S152,90.54,148.06,91.83,126,95.76,126,95.76l16.93-40.7L145,31.42l34.66-15.62Z"/><path class="cls-11" d="M197.1,12.07l13.24,45.49a26.4,26.4,0,0,0,21.3,2.57l18.19-5.57s-32.36,85-146,86.72c-50.84.77,8.86-45.61,8.86-45.61L155.4,79.91l.89-55.4,23.36-8.7Z"/><path class="cls-12" d="M141.71,29.64c.86,3.7,16.31,1.92,34.51-4S208.47,12,207.61,8.32s-16.31-1.92-34.51,4S140.85,25.95,141.71,29.64Z"/><path class="cls-13" d="M146.89,27.34c.48,2.08,12.79-.09,27.49-4.84s26.22-10.3,25.73-12.38-12.79.09-27.49,4.84S146.41,25.25,146.89,27.34Z"/><path class="cls-2" d="M358.19,477,354,450.75,360.51,437s-.58-.81-2.45-.44c-6.47,1.31-25.53,9.39-36.95,13.67-14.71,5.52-32.54,18-40,20.85-.68.84-6.27,5.84-6.27,5.84l29.63,12.76,13.87,6.59,23.24-10.62Z"/><path class="cls-10" d="M356.44,476.22l-6-24.86,7.67-14.83s-20.68,4.2-34.5,9.31-27.73,16.31-30.17,17.43-12.23,7.78-12.23,7.78L307,483l11.33,10.33,23.3-7.72Z"/><path class="cls-11" d="M351.55,479.77,338,452.36a17,17,0,0,1,9-10.53l11.08-5.3s-52.52-26.28-107.31,22.55c-24.51,21.84,24.14,17.82,24.14,17.82l27.2-11.16,24.63,26,14.91-6.07Z"/><path class="cls-12" d="M317.53,495.62c-1.21-2.13,6.92-8,18.14-13.19s21.31-7.6,22.51-5.46-6.92,8-18.14,13.19S318.74,497.75,317.53,495.62Z"/><path class="cls-14" d="M321,494.45c-.68-1.2,6.12-5.55,15.19-9.71s17-6.56,17.65-5.36-6.12,5.55-15.19,9.71S321.69,495.65,321,494.45Z"/></g></g></svg>