<svg xmlns="http://www.w3.org/2000/svg" xmlns:xlink="http://www.w3.org/1999/xlink" viewBox="0 0 500 500"><defs><style>.cls-1{isolation:isolate;}.cls-10,.cls-11,.cls-12,.cls-13,.cls-14,.cls-15,.cls-16,.cls-17,.cls-18,.cls-19,.cls-2,.cls-20,.cls-21,.cls-22,.cls-23,.cls-24,.cls-25,.cls-26,.cls-27,.cls-28,.cls-29,.cls-3,.cls-30,.cls-31,.cls-32,.cls-33,.cls-35,.cls-36,.cls-37,.cls-38,.cls-39,.cls-4,.cls-40,.cls-41,.cls-42,.cls-43,.cls-44,.cls-45,.cls-46,.cls-47,.cls-48,.cls-49,.cls-5,.cls-50,.cls-51,.cls-52,.cls-53,.cls-54,.cls-55,.cls-56,.cls-57,.cls-58,.cls-59,.cls-60,.cls-7,.cls-8,.cls-9{fill-rule:evenodd;}.cls-2{fill:url(#Áåçûìÿííûé_ãðàäèåíò_85);}.cls-3{fill:url(#Áåçûìÿííûé_ãðàäèåíò_32);}.cls-12,.cls-25,.cls-27,.cls-38,.cls-39,.cls-4,.cls-49,.cls-5,.cls-8,.cls-9{opacity:0.71;}.cls-12,.cls-23,.cls-24,.cls-25,.cls-26,.cls-27,.cls-30,.cls-31,.cls-32,.cls-33,.cls-38,.cls-39,.cls-4,.cls-44,.cls-47,.cls-49,.cls-5,.cls-51,.cls-6,.cls-8,.cls-9{mix-blend-mode:multiply;}.cls-4{fill:url(#Áåçûìÿííûé_ãðàäèåíò_141);}.cls-5{fill:url(#Áåçûìÿííûé_ãðàäèåíò_141-2);}.cls-6{opacity:0.3;}.cls-7{fill:#7d72b3;}.cls-8{fill:url(#Áåçûìÿííûé_ãðàäèåíò_141-3);}.cls-9{fill:url(#Áåçûìÿííûé_ãðàäèåíò_141-4);}.cls-10{fill:url(#Áåçûìÿííûé_ãðàäèåíò_46);}.cls-11{fill:url(#Áåçûìÿííûé_ãðàäèåíò_52);}.cls-12{fill:url(#Áåçûìÿííûé_ãðàäèåíò_141-5);}.cls-13{fill:url(#Áåçûìÿííûé_ãðàäèåíò_60);}.cls-14{fill:url(#Áåçûìÿííûé_ãðàäèåíò_60-2);}.cls-15{fill:url(#Áåçûìÿííûé_ãðàäèåíò_100);}.cls-16{fill:url(#Áåçûìÿííûé_ãðàäèåíò_103);}.cls-17{fill:url(#Áåçûìÿííûé_ãðàäèåíò_100-2);}.cls-18{fill:url(#Áåçûìÿííûé_ãðàäèåíò_118);}.cls-19{fill:url(#Áåçûìÿííûé_ãðàäèåíò_100-3);}.cls-20{fill:url(#Áåçûìÿííûé_ãðàäèåíò_100-4);}.cls-21{fill:url(#Áåçûìÿííûé_ãðàäèåíò_60-3);}.cls-22{fill:url(#Áåçûìÿííûé_ãðàäèåíò_122);}.cls-23,.cls-24,.cls-26,.cls-30,.cls-31,.cls-32,.cls-44,.cls-47,.cls-51{opacity:0.5;}.cls-23{fill:url(#Áåçûìÿííûé_ãðàäèåíò_141-6);}.cls-24{fill:url(#Áåçûìÿííûé_ãðàäèåíò_141-7);}.cls-25{fill:url(#Áåçûìÿííûé_ãðàäèåíò_141-8);}.cls-26{fill:url(#Áåçûìÿííûé_ãðàäèåíò_141-9);}.cls-27{fill:url(#Áåçûìÿííûé_ãðàäèåíò_141-10);}.cls-28{fill:url(#Áåçûìÿííûé_ãðàäèåíò_103-2);}.cls-29{fill:url(#Áåçûìÿííûé_ãðàäèåíò_103-3);}.cls-30{fill:url(#Áåçûìÿííûé_ãðàäèåíò_141-11);}.cls-31{fill:url(#Áåçûìÿííûé_ãðàäèåíò_141-12);}.cls-32{fill:url(#Áåçûìÿííûé_ãðàäèåíò_141-13);}.cls-33{opacity:0.2;fill:url(#Áåçûìÿííûé_ãðàäèåíò_141-14);}.cls-34{mix-blend-mode:soft-light;}.cls-35{fill:#ffa989;}.cls-36{fill:#ffbd4a;}.cls-37{fill:#ffab4a;}.cls-38{fill:url(#Áåçûìÿííûé_ãðàäèåíò_141-15);}.cls-39{fill:url(#Áåçûìÿííûé_ãðàäèåíò_141-16);}.cls-40{fill:#ff864a;}.cls-41{fill:#ffb14a;}.cls-42{fill:url(#Áåçûìÿííûé_ãðàäèåíò_148);}.cls-43{fill:url(#Áåçûìÿííûé_ãðàäèåíò_148-2);}.cls-44{fill:url(#Áåçûìÿííûé_ãðàäèåíò_141-17);}.cls-45{fill:url(#Áåçûìÿííûé_ãðàäèåíò_148-3);}.cls-46{fill:url(#Áåçûìÿííûé_ãðàäèåíò_100-5);}.cls-47{fill:url(#Áåçûìÿííûé_ãðàäèåíò_141-18);}.cls-48{fill:url(#Áåçûìÿííûé_ãðàäèåíò_103-4);}.cls-49{fill:url(#Áåçûìÿííûé_ãðàäèåíò_141-19);}.cls-50{fill:url(#Áåçûìÿííûé_ãðàäèåíò_148-4);}.cls-51{fill:url(#Áåçûìÿííûé_ãðàäèåíò_141-20);}.cls-52{fill:url(#Áåçûìÿííûé_ãðàäèåíò_103-5);}.cls-53{fill:url(#Áåçûìÿííûé_ãðàäèåíò_153);}.cls-54{fill:url(#Áåçûìÿííûé_ãðàäèåíò_100-6);}.cls-55{fill:url(#Áåçûìÿííûé_ãðàäèåíò_60-4);}.cls-56{fill:url(#Áåçûìÿííûé_ãðàäèåíò_100-7);}.cls-57{fill:url(#Áåçûìÿííûé_ãðàäèåíò_60-5);}.cls-58{fill:url(#Áåçûìÿííûé_ãðàäèåíò_100-8);}.cls-59{fill:url(#Áåçûìÿííûé_ãðàäèåíò_153-2);}.cls-60{fill:url(#Áåçûìÿííûé_ãðàäèåíò_118-2);}</style><linearGradient id="Áåçûìÿííûé_ãðàäèåíò_85" x1="369.41" y1="647.37" x2="369.41" y2="486.27" gradientTransform="matrix(0.95, -0.31, 0.31, 0.95, -128.05, -112.79)" gradientUnits="userSpaceOnUse"><stop offset="0" stop-color="#5b006f"/><stop offset="0.02" stop-color="#5c0270"/><stop offset="0.23" stop-color="#6a1a7c"/><stop offset="0.46" stop-color="#732c84"/><stop offset="0.7" stop-color="#793689"/><stop offset="0.99" stop-color="#7b398b"/></linearGradient><radialGradient id="Áåçûìÿííûé_ãðàäèåíò_32" cx="506.15" cy="82.53" r="516.97" gradientTransform="translate(-204.1 113.63) scale(0.68)" gradientUnits="userSpaceOnUse"><stop offset="0.01" stop-color="#9d4863"/><stop offset="0.24" stop-color="#9a4563"/><stop offset="0.42" stop-color="#903d61"/><stop offset="0.58" stop-color="#802e5f"/><stop offset="0.73" stop-color="#68195b"/><stop offset="0.87" stop-color="#4c0057"/><stop offset="0.98" stop-color="#4c0086"/></radialGradient><linearGradient id="Áåçûìÿííûé_ãðàäèåíò_141" x1="124.69" y1="355.05" x2="215.7" y2="355.05" gradientUnits="userSpaceOnUse"><stop offset="0" stop-color="#ca528d"/><stop offset="1" stop-color="#8e7090"/></linearGradient><linearGradient id="Áåçûìÿííûé_ãðàäèåíò_141-2" x1="352.57" y1="311.79" x2="439.25" y2="311.79" xlink:href="#Áåçûìÿííûé_ãðàäèåíò_141"/><linearGradient id="Áåçûìÿííûé_ãðàäèåíò_141-3" x1="437.47" y1="232.78" x2="469.42" y2="232.78" xlink:href="#Áåçûìÿííûé_ãðàäèåíò_141"/><linearGradient id="Áåçûìÿííûé_ãðàäèåíò_141-4" x1="57.67" y1="160.63" x2="439.16" y2="160.63" xlink:href="#Áåçûìÿííûé_ãðàäèåíò_141"/><linearGradient id="Áåçûìÿííûé_ãðàäèåíò_46" x1="57.67" y1="102.69" x2="415.38" y2="102.69" gradientUnits="userSpaceOnUse"><stop offset="0.01" stop-color="#de6863"/><stop offset="0.25" stop-color="#db6563"/><stop offset="0.43" stop-color="#d35b62"/><stop offset="0.6" stop-color="#c54b60"/><stop offset="0.76" stop-color="#b1335d"/><stop offset="0.91" stop-color="#981659"/><stop offset="1" stop-color="#860057"/></linearGradient><linearGradient id="Áåçûìÿííûé_ãðàäèåíò_52" x1="97.69" y1="452.51" x2="97.69" y2="233.21" gradientUnits="userSpaceOnUse"><stop offset="0" stop-color="#860057"/><stop offset="0.03" stop-color="#8c0757"/><stop offset="0.19" stop-color="#aa2456"/><stop offset="0.36" stop-color="#c13c55"/><stop offset="0.54" stop-color="#d14c54"/><stop offset="0.74" stop-color="#db5654"/><stop offset="0.99" stop-color="#de5954"/></linearGradient><linearGradient id="Áåçûìÿííûé_ãðàäèåíò_141-5" x1="248.41" y1="429.78" x2="311.85" y2="429.78" xlink:href="#Áåçûìÿííûé_ãðàäèåíò_141"/><linearGradient id="Áåçûìÿííûé_ãðàäèåíò_60" x1="459.17" y1="219.96" x2="459.17" y2="136.1" gradientUnits="userSpaceOnUse"><stop offset="0" stop-color="#860057"/><stop offset="0.03" stop-color="#880557"/><stop offset="0.23" stop-color="#951c56"/><stop offset="0.45" stop-color="#9e2c55"/><stop offset="0.69" stop-color="#a33654"/><stop offset="0.99" stop-color="#a53954"/></linearGradient><linearGradient id="Áåçûìÿííûé_ãðàäèåíò_60-2" x1="399.52" y1="314.29" x2="399.52" y2="214.21" xlink:href="#Áåçûìÿííûé_ãðàäèåíò_60"/><linearGradient id="Áåçûìÿííûé_ãðàäèåíò_100" x1="207.17" y1="115.42" x2="207.17" y2="13.73" gradientUnits="userSpaceOnUse"><stop offset="0" stop-color="#f49f57"/><stop offset="0.1" stop-color="#f79656"/><stop offset="0.35" stop-color="#fb8655"/><stop offset="0.63" stop-color="#fe7c54"/><stop offset="0.99" stop-color="#ff7954"/></linearGradient><linearGradient id="Áåçûìÿííûé_ãðàäèåíò_103" x1="304.27" y1="159.3" x2="304.27" y2="59.79" gradientUnits="userSpaceOnUse"><stop offset="0" stop-color="#f47d57"/><stop offset="0.4" stop-color="#fc7a55"/><stop offset="0.99" stop-color="#ff7954"/></linearGradient><linearGradient id="Áåçûìÿííûé_ãðàäèåíò_100-2" x1="57.67" y1="136.65" x2="150.78" y2="136.65" xlink:href="#Áåçûìÿííûé_ãðàäèåíò_100"/><linearGradient id="Áåçûìÿííûé_ãðàäèåíò_118" x1="366.66" y1="229.4" x2="442.56" y2="229.4" gradientUnits="userSpaceOnUse"><stop offset="0.01" stop-color="#c75357"/><stop offset="0.13" stop-color="#d35856"/><stop offset="0.37" stop-color="#e35f55"/><stop offset="0.65" stop-color="#ed6454"/><stop offset="0.99" stop-color="#f06554"/></linearGradient><linearGradient id="Áåçûìÿííûé_ãðàäèåíò_100-3" x1="4.51" y1="273.4" x2="124.68" y2="273.4" xlink:href="#Áåçûìÿííûé_ãðàäèåíò_100"/><linearGradient id="Áåçûìÿííûé_ãðàäèåíò_100-4" x1="16.91" y1="337.23" x2="116.77" y2="337.23" xlink:href="#Áåçûìÿííûé_ãðàäèåíò_100"/><linearGradient id="Áåçûìÿííûé_ãðàäèåíò_60-3" x1="275.24" y1="443.3" x2="275.24" y2="394.67" xlink:href="#Áåçûìÿííûé_ãðàäèåíò_60"/><linearGradient id="Áåçûìÿííûé_ãðàäèåíò_122" x1="246.22" y1="408.1" x2="293.36" y2="408.1" gradientUnits="userSpaceOnUse"><stop offset="0.01" stop-color="#c75357"/><stop offset="0.26" stop-color="#d15149"/><stop offset="0.58" stop-color="#d94f3f"/><stop offset="0.99" stop-color="#db4f3c"/></linearGradient><linearGradient id="Áåçûìÿííûé_ãðàäèåíò_141-6" x1="85.25" y1="346.67" x2="190.34" y2="346.67" xlink:href="#Áåçûìÿííûé_ãðàäèåíò_141"/><linearGradient id="Áåçûìÿííûé_ãðàäèåíò_141-7" x1="276.69" y1="421.24" x2="304.27" y2="421.24" xlink:href="#Áåçûìÿííûé_ãðàäèåíò_141"/><linearGradient id="Áåçûìÿííûé_ãðàäèåíò_141-8" x1="399.52" y1="271.3" x2="446.7" y2="271.3" xlink:href="#Áåçûìÿííûé_ãðàäèåíò_141"/><linearGradient id="Áåçûìÿííûé_ãðàäèåíò_141-9" x1="441.17" y1="151.05" x2="459.25" y2="151.05" xlink:href="#Áåçûìÿííûé_ãðàäèåíò_141"/><linearGradient id="Áåçûìÿííûé_ãðàäèåíò_141-10" x1="437.47" y1="182.24" x2="494.51" y2="182.24" xlink:href="#Áåçûìÿííûé_ãðàäèåíò_141"/><linearGradient id="Áåçûìÿííûé_ãðàäèåíò_103-2" x1="439.39" y1="305.15" x2="472.74" y2="305.15" gradientTransform="translate(-63.48 -68.26) rotate(-10.3)" xlink:href="#Áåçûìÿííûé_ãðàäèåíò_103"/><linearGradient id="Áåçûìÿííûé_ãðàäèåíò_103-3" x1="456.06" y1="309.47" x2="509.29" y2="309.47" gradientTransform="translate(-63.48 -68.26) rotate(-10.3)" xlink:href="#Áåçûìÿííûé_ãðàäèåíò_103"/><linearGradient id="Áåçûìÿííûé_ãðàäèåíò_141-11" x1="207.17" y1="82.37" x2="364.07" y2="82.37" xlink:href="#Áåçûìÿííûé_ãðàäèåíò_141"/><linearGradient id="Áåçûìÿííûé_ãðàäèåíò_141-12" x1="255.53" y1="163.82" x2="295.2" y2="163.82" xlink:href="#Áåçûìÿííûé_ãðàäèåíò_141"/><linearGradient id="Áåçûìÿííûé_ãðàäèåíò_141-13" x1="324.78" y1="130.63" x2="415.38" y2="130.63" xlink:href="#Áåçûìÿííûé_ãðàäèåíò_141"/><linearGradient id="Áåçûìÿííûé_ãðàäèåíò_141-14" x1="74.47" y1="164.7" x2="141.62" y2="164.7" xlink:href="#Áåçûìÿííûé_ãðàäèåíò_141"/><linearGradient id="Áåçûìÿííûé_ãðàäèåíò_141-15" x1="153.98" y1="243.86" x2="205.05" y2="243.86" xlink:href="#Áåçûìÿííûé_ãðàäèåíò_141"/><linearGradient id="Áåçûìÿííûé_ãðàäèåíò_141-16" x1="174.81" y1="282.18" x2="202.8" y2="282.18" xlink:href="#Áåçûìÿííûé_ãðàäèåíò_141"/><linearGradient id="Áåçûìÿííûé_ãðàäèåíò_148" x1="175.77" y1="252.63" x2="175.77" y2="207.58" gradientUnits="userSpaceOnUse"><stop offset="0" stop-color="#a20057"/><stop offset="0.28" stop-color="#ba2456"/><stop offset="0.57" stop-color="#ce4155"/><stop offset="0.82" stop-color="#da5354"/><stop offset="0.99" stop-color="#de5954"/></linearGradient><linearGradient id="Áåçûìÿííûé_ãðàäèåíò_148-2" x1="185.82" y1="289.15" x2="185.82" y2="267.15" xlink:href="#Áåçûìÿííûé_ãðàäèåíò_148"/><linearGradient id="Áåçûìÿííûé_ãðàäèåíò_141-17" x1="180.87" y1="237.05" x2="204.82" y2="237.05" xlink:href="#Áåçûìÿííûé_ãðàäèåíò_141"/><linearGradient id="Áåçûìÿííûé_ãðàäèåíò_148-3" x1="35.57" y1="215.9" x2="35.57" y2="173.64" xlink:href="#Áåçûìÿííûé_ãðàäèåíò_148"/><linearGradient id="Áåçûìÿííûé_ãðàäèåíò_100-5" x1="175.76" y1="233.5" x2="175.76" y2="205.11" xlink:href="#Áåçûìÿííûé_ãðàäèåíò_100"/><linearGradient id="Áåçûìÿííûé_ãðàäèåíò_141-18" x1="177.49" y1="283.64" x2="197.06" y2="283.64" xlink:href="#Áåçûìÿííûé_ãðàäèåíò_141"/><linearGradient id="Áåçûìÿííûé_ãðàäèåíò_103-4" x1="185.25" y1="281.61" x2="185.25" y2="266.91" xlink:href="#Áåçûìÿííûé_ãðàäèåíò_103"/><linearGradient id="Áåçûìÿííûé_ãðàäèåíò_141-19" x1="-620.44" y1="-424.38" x2="-588.24" y2="-424.38" gradientTransform="translate(-187.99 883.52) rotate(105.5)" xlink:href="#Áåçûìÿííûé_ãðàäèåíò_141"/><linearGradient id="Áåçûìÿííûé_ãðàäèåíò_148-4" x1="-609.42" y1="-415.38" x2="-609.42" y2="-437.38" gradientTransform="translate(-187.99 883.52) rotate(105.5)" xlink:href="#Áåçûìÿííûé_ãðàäèåíò_148"/><linearGradient id="Áåçûìÿííûé_ãðàäèåíò_141-20" x1="-617.76" y1="-420.89" x2="-598.18" y2="-420.89" gradientTransform="translate(-187.99 883.52) rotate(105.5)" xlink:href="#Áåçûìÿííûé_ãðàäèåíò_141"/><linearGradient id="Áåçûìÿííûé_ãðàäèåíò_103-5" x1="-610" y1="-422.92" x2="-610" y2="-437.62" gradientTransform="translate(-187.99 883.52) rotate(105.5)" xlink:href="#Áåçûìÿííûé_ãðàäèåíò_103"/><linearGradient id="Áåçûìÿííûé_ãðàäèåíò_153" x1="97.69" y1="390.95" x2="167.15" y2="390.95" gradientUnits="userSpaceOnUse"><stop offset="0" stop-color="#860057"/><stop offset="0.21" stop-color="#8a0a4d"/><stop offset="0.55" stop-color="#8e1343"/><stop offset="0.99" stop-color="#8f1640"/></linearGradient><linearGradient id="Áåçûìÿííûé_ãðàäèåíò_100-6" x1="97.69" y1="390.95" x2="154.93" y2="390.95" xlink:href="#Áåçûìÿííûé_ãðàäèåíò_100"/><linearGradient id="Áåçûìÿííûé_ãðàäèåíò_60-4" x1="173.7" y1="121.73" x2="173.7" y2="97.62" xlink:href="#Áåçûìÿííûé_ãðàäèåíò_60"/><linearGradient id="Áåçûìÿííûé_ãðàäèåíò_100-7" x1="141.62" y1="110.82" x2="205.77" y2="110.82" xlink:href="#Áåçûìÿííûé_ãðàäèåíò_100"/><linearGradient id="Áåçûìÿííûé_ãðàäèåíò_60-5" x1="36.24" y1="378.06" x2="36.24" y2="363.06" xlink:href="#Áåçûìÿííûé_ãðàäèåíò_60"/><linearGradient id="Áåçûìÿííûé_ãðàäèåíò_100-8" x1="26.79" y1="371.53" x2="45.69" y2="371.53" xlink:href="#Áåçûìÿííûé_ãðàäèåíò_100"/><linearGradient id="Áåçûìÿííûé_ãðàäèåíò_153-2" x1="414.38" y1="237.48" x2="432.84" y2="237.48" xlink:href="#Áåçûìÿííûé_ãðàäèåíò_153"/><linearGradient id="Áåçûìÿííûé_ãðàäèåíò_118-2" x1="414.38" y1="237.48" x2="432.84" y2="237.48" xlink:href="#Áåçûìÿííûé_ãðàäèåíò_118"/></defs><title>objects</title><g class="cls-1"><g id="Layer_1" data-name="Layer 1"><path class="cls-2" d="M321.88,397.43l67.27,3.85s55.69-16.78,83.47-52.15l13.07-73.65L464.1,208.11l-117.29,75S320.2,373.1,321.88,397.43Z"/><path class="cls-3" d="M469.33,257.73A218,218,0,0,1,251,476c-3.87,0-7.79-.09-11.61-.32h0c-5.71-.28-11.38-.83-17-1.52A216.86,216.86,0,0,1,110.95,425a222.37,222.37,0,0,1-50.72-61.27c-1.34-2.4-2.63-4.84-3.92-7.28,0-.09,0-.14-.09-.23-1.34-2.63-2.58-5.25-3.78-7.92h0a209.26,209.26,0,0,1-9.77-25.8A196,196,0,0,1,37.51,303a.28.28,0,0,1,0-.18c-1-4.65-1.8-9.35-2.44-14.1a214.82,214.82,0,0,1-2.21-31c0-6,.23-12.07.78-18,.28-3.78.69-7.51,1.2-11.24a214,214,0,0,1,17.46-61A218.47,218.47,0,0,1,251,39.44c2.3,0,4.61,0,6.86.09,2.44.09,4.88.18,7.33.37a217.35,217.35,0,0,1,36.63,5.53c6.91,1.66,13.68,3.59,20.32,5.9,4.51,1.52,8.94,3.23,13.31,5.07,3.27,1.38,6.45,2.81,9.63,4.33.55.28,1.11.51,1.66.78a218.7,218.7,0,0,1,57.08,40.36c2.4,2.3,4.7,4.7,7,7.14,1.52,1.66,3,3.36,4.51,5.07,2.53,2.86,5,5.85,7.37,8.85a217.62,217.62,0,0,1,40.17,82.19A217.63,217.63,0,0,1,469.33,257.73Z"/><path class="cls-4" d="M124.69,240.82s38.6,34.51,48.2,48.72,41.9,111.27,42.77,131.71-18.47,48-18.47,48-32.77-9.23-51.09-20.16l11.07-76.25Z"/><path class="cls-5" d="M352.57,305l60.38,29.93s12,8.06,26.21-7c0,0,1.43-21.05-7.3-41.36Z"/><g class="cls-6"><path class="cls-7" d="M131,252.25c-4.93,21-1.8,43,5.79,63,1.64,4.32,3.4,9.87,6.08,13.76,2.11,3.06,5.69,4.91,8.59,7.11,3.84,2.93,7.34,6.25,11.11,9.25a45.65,45.65,0,0,0,13.8,7.32c9.82,3.49,19.68,6.11,30,3a45,45,0,0,0,23.49-17.28c2.48-3.68,5.35-6.94,8-10.5s4.2-7.94,5.81-12c3.18-8,4.19-18.07,3.63-26.6a68.47,68.47,0,0,0-1.76-12.18c-1-4.14-2.94-8-3.73-12.19-1.3-6.9-4.38-13-7.15-19.5-6.86-16-24.7-25.63-41.14-28-7.72-1.12-15.37.67-23,1.84-8,1.24-13.85,5-21,8.45-4.2,2.06-8.32,4.36-11.32,8C131.17,244.48,130.14,256.64,131,252.25Z"/><path class="cls-7" d="M196.85,368.43c3.71-3.34,8.75-7.13,13.52-8.81,3.27-1.15,6.32.1,9,2,5.38,3.84,4.35,12.8.09,17.34-7.77,8.29-22.38,1.67-22.33-8.91Z"/><path class="cls-7" d="M272.15,298.79c-2.14-2.9-3.63-3.87-3.52-6.76.09-2.18,2.53-6.32,3.68-8.41A26.87,26.87,0,0,1,288,270.72a46.5,46.5,0,0,1,14.2-2.24c4.47,0,8.17,1.28,12.38,2.64,7.63,2.46,16.06,6.53,21.68,12.5,5.28,5.61,4.52,15.75-.11,21.47-3.54,4.38-8.69,7-13.36,10-5.12,3.28-10.73,7.47-16.66,9.1-3.84,1.06-6.59,1.6-10.37.49a54.55,54.55,0,0,1-9.94-3.84c-3.05-1.55-5.37-2.19-7.86-4.63a31.37,31.37,0,0,1-5.56-7A11.42,11.42,0,0,1,272.15,298.79Z"/><path class="cls-7" d="M255.53,259.24c-.88,2.83-2.82,8.55,2.3,8.23a12.86,12.86,0,0,0,7-3.55c5.11-6-7.1-10-8.17-4.68Z"/><path class="cls-7" d="M331.67,401.94c-2.44-5.13-3-7.09-1.33-12.55a120.92,120.92,0,0,1,10.9-24.53c2.74-4.69,6.12-11.08,11.3-13.33a41.34,41.34,0,0,1,13.5-3.18c9.83-.61,17.43,4,24.42,10.52,4.32,4,7.91,7.33,10.42,12.8a33.76,33.76,0,0,1,3,16.19c-1.44,14.8-14.32,25.27-23.86,35.37-7.52,8-20.08,18-31.81,13.72-8.1-2.94-12.94-11.54-16.26-19C329.7,413,330.51,407.23,331.67,401.94Z"/><path class="cls-7" d="M318.88,363.21c-2.86,2.33-3.82,5.2-4.52,8.88-.51,2.67-1.61,8.6,1,10.77,2.3,1.9,6.52-1.31,8.36-2.49a16.61,16.61,0,0,0,3.95-3.55,9.6,9.6,0,0,0,1.85-2.34c.59-1.48.38-3.55.31-5.13a7.25,7.25,0,0,0-2.55-4.84,6.44,6.44,0,0,0-3.69-1.71C321.89,362.42,319.8,361.71,318.88,363.21Z"/><path class="cls-7" d="M235.75,459.14c-.31.86-.62,1.4-.17,2.22a14.66,14.66,0,0,0,2.53,2.59c2.22,2.06,4.6,2.67,7.51,3.29a21.55,21.55,0,0,0,8.7.4c1.84-.37,4.19-.78,5.4-2.35,2.25-2.91.39-7.29-1.11-10.07-1.14-2.13-2.76-4-4.07-6.08a26.45,26.45,0,0,0-5.42-5.68c-2.46-2.06-6.28-4.87-9.45-2.59-3,2.15-4.66,6-5.45,9.52a11.44,11.44,0,0,0,.33,6.14C235,457.89,236,458.8,235.75,459.14Z"/><path class="cls-7" d="M412.82,374.46c-1.73-1.45-2.38-1.53-2.19-3.5a21.65,21.65,0,0,1,1.15-6.1c1.7-4.29,5.25-7.84,8.65-10.84a19.18,19.18,0,0,1,6.75-3.6,7.63,7.63,0,0,1,3.64-.75,5.29,5.29,0,0,1,4.46,3.84c1.1,3.36-.55,7.09-2.37,9.83-2.33,3.51-4.15,7.49-7.85,9.8-1.71,1.07-3.5,2.12-5.31,3a6.48,6.48,0,0,1-3.57,1C415.3,377,412.57,376.29,412.82,374.46Z"/><path class="cls-7" d="M56.5,223.15c.46,1.93.55,3.93,1.17,5.82,1.27,3.86,4.05,7.17,6.92,10,5.44,5.32,13.19,7.5,20.44,9a63.77,63.77,0,0,0,11.68,1.46c3.14,0,6.46.71,9.58.46a33.78,33.78,0,0,0,14.7-4.56c6.66-3.94,12.1-10.07,9.91-18.17-1.2-4.43-4.13-8.23-7.34-11.38-3.5-3.44-6.32-7-10.9-9.12-2-.92-4.05-1.85-6.1-2.66-2.47-1-4.8-2.33-7.43-2.79-2.19-.38-4.44-1.22-6.65-1.33a52.5,52.5,0,0,0-6.65.07c-7.86.64-16,5.24-21.43,10.84-2.16,2.22-4,4.7-6.15,6.9A7,7,0,0,0,56.5,223.15Z"/><path class="cls-7" d="M218.2,168.27c-2.18,3.41-3,4.17-3.3,8.16a44.44,44.44,0,0,0,1.2,14.78c2.86,11.29,11.71,20.38,19.26,28.89,12.39,14,26.35,26.66,43.39,34.66,6.71,3.15,13.81,6.73,21.47,5.72,7.44-1,14.18-3.77,21.27-6a118.5,118.5,0,0,1,19.37-4.71c3-.42,6.06-.82,9.1-1.16,4.42-.49,8.16-2.26,12.38-3.5,6.1-1.79,12.46-2.88,18.5-4.82a51.54,51.54,0,0,0,8-3.36c4.23-2.19,8.76-3.49,13-5.81a53.65,53.65,0,0,0,27-43.64c.42-9.12-2.91-18.65-7.49-26.4-2.6-4.39-5.89-8.34-8.76-12.57a94.16,94.16,0,0,0-12.89-14.92,74.19,74.19,0,0,0-30.45-17.53,61.61,61.61,0,0,0-19.08-2.81,159.88,159.88,0,0,0-30.88,3.49c-10.1,2-20.33,4.2-30.26,7-10.46,3-21,7.41-30.82,12-10.14,4.74-19,11-25.47,20.23-1.46,2.07-3.15,4.05-4.53,6.14-1.09,1.65-1.69,2.93-3.29,4.12C222,168.39,219.28,168.87,218.2,168.27Z"/></g><path class="cls-8" d="M437.47,207.83l31.86,49.9s1-33.36-3.68-40.08S437.47,207.83,437.47,207.83Z"/><path class="cls-9" d="M57.67,170.18S120,210.42,290.48,202.82l68.64,5.29s65.23-22.19,80-61.18c0,0-19.26-27.78-23.78-32.85s-84.78,12.26-84.78,12.26Z"/><path class="cls-10" d="M66.85,128V115.34s34.46-44.55,91.2-93.49c0,0,147.53-13,189.43,0l16.59,37.94,48.88,18.55,2.43,35.74s-32.11,51-90.6,68.85l-29.58-7s-32.39,13.41-117.94,13.41c-87.41,0-119.59-19.15-119.59-19.15V140.85Z"/><path class="cls-11" d="M190.34,404.6,176,442l-44.18,10.5-44.69-2S39.74,420.4,17,372.86L22,329.6,5.18,314.12s-4.05-40.4,29.58-77.31c0,0,37.09-10.32,89.93,4l32.57,36.12S183.94,327.8,190.34,404.6Z"/><path class="cls-12" d="M248.41,430.17s10,13.26,16.14,15.87,40.15,10.48,44.08,10,3.93-36.38,1.75-42.2a39.68,39.68,0,0,0-6.11-10.43Z"/><path class="cls-13" d="M494.51,159.45l-1.7,14.24L468,219.95c-13.91.37-28.75-10.73-30.5-12.12,0,0-.14-.09-.18-.14-10-16.22-13.45-51.88-13.45-51.88l11.61-14.33,19-3.46,4.79,2.81,16.86-4.75,13.22,8.43,3.92,2.53Z"/><path class="cls-14" d="M442.56,228.89s-27.74-15.18-41.28-14.67l-34.61,23.71S352.6,276.09,352.57,305c0,0,33.37,12,56.83,8.73,0,0,26.81-11.92,36.07-31.52C445.47,282.2,449.11,248.59,442.56,228.89Z"/><path class="cls-15" d="M66.85,115.34s64.14,2.1,134.85-16c0,0,71.58-25.12,85.55-34.72s60.23-42.72,60.23-42.72-73.33-18.28-189.43,0C158.05,21.85,97,67.47,66.85,115.34Z"/><path class="cls-16" d="M364.07,59.79s-44.52,51.33-49.76,55.55-77.78,33.45-77.78,33.45L195.59,159.3s51.21-.42,59.94,0l16.29-15.87,56.45,2.33s51.79-31.25,84.67-67.42Z"/><path class="cls-17" d="M57.67,140.85l45.39,4.32s30.26,1.31,47.72-4.58c0,0-60.77-3-83.93-12.58Z"/><path class="cls-18" d="M366.66,237.93s19.82,7.44,32.86,6.56,43-15.6,43-15.6-13.75-12-41.28-14.67Z"/><path class="cls-19" d="M5.17,314.13S65.1,301,81.56,294.42s43.12-53.59,43.12-53.59-32.92-15.27-89.92-4C34.76,236.81-.75,269.85,5.17,314.13Z"/><path class="cls-20" d="M22,329.61s42-5.52,56.79-9.59,38-18.42,38-18.42S99,342.08,92.58,351.24c0,0-49.88,18.79-75.55,21.63C17,372.86,15.69,350.33,22,329.61Z"/><path class="cls-21" d="M246.22,420.19s9.6-21,21-25.52c0,0,27.06.25,37.1,8.79l-6.55,39.84-37.54-2.56S246.22,433.61,246.22,420.19Z"/><path class="cls-22" d="M246.22,420.19s11.78,3.39,22.7,0,24.44-21,24.44-21-8.73-5.71-26.19-4.52C267.17,394.67,249.28,402.18,246.22,420.19Z"/><path class="cls-23" d="M190.34,404.6,176,442l-44.18,10.5-44.69-2s44.27-2.72,45.61-9.26,4.33-25.29,4.33-25.29c-10.87-32.71-44.5-64.68-44.5-64.68,14.05-19.81,24.19-49.66,24.19-49.66L97.69,312.23,85.25,292.37c20.64-18.38,39.44-51.55,39.44-51.55l32.57,36.12S183.94,327.8,190.34,404.6Z"/><polygon class="cls-24" points="276.69 415.94 297.72 443.3 304.27 403.46 293.36 399.19 276.69 415.94"/><path class="cls-25" d="M399.52,244.5s7.32,25.23,8.19,35.7,1.69,33.52,1.69,33.52,20.14-6.81,36.07-31.52c0,0,4.2-28.77-2.91-53.31C442.56,228.89,416.21,242.41,399.52,244.5Z"/><path class="cls-26" d="M441.17,159.91l5.31,4.16s11.6-4.72,12-10.7l.79-12.53L454.49,138Z"/><path class="cls-27" d="M494.51,159.45l-1.7,14.24L468,219.95c-13.91.37-28.75-10.73-30.5-12.12a47.44,47.44,0,0,0,25.66,7.51s.88-14.6,0-23.77-7.46-27.5-7.46-27.5l33.68-19.53,3.92,2.53Z"/><path class="cls-28" d="M454.49,138l-13.32,21.88s-8,2.1-17.34-4.07l11.61-14.34Z"/><path class="cls-29" d="M459.25,140.84l-.79,12.53s-6.81,8.86-15.81,12.69c0,0,17.28-1.88,25.27-5.38,0,0,20.77-8.29,25.37-13.64l-17.15-11Z"/><path class="cls-30" d="M207.17,96.7l43.9,46.18,63.24-27.54s46.27-50.73,49.76-55.55L347.48,21.85s-45.39,31.38-60.23,42.72S207.17,96.7,207.17,96.7Z"/><path class="cls-31" d="M271.83,143.43l23.37,32.49a211.91,211.91,0,0,1-36.75,8.3l-2.92-24.92Z"/><path class="cls-32" d="M328.28,145.76l-3.49,37.18s61.32-22,90.6-68.85l-2.43-35.74S366.2,122.34,328.28,145.76Z"/><path class="cls-33" d="M74.47,142.45l42.3,44.5h21l3.82-44.07S94.18,147.3,74.47,142.45Z"/><g class="cls-34"><path class="cls-35" d="M83.86,100.94c-.88-2.43-.29-3.32,1-5.56,2.1-3.53,5-6.5,7.53-9.7,4.95-6.22,10.23-12,16.89-16.5,6.88-4.63,13.63-9.64,20.91-13.64a111.58,111.58,0,0,1,15.33-7.48c3.76-1.37,7.66-2.45,11.49-3.62,7.5-2.28,17.72-3.28,25,.57,4.41,2.34,6.13,6.67,7.79,11.14.81,2.2,1.52,4.09,1.09,6.49a24.66,24.66,0,0,1-2.36,6.14c-3,6.18-8.66,11.85-13.92,16.17a114.15,114.15,0,0,1-36.06,19.64c-3.51,1.19-7,2.52-10.65,3.38-2.34.56-4.75.81-7.08,1.39a125.9,125.9,0,0,1-16.52,3.17,45.07,45.07,0,0,1-4.75.69c-1.37,0-2.7-.86-4-1.09-2.25-.39-5.45-.3-7.46-1.41C82.67,107.77,82,101.94,83.86,100.94Z"/><path class="cls-35" d="M173.48,94.54c.48-2.27.35-2.36,1.78-3.65A19.6,19.6,0,0,1,178,87.7a23.32,23.32,0,0,1,4.27-2.93c4.41-2.45,9.79-5.19,14.95-3.67,3.47,1,5.44,2.7,4.63,6.5A11,11,0,0,1,198,93.23c-3,2.38-6.44,3.8-9.95,5.28a17.36,17.36,0,0,1-9.46,1.15C175.91,99.08,173.11,96.21,173.48,94.54Z"/><path class="cls-35" d="M249.71,31.69A30.19,30.19,0,0,0,240.22,36c-5,3.38-10.3,6.78-14.84,10.72a37.64,37.64,0,0,0-7.64,8.8,19.78,19.78,0,0,0-2.27,8.66c-.24,3.07.73,8.55,4.06,9.92,1.28.53,3.58.06,4.85.07A31.4,31.4,0,0,0,232.69,73c2.82-.7,5.65-.89,8.45-1.71s5.68-1.63,8.55-2.34c6.2-1.54,12.21-3,18-5.79,5.48-2.61,11.17-4.78,16.54-7.61,3.88-2,7.67-4.13,11.67-5.94,5.53-2.5,11.06-4.95,16.38-7.86a23,23,0,0,0,5.57-4.51c1.75-1.78,3.82-3.28,5.12-5.45.58-1,1.94-2.79,1.9-4-.05-1.54-2.26-3.43-3.41-4.15a18.69,18.69,0,0,0-7.13-2.31,59.52,59.52,0,0,0-10.61-.61A107.89,107.89,0,0,0,291,22.36a44.94,44.94,0,0,1-7.92,1.22,100.41,100.41,0,0,0-14.74,1.24A73.6,73.6,0,0,0,260,27a48.27,48.27,0,0,0-7.51,2.34C251.37,29.93,247.07,30.89,249.71,31.69Z"/><path class="cls-35" d="M238.07,23.54c-2.67,1.25-6.63,2.63-8.26,5.42-1.06,1.82.42,2.18,2,2.2,2.85,0,5.78-1.35,8.52-2.09a19.57,19.57,0,0,0,6.12-2.93c.84-.61,2.52-1.22,2-2.48-.33-.74-2.07-1.53-2.79-1.74a9,9,0,0,0-8.16,1.63Z"/><path class="cls-35" d="M333.51,107.93c-2.42.79-4.83,1.21-7.21,1.94a24.53,24.53,0,0,0-6.66,3.71c-3.53,2.5-7.35,5.7-9.48,9.52-1.78,3.2-3.71,9,0,11.62,5.16,3.6,13.21-.06,18.36-1.77,8.08-2.68,17-5.8,23.82-11a109,109,0,0,0,8.37-7.44,63.15,63.15,0,0,0,6.4-7.1,9,9,0,0,0,1.33-6.43c-.23-2.08-2.29-3.78-4.21-4.54-3.82-1.51-7.07.29-10.82.9a37.54,37.54,0,0,0-12,3.76C336.15,104.09,330.52,106.68,333.51,107.93Z"/><path class="cls-35" d="M346.9,86.4a6,6,0,0,1-1.19-2.87c1.18-.31,1.84-1.66,2.65-2.41a9.62,9.62,0,0,1,2.39-1.51c1.39-.69,3.92-1.87,5.49-1.27,3,1.15,3.73,4.08,2.18,6.91a10.21,10.21,0,0,1-7.61,5.1c-2.31.3-7.32-3-4.5-5.7Z"/><path class="cls-35" d="M381.23,78.25c-2,.37-4.73.39-6.59,1.33-.39.2-.91.83-1.32,1.1-2,1.35-4.28,2.44-6.1,4-2,1.73-4.18,4.86-3.14,7.58,3.59,9.43,16.72,4.17,22.7.84,2-1.12,3.33-2.74,5.17-4.07a13.22,13.22,0,0,0,3.51-3.18c1.47-2.09,1.77-3.5.75-5.9a6.29,6.29,0,0,0-4.5-3.33,19.53,19.53,0,0,0-5-.74c-4,.17-7.41,2.77-10.75,4.69Z"/><path class="cls-35" d="M37.88,247.6a50.66,50.66,0,0,0-22.14,19.79,73,73,0,0,0-5.67,12.07c-.8,2.2-1.13,4.51-2,6.69a29.25,29.25,0,0,0-1.89,5.7c-.81,4.62-3,14,4.43,14.62,3.33.27,7.21-.54,10.46-1.21a88,88,0,0,0,19-6.69c6.56-3.09,13.2-6.55,18.86-11.1,5.34-4.29,11.31-7.78,16.14-12.68,5.78-5.85,14.12-15.44,7.6-23.77-6.16-7.87-19.44-6.07-28.05-5-4.07.49-8.61.53-12.57,1.73a15.69,15.69,0,0,0-2.87,1.18C38.56,249.24,38,249.92,37.88,247.6Z"/><path class="cls-35" d="M69.89,286.59c.59-2,.79-2.89,2.23-4.27s2.85-3,4.29-4.5c2.26-2.33,7.05-5,10.38-5.23,1.51-.09,3.55,0,4.67,1.18s.61,3.8,0,5.22A8.9,8.9,0,0,1,89,282.51a27.88,27.88,0,0,1-4.52,3.71,38.09,38.09,0,0,1-6.9,2.56c-1.84.54-4.69,1.49-6.43,0C70.13,287.93,69.15,285.88,69.89,286.59Z"/><path class="cls-35" d="M44.86,334.31c-1.94.44-4.75.69-6.5,1.9a18.71,18.71,0,0,0-3.87,4.12c-2.29,3-4.26,6.25-6.53,9.26a82.87,82.87,0,0,0-5.19,7.9c-1.07,1.82-1.66,3.53-.63,5.5,2.57,4.92,10.52,3.73,14.81,2.7,4.61-1.11,8.74-3.34,13.06-5.23,3.89-1.7,7.94-3.17,11.67-5.19,6.43-3.48,14.27-7,17.74-13.86,1.35-2.67,1.88-4.83.7-7.64a12,12,0,0,0-5.55-5.92c-2.6-1.42-5.42-1.1-8.27-1.12a42.81,42.81,0,0,0-12.2,1.73c-2.44.73-5,1.93-7.35,2.9C43.11,332.86,41.24,335.83,44.86,334.31Z"/><path class="cls-35" d="M22.17,338.38a8.38,8.38,0,0,1,.09-2.91c1.71-.52,2.45-2.43,4.6-1.77,1.57.48,1.82,2.29,1.43,3.52-.78,2.47-6.81,7.59-6.7,2.33Z"/><path class="cls-35" d="M403.35,222q-4.36.18-8.69.67a12.77,12.77,0,0,1-2.5,1.59c-3,1.58-5.71,2.71-8.31,5-2.1,1.81-7,5-6.75,8.36.27,3.09,4.75,3.68,7.13,3.7s4.89-.53,7.33-.66c3.38-.18,6.71-.6,10.07-1,4.29-.52,8.87-1.32,12.66-3.48a17.5,17.5,0,0,0,5.42-4.71c.75-.94,1.88-1.88,1.65-3.19-.15-.87-1.75-2.61-2.38-3.19a12.54,12.54,0,0,0-3.38-1.9C410,220.65,403.7,222.6,403.35,222Z"/><path class="cls-35" d="M260.77,408.22c-2.35,1-3.81,1.27-4.85,3.45-.39.8-1.64,2.53-1.61,3.59,0,1.46,1.52,1.39,2.75,1.06,1.59-.43,3.18-1.87,4.52-2.74a11.32,11.32,0,0,0,2.73-2.47,3.57,3.57,0,0,0,1.1-1.74c.15-.75-.24-1.42.51-1.9-.49-3.37-6.85,1.27-8,1.32Z"/><path class="cls-35" d="M277.06,401.81c-3.62,1.61-6.06,2.86-7.91,6.44-.58,1.13-1.14,2.31-.55,3.45,1.89,3.67,5.92.4,8-1.17a29.07,29.07,0,0,0,4.24-3.18c.56-.6.94-1.3,1.45-1.93s1.36-1.18,1.66-1.87c.58-1.36-.36-2.39-1.62-2.79-2.39-.75-4.2.82-6.44,1Z"/><path class="cls-35" d="M86.76,322.09c-1.07,2.32-5,11,.19,11,4.49,0,11.82-4.89,12.06-9.83.16-3.3-2.48-4.9-5.56-5.26-3.91-.45-6.19,2.66-7.86,5.84Z"/><path class="cls-35" d="M100.15,247c-1,1.38-2.42,2.55-1,4a4.09,4.09,0,0,0,2.43,1.27c2,.27,4.89-1.49,5-3.47a4,4,0,0,0-1.76-3.5c-1.59-1.16-2.69-.43-4.07.59Z"/></g><path class="cls-36" d="M154,109.54s26-8,31.74-10.26,34.74-7,34.74-7,24.89-10.69,31.88-14,24.73-12,24.73-12l20.67-9.47s-14,14.34-26.2,19-43.36,17.21-43.36,17.21-9.31,2.59-22.41,6.83S154,109.54,154,109.54Z"/><path class="cls-37" d="M315.84,145.3,327.78,151s12.35-7.35,14.28-14.39C342.06,136.65,318.67,143.09,315.84,145.3Z"/><polygon class="cls-37" points="249.93 159.3 255.94 162.76 260.27 154.68 249.93 159.3"/><path class="cls-38" d="M154,237s14.11,14.1,45.1,23.6c0,0,2.18-2.27,4.8-15.59s0-18,0-18S165.84,231.88,154,237Z"/><path class="cls-39" d="M174.81,279.18a24.36,24.36,0,0,0,2.16,7.95c1.75,3.24,21.31,8.12,23.9,7,4.8-2-.62-13.69-2.66-17.18a43.26,43.26,0,0,0-5.36-6.94Z"/><path class="cls-37" d="M53.31,364.44s26.47-11.82,34.77-17.78,20.75-27.44,20.75-27.44L95.49,352.35l-8.88,3.35-9.46,2Z"/><path class="cls-37" d="M69.63,298.34l22.51-12.69s-2.12,7.23-5.35,9.17S69.63,298.34,69.63,298.34Z"/><path class="cls-40" d="M391.7,244.22l10,8s2.45-6.58,2.93-8.68S391.7,244.22,391.7,244.22Z"/><path class="cls-37" d="M448.83,165.24l14.32-4.62,12.55-3.28s-14,7.41-16.45,8.72S448.83,165.24,448.83,165.24Z"/><polygon class="cls-37" points="437.47 160.25 442.64 156.23 442.64 161.06 437.47 160.25"/><polygon class="cls-40" points="265.05 421.1 282.17 411.38 280.13 420.42 265.05 421.1"/><path class="cls-41" d="M73.23,142.45s13.05-1.06,20.71-1.06,22.79,1.49,22.79,1.49l14.66,1.44s-8.41.69-26.16,1A154,154,0,0,1,73.23,142.45Z"/><path class="cls-42" d="M146.71,224.84s13.38-14.88,19.2-17,33.13,10.34,37.93,12.11-9.25,29.43-12.83,32.33S147.29,240.5,146.71,224.84Z"/><path class="cls-43" d="M196.84,287.12c-1.24,3.55-13.45,1.7-17.83,0l-.32-.18-.92-.64a.55.55,0,0,1-.23-.23c-3.13-3.22-3.87-12-1.75-16.68,0,0,10.64-3.27,14.56-1.89,2.53.88,5.07,7.42,6.17,12.85v0C197.07,283.29,197.25,285.92,196.84,287.12Z"/><path class="cls-44" d="M180.87,233.21l10.14,19s13-14.15,13.8-30.43Z"/><path class="cls-45" d="M49.61,173.64,25,179.6s-4,14.22-3.43,20.16L36.83,215.9S41.55,187,49.61,173.64Z"/><path class="cls-46" d="M146.71,224.84a107.74,107.74,0,0,0,26.74,8.37c14.73,2.45,31.38-11.38,31.38-11.38s-15.78-14.1-38.47-16.72C166.35,205.11,151.51,213.58,146.71,224.84Z"/><path class="cls-47" d="M196.84,287.12c-1.24,3.55-13.45,1.7-17.83,0l-.32-.18-.92-.64-.28-.18,0,0,3.32-4.61,13.64-3.32,2,2.21v0C197.07,283.29,197.25,285.92,196.84,287.12Z"/><path class="cls-48" d="M175.77,269.36s-.26,9.75,3.89,11.71,13.59-2,14.84-2.92-2.89-9.85-6.46-11S175.77,269.36,175.77,269.36Z"/><path class="cls-49" d="M387.72,399.36a24.37,24.37,0,0,0-8.24,0c-3.59.82-9.4,19.57-9.4,22.38,0,11.06,12.86,7.92,16.77,6.89s4.85-9.41,4.85-9.41Z"/><path class="cls-50" d="M374.19,418.47c-3.09-2.15,2-13.42,4.77-17.18l.26-.26.87-.72a.55.55,0,0,1,.28-.16c3.94-2.16,12.62-.52,16.54,2.77,0,0,.31,11.13-2.07,14.53-1.52,2.21-8.5,2.9-14,2.51h0C377.81,419.71,375.23,419.19,374.19,418.47Z"/><path class="cls-51" d="M374.19,418.47c-3.09-2.15,2-13.42,4.77-17.18l.26-.26.87-.72.25-.22,0,.06,3.55,4.43-.45,14L380.8,420h0C377.81,419.71,375.23,419.19,374.19,418.47Z"/><path class="cls-52" d="M396.93,402.91s-9.33-2.85-12.32.62-1.73,13.63-1.16,15.08,10.26-.15,12.33-3.29S396.93,402.91,396.93,402.91Z"/><polygon class="cls-53" points="97.69 382.7 120.49 384.3 155.75 382.7 167.15 386.69 154.93 384.94 131.4 396 129.69 399.19 116.77 395.7 97.69 382.7"/><polygon class="cls-54" points="97.69 382.7 116.77 394.5 123.58 393.45 133.83 392.58 154.93 384.94 131.4 396 129.69 399.19 115.06 396.5 97.69 382.7"/><polygon class="cls-55" points="141.62 110.73 160.16 121.73 180.87 120.11 205.77 99.91 173.7 97.62 153.98 102.69 141.62 110.73"/><path class="cls-56" d="M141.62,110.73h6.18l11.35,2.51h12.22L184.68,108l14.6-8.09h6.49s-13.22,13.54-24.9,20.2l-20.71,1.62Z"/><path class="cls-57" d="M26.79,371.29l8.78-8.23,9.58,1.39s1.22,6.09,0,10.89-9.58,1.8-9.58,1.8Z"/><path class="cls-58" d="M26.79,371.29s8.84,2.88,10.29,2.88,4.95-.14,6.4-1.31,1.66-8.42,1.66-8.42,1.22,6.82,0,10.89c0,0-.2,3.49-6.39,3.27l-4.07-1.24Z"/><path class="cls-59" d="M414.38,240.82s2.28-5.11,5.34-7.31,12-2,12-2l1.12,2s-3.09,7.9-5.49,9.29-7.42,0-7.42,0Z"/><path class="cls-60" d="M431.72,231.55s-3.16,5.32-5.35,6.73a32,32,0,0,1-5,2.51,24.45,24.45,0,0,1-7,0s5.16,2.48,9.23,2.59c0,0,4.58.07,5.26-.62s4-9.29,4-9.29Z"/></g></g></svg>