<svg xmlns="http://www.w3.org/2000/svg" xmlns:xlink="http://www.w3.org/1999/xlink" viewBox="0 0 500 500"><defs><style>.cls-1{isolation:isolate;}.cls-2{fill:url(#linear-gradient);}.cls-3{fill:#fff;opacity:0.65;mix-blend-mode:color-dodge;}.cls-4{fill:#87000d;}.cls-5{fill:url(#linear-gradient-2);}.cls-6{fill:#fcfe02;}.cls-7{fill:url(#linear-gradient-3);}.cls-8{fill:url(#linear-gradient-4);}.cls-9{fill:url(#linear-gradient-5);}.cls-10{opacity:0.35;mix-blend-mode:color-burn;fill:url(#linear-gradient-6);}.cls-11{fill:#fff7f5;opacity:0.5;mix-blend-mode:overlay;}</style><linearGradient id="linear-gradient" x1="72.88" y1="193.88" x2="526.2" y2="336.18" gradientTransform="translate(-95.31 28.35) rotate(-7.54)" gradientUnits="userSpaceOnUse"><stop offset="0" stop-color="#ff5f06"/><stop offset="0.02" stop-color="#fd5c0a"/><stop offset="0.34" stop-color="#de353c"/><stop offset="0.62" stop-color="#c81861"/><stop offset="0.85" stop-color="#bb0678"/><stop offset="0.99" stop-color="#b60080"/></linearGradient><linearGradient id="linear-gradient-2" x1="131.47" y1="373.94" x2="555.74" y2="373.94" gradientTransform="translate(-95.31 28.35) rotate(-7.54)" gradientUnits="userSpaceOnUse"><stop offset="0.01" stop-color="#ffbb2f"/><stop offset="0.1" stop-color="#ffc626"/><stop offset="0.33" stop-color="#ffdd13"/><stop offset="0.48" stop-color="#ffe50c"/><stop offset="0.55" stop-color="#ffc00c"/><stop offset="0.64" stop-color="#ff9c0c"/><stop offset="0.73" stop-color="#ff800c"/><stop offset="0.81" stop-color="#ff6c0c"/><stop offset="0.9" stop-color="#ff600c"/><stop offset="0.98" stop-color="#ff5c0c"/></linearGradient><linearGradient id="linear-gradient-3" x1="88.63" y1="243.19" x2="532.7" y2="243.19" xlink:href="#linear-gradient-2"/><linearGradient id="linear-gradient-4" x1="149.55" y1="78.95" x2="380.39" y2="78.95" gradientTransform="translate(-95.31 28.35) rotate(-7.54)" gradientUnits="userSpaceOnUse"><stop offset="0.01" stop-color="#ffbb2f"/><stop offset="0.1" stop-color="#ffc626"/><stop offset="0.33" stop-color="#ffdd13"/><stop offset="0.48" stop-color="#ffe50c"/><stop offset="0.52" stop-color="#ffdf11"/><stop offset="0.68" stop-color="#ffcb22"/><stop offset="0.84" stop-color="#ffbf2c"/><stop offset="1" stop-color="#ffbb2f"/></linearGradient><linearGradient id="linear-gradient-5" x1="69.99" y1="173.71" x2="442.39" y2="173.71" xlink:href="#linear-gradient-2"/><linearGradient id="linear-gradient-6" x1="313.2" y1="508.87" x2="373.23" y2="55.41" gradientTransform="translate(-95.31 28.35) rotate(-7.54)" gradientUnits="userSpaceOnUse"><stop offset="0" stop-color="#1c0067"/><stop offset="0.1" stop-color="#1c007f"/><stop offset="0.29" stop-color="#1c00a5"/><stop offset="0.47" stop-color="#1c00c2"/><stop offset="0.65" stop-color="#1c00d7"/><stop offset="0.83" stop-color="#1c00e4"/><stop offset="1" stop-color="#1c00e8"/></linearGradient></defs><title>objects</title><g class="cls-1"><g id="Layer_1" data-name="Layer 1"><path class="cls-2" d="M485.82,223.06c.25,1.9.46,3.76.67,5.63.56,5,.94,10,1.14,15,.07.76.1,1.56.13,2.33a237.47,237.47,0,0,1-4.83,56.74c-.68,3.32-1.44,6.61-2.27,9.84-23.17,91.42-100,164-199.12,177.12q-3.1.41-6.22.72c-1.14.12-2.28.23-3.43.31a.71.71,0,0,1-.38.05,235.1,235.1,0,0,1-108.93-15.84c-2.25-.86-4.47-1.76-6.67-2.73a237.07,237.07,0,0,1-57-35.05c-.51-.42-1-.85-1.54-1.3-2.13-1.75-4.15-3.55-6.18-5.35-1.32-1.19-2.63-2.42-3.92-3.65-2.18-2.07-4.3-4.2-6.39-6.35A235.06,235.06,0,0,1,53.5,387.16c-1.26-1.83-2.45-3.67-3.64-5.55l-.53-.84c-1.69-2.69-3.34-5.38-4.94-8.15-1.13-1.92-2.2-3.88-3.27-5.88-.55-1-1.08-2.07-1.6-3.08s-.93-1.73-1.36-2.62A230.77,230.77,0,0,1,23.3,324c-1-3.41-2-6.82-2.87-10.31-1.07-4.1-2-8.25-2.88-12.45-1.08-5.22-2-10.51-2.66-15.85A236.73,236.73,0,0,1,31.52,161.79c2.51-5.91,5.22-11.67,8.19-17.32.17-.3.3-.64.47-.94a236.68,236.68,0,0,1,19.45-30.76c1.54-2.13,3.16-4.24,4.81-6.32.54-.67,1.05-1.33,1.6-2A226.55,226.55,0,0,1,81.74,87,236.4,236.4,0,0,1,219.2,18.79c6.37-.84,12.71-1.44,19-1.75.7,0,1.36-.07,2.06-.06a232,232,0,0,1,45.07,2.27c2.68.38,5.34.84,8,1.33a232.79,232.79,0,0,1,43,12.22c.7.26,1.37.52,2,.82s1.12.48,1.68.7c2.33,1,4.66,1.89,7,2.92q2.74,1.22,5.49,2.53c3,1.46,6,3,9,4.56a237.44,237.44,0,0,1,46.24,32c1.79,1.59,3.58,3.21,5.31,4.87a239.22,239.22,0,0,1,25.4,27.91l.17.22c4.26,5.55,8.22,11.33,12,17.26-.11-.18-.21-.41-.34-.64,1.06,1.61,2.12,3.3,3.11,5s2.05,3.34,3,5c1.05,1.86,2.1,3.68,3.09,5.59a238.71,238.71,0,0,1,26.36,81.53Z"/><path class="cls-3" d="M485.82,223.06c.25,1.9.46,3.76.67,5.63.56,5,.94,10,1.14,15,.07.76.1,1.56.13,2.33a237.47,237.47,0,0,1-4.83,56.74c-.68,3.32-1.44,6.61-2.27,9.84-23.17,91.42-100,164-199.12,177.12q-3.1.41-6.22.72c-1.14.12-2.28.23-3.43.31a.71.71,0,0,1-.38.05c93-16.3,165.86-82.44,194.54-167,1.37-4,2.59-8,3.74-12,.64-2.29,1.29-4.59,1.86-6.87q1.32-5.12,2.41-10.42a250.78,250.78,0,0,0,4.2-28.36c.09-.68.14-1.32.19-2,.3-3.83.53-7.68.65-11.52.25-6,.23-12.06,0-18.13s-.64-12.22-1.31-18.34c-.23-2-.46-4-.72-6q-.94-7.08-2.27-14a245.85,245.85,0,0,0-16.76-54q-1.29-3-2.68-6c-1.52-3.24-3.13-6.42-4.77-9.57-.14-.23-.24-.46-.37-.69,1.06,1.61,2.12,3.3,3.11,5s2.05,3.34,3,5c1.05,1.86,2.1,3.68,3.09,5.59a238.71,238.71,0,0,1,26.36,81.53Z"/><path class="cls-4" d="M293.31,20.58c1.87,25.8-.71,64.33-34.11,81.05-48.36,24.25-151.54,64.87-199.57,11.13,1.54-2.13,3.16-4.24,4.81-6.32.54-.67,1.05-1.33,1.6-2a16,16,0,0,0,9.24,4.35C107.58,113.72,200,117.5,225,90.18s42.15-36.47,22-57.82A25.1,25.1,0,0,1,240.28,17a232,232,0,0,1,45.07,2.27C288,19.63,290.69,20.09,293.31,20.58Z"/><path class="cls-4" d="M361.49,44.34c.54,4.63,1.19,11.13,1.38,18.93,1,39.94-9.44,113.27-102,133.76-102.49,22.72-104.59,24.36-119,35s-51.51,1.56-70.52,10.21c-13.23,6-40.57,33.07-51,71.44-1.07-4.1-2-8.25-2.88-12.45-1.08-5.22-2-10.51-2.66-15.85A236.73,236.73,0,0,1,31.52,161.79c1.13-2.29,2.27-4.54,3.45-6.77-4.19,26.61-3.76,61.15,25,66.85,15.74,3.14,28.32,4.67,38.54,4.85a96.14,96.14,0,0,0,10.59-.25c14.21-1.25,22.83-5.76,29.6-12.4,12.41-12.16,59.84-11.43,91.15-20s98.79-41.69,106.5-62.87c6-16.54,17.49-52,11.81-87.67-.31-2.1-.7-4.22-1.15-6.33q2.74,1.22,5.49,2.53C355.51,41.24,358.51,42.73,361.49,44.34Z"/><path class="cls-4" d="M459.48,141.7c-11.75,3.38-27.7,17-45.57,56.73-37.48,83.18-16,72.41-51.11,99.92s-94.25,67-133.56,69.54c-33.19,2.19-133.56.71-175.73,19.27-1.26-1.83-2.45-3.67-3.64-5.55-3.1-4.85-6-9.79-8.74-14.87,9.19-4.76,22.4-8.23,41.41-8.43,57.22-.53,121.19,3.31,155.57-10s125.62-56.18,137.63-92.06c11.83-35.4,49.54-83.73,36-174.57a247.13,247.13,0,0,1,26.61,27.54l.17.22a240.9,240.9,0,0,1,17.87,26.7C457.44,138,458.49,139.8,459.48,141.7Z"/><path class="cls-4" d="M487.73,246a235.77,235.77,0,0,1-4.8,56.7c-.68,3.32-1.44,6.61-2.27,9.84-13.54,9.19-26.18,20.47-31.8,33.13-14.85,33.52-50.38,82.93-126.59,96.52-67.61,12.07-122.48-5.14-159.69,32.71-2.25-.86-4.47-1.76-6.67-2.73a237.07,237.07,0,0,1-57-35.05c22.56,4.06,50.33,7.54,75.4,6.25,54-2.76,98.43-11.28,134.74-28.36s62.67-23.2,69.88-54.83,26.75-56.13,64.49-69C468.46,282.65,482,266,487.73,246Z"/><path class="cls-5" d="M486.49,228.69c10.13,19.68,16.36,46.9-3.56,74-15.7,9.83-31.34,22.56-37.76,37-14.85,33.52-50.38,82.93-126.59,96.52-69.43,12.38-125.45-6.08-162.66,35.91-36.83,3.21-68.26-29-64.74-41.71,23.23,4.36,52.85,8.32,79.43,7,54-2.76,98.43-11.28,134.74-28.36s62.67-23.2,69.88-54.83,26.75-56.13,64.49-69C469.43,275.13,482.94,253.53,486.49,228.69Z"/><path class="cls-6" d="M94.44,435.32c23.23,4.36,52.85,8.33,79.43,7,54-2.76,98.43-11.28,134.74-28.36s62.67-23.2,69.88-54.83,26.75-56.13,64.49-69c29.08-9.92,42.62-30.83,46.52-55-.95-2.21-1.94-4.36-3-6.41-3.55,24.84-17.06,46.44-46.78,56.58-37.74,12.88-57.28,37.39-64.49,69S341.65,392,305.34,409.12s-80.76,25.59-134.74,28.36c-26.57,1.34-56.2-2.62-79.43-7-1.09,3.92,1.16,9.69,5.86,15.71C94.64,442,93.65,438.17,94.44,435.32Z"/><path class="cls-7" d="M321.09,296.1a43,43,0,0,1-3.95,4.34A39.1,39.1,0,0,0,321.09,296.1ZM425.46,86.57a107.45,107.45,0,0,0-13.89-8.29c-1.24-.64-2.52-1.28-3.83-1.95,6,40.57,1.86,72.61-5.64,98.81a306.81,306.81,0,0,1-15.79,41.74c-.35.78-.71,1.53-1.13,2.29a38.87,38.87,0,0,1-41.31,20.09c-16.09-2.88-35.21-6.17-51.09-8.52-11.69-1.71-21.6-2.93-27.23-3.06-10-.25-19.91,5.86-29.66,12.69-11.93,8.38-23.69,17.86-35.23,18.09-21,.46-40.76,45.16-47.68,63.6-4.22,11.29-17.87,20.74-27.81,26.4a28.56,28.56,0,0,1-14.31,3.65c-10.21-.05-20.42-.1-30.43,0-15.2.15-26.68,2.41-35.35,5.77a9.63,9.63,0,0,0-5.89,10.88c1.18,5.49,3.21,8.62,6.88,10.94a6.43,6.43,0,0,0,1.16.56,6.56,6.56,0,0,0,2.1.52,8.08,8.08,0,0,0,3.71-.56c42.76-17.83,140.64-16.34,173.28-18.49,39.11-2.55,97.89-41.88,132.82-69.3,31.06-24.38,17.63-18.6,40.41-75.33.92-2.3,1.94-4.71,3-7.27,2.15-5.19,4.59-10.85,7.39-17,17.84-39.81,33.76-53.27,45.45-56.58a8.61,8.61,0,0,1,.91-.26C446.24,107.38,437,94.93,425.46,86.57Zm-262,225.95a14,14,0,0,1,.19-1.46,34.48,34.48,0,0,1,5.35-12.8c.49-.77,1-1.53,1.52-2.3s1.24-1.74,1.9-2.6c.44-.62.89-1.2,1.38-1.79l.6-.78c5.65-7.09,11.8-13.34,14.19-17.83,4.69-8.79,20.37-5,33.39-12.59,11.62-6.76,27.55-15.92,39.08-24.74,1.4-1.06,2.73-2.15,4-3.19a5.61,5.61,0,0,1,2.41-1.13c3.72-1,10.07-.7,18,.46,3.9.61,8.18,1.41,12.65,2.36a6.29,6.29,0,0,0,.76.18,38,38,0,0,1,15.49,7.38,13.08,13.08,0,0,1,1.34,1.09c1.12,1,2.2,2.06,3.23,3.18a8.6,8.6,0,0,1,.91,1.07c.41.47.8,1,1.17,1.46A12.79,12.79,0,0,1,322,250a9.42,9.42,0,0,1,1,1.58,17.84,17.84,0,0,1,.95,1.59,9,9,0,0,1,.85,1.68,24.83,24.83,0,0,1,1.34,3c.17.5.38,1,.55,1.47a8.91,8.91,0,0,1,.42,1.35,22.5,22.5,0,0,1,.78,2.95,11.38,11.38,0,0,1,.38,1.84,38.77,38.77,0,0,1-.1,14.63,31.19,31.19,0,0,1-.83,3.55,37.68,37.68,0,0,1-6.31,12.48,43,43,0,0,1-3.95,4.34,40.25,40.25,0,0,1-7.5,5.59,582.43,582.43,0,0,1-74.53,36.13c-10.77,4.2-24.5,6.68-40,8.13-.69.06-1.39.11-2.09.1a16.31,16.31,0,0,1-2.25,0c-.71,0-1.41-.09-2.13-.17a25.12,25.12,0,0,1-6-1.45,21.92,21.92,0,0,1-3.6-1.52,30.88,30.88,0,0,1-15.91-32.81,11.67,11.67,0,0,0,.25-1.86A0,0,0,0,0,163.42,312.52Z"/><path class="cls-6" d="M200.26,353.7c15.5-1.46,29.21-3.94,40-8.13a578.68,578.68,0,0,0,74.54-36.14c27.14-15.82,24.45-53.93-.47-67.76,20,15.89,20.49,49.69-4.66,64.35a578.66,578.66,0,0,1-74.54,36.14c-10.78,4.19-24.49,6.68-40,8.13A28.9,28.9,0,0,1,179,347.14,28.84,28.84,0,0,0,200.26,353.7Z"/><path class="cls-6" d="M413,81.2c.12.65.2,1.27.29,1.89,6.32,46.18-.65,81.18-10.43,109-3.31,9.45-7,18.1-10.5,26.07-.33.71-.62,1.41-.95,2.12a34.42,34.42,0,0,1-2.07,4A39.06,39.06,0,0,1,349,242.69c-15.77-2.82-34.5-6.06-50.16-8.4a6.29,6.29,0,0,1-.76-.18c-4.47-1-8.75-1.75-12.62-2.36-7.94-1.16-14.29-1.47-18-.46-5.53.59-11,2.93-16.48,6.11-15.37,8.87-30.43,24.15-45.14,24.49-11.47.26-22.59,13.72-31.45,28.88l-.6.78c-.48.59-.93,1.18-1.38,1.79-.66.86-1.28,1.71-1.9,2.6s-1,1.54-1.52,2.3a34.48,34.48,0,0,0-5.35,12.8c-.08.47-.15,1-.2,1.43-2.18,5-4,9.47-5.3,13-4.25,11.33-17.9,20.78-27.85,26.41A28.52,28.52,0,0,1,116,355.54c-10.21-.05-20.42-.1-30.43,0-15.2.12-26.68,2.41-35.35,5.73a9.68,9.68,0,0,0-5.89,10.88c0,.17.08.34.1.48a16.92,16.92,0,0,0,3.75,7.92,7.25,7.25,0,0,1-2.08-.85c-3.67-2.32-5.7-5.45-6.88-10.94a9.63,9.63,0,0,1,5.89-10.88c8.67-3.36,20.15-5.61,35.35-5.77,10-.1,20.22,0,30.43,0a28.56,28.56,0,0,0,14.31-3.65c9.94-5.66,23.59-15.11,27.81-26.4,6.92-18.45,26.7-63.14,47.68-63.6,11.54-.23,23.29-9.71,35.23-18.09,9.75-6.83,19.64-12.94,29.66-12.69,5.63.13,15.53,1.34,27.23,3.06,15.88,2.35,35,5.64,51.09,8.52a38.87,38.87,0,0,0,41.31-20.09c.43-.76.78-1.51,1.13-2.29a306.81,306.81,0,0,0,15.79-41.74c7.51-26.2,11.68-58.24,5.64-98.81,1.32.67,2.59,1.3,3.83,1.95a108,108,0,0,1,13.74,8.17c-3.85-2.33-8-4.45-12.46-6.7C412.91,80.24,413,80.71,413,81.2Z"/><path class="cls-8" d="M269.29,10.47C263,9.54,260,9,252,8.3c-5.72-.5-8.07,3-11.17,6.28A15.29,15.29,0,0,0,237,21.19C234.85,29.5,235.11,38,241.44,44c17,16.15,2.22,23.37-19.51,44.66S121.08,108.1,93.46,104.74c-8.81-1.07-11.79-6.76-11.79-14a8.73,8.73,0,0,0,.26-4c-1.3-3.58-14.54,4.8-16.11,11.14a15.65,15.65,0,0,0,4,14.6c40.62,42.11,139.11,3.93,181.28-15.46,37.31-17.17,36.3-60.6,34.73-75.59a4.38,4.38,0,0,0,1.2-2.8C287.23,10.28,275.55,11.39,269.29,10.47Z"/><path class="cls-6" d="M67.1,95.17c1.29,5.63,5,9.74,12.74,10.67,31.18,3.79,120.51,5.82,145-18.21s41.26-32.18,22-50.42c-6.52-6.16-7.31-14.67-5.53-23.24l-.56.6A15.29,15.29,0,0,0,237,21.19C234.85,29.5,235.11,38,241.44,44c17,16.15,2.22,23.37-19.51,44.66S121.08,108.1,93.46,104.74c-8.81-1.07-11.79-6.76-11.79-14a8.73,8.73,0,0,0,.26-4C80.81,83.66,70.85,89.45,67.1,95.17Z"/><path class="cls-9" d="M352.29,48.68a30.87,30.87,0,0,1,.19-8.9c-5.88-6.55-9.3-5.61-13.45-6.25a1.18,1.18,0,0,0-.69.09,1.55,1.55,0,0,0-1,2c13.56,40.17,2.06,68.52-4.94,87.68a27,27,0,0,1-4.66,7.7A17.6,17.6,0,0,1,313,137.43c-15.93-.87-41.61-2.56-51.3-4.78-14.47-3.34-60.46.12-67.84,23.88s-53.42,20.22-69.45,25c-4.39,1.28-5.8,4.1-5.57,7.47,1,14.56-10.06,27-24.6,25.77a264,264,0,0,1-29.12-4.35c-26.35-5.21-28.89-34.67-25.9-60.07a23.71,23.71,0,0,0,.56-4.25c.13-.86.23-1.71.37-2.54-.17.3-.3.64-.47.94-.18-.82-.6-1.32-1.37-1.08-3,.81-19.41,25.5-24.18,39.28S-3.22,272,17.55,301.26c8-43.55,44.76-64,59.07-70.47,5.92-2.71,13.64-3.66,21.87-4.05,3.48-.18,7-.23,10.59-.25,15-.17,30.08,0,38.06-5.92,14.37-10.67,17.18-9.29,119-35S357.15,78.82,353.21,55.67C352.75,53,352.45,50.69,352.29,48.68Zm-221,142c.75-3.36,6.18-4.71,8.87-5.56,11-3.31,22.71-3.78,33.94-5.83C191.23,176.16,211.45,170,216,158s27.35-18.52,37.8-19a.59.59,0,0,1,.25,0c19.55-.66,25.48,26.43,7.53,34.13A208.74,208.74,0,0,1,235,182.64c-16,4.36-32.61,5.3-49,7.5a172,172,0,0,0-35.16,8.76c-4.85,1.76-9.19,5-14.13,2.08C133.42,199,130.41,194.77,131.3,190.69Z"/><path class="cls-6" d="M138,206.78c5.06,3,9.48-.31,14.46-2.12a172.91,172.91,0,0,1,35.92-9c16.71-2.26,33.71-3.2,50-7.68a214.1,214.1,0,0,0,27.1-9.82c14.24-6.14,13.71-24.32,3.46-31.89,5.85,8.44,4.39,21.78-7.38,26.82A211.57,211.57,0,0,1,235,182.64c-16,4.35-32.62,5.29-49,7.5a171,171,0,0,0-35.15,8.76c-4.87,1.76-9.2,5-14.15,2.08a12.59,12.59,0,0,1-4.44-4.58C131.58,200.51,134.6,204.76,138,206.78Z"/><path class="cls-6" d="M37.24,147.15c.81-.23,1.23.29,1.41,1.15.17-.33.32-.66.49-1-.13.86-.24,1.74-.37,2.62a26.69,26.69,0,0,1-.56,4.4c-3,26.2-.38,56.64,26.56,62.07a272.87,272.87,0,0,0,29.77,4.54c14.87,1.3,26.13-11.52,25.1-26.56-.24-3.5,1.22-6.39,5.69-7.72,4.87-1.45,12.47-2.15,20.92-3,7.54-1.63,15.31-2.36,23-3.5,12.71-3,23.76-8.3,27.08-19.15,7.5-24.54,54.52-28,69.31-24.57,9.9,2.32,36.15,4.1,52.45,5a17.94,17.94,0,0,0,15-6.62,28.46,28.46,0,0,0,4.74-8c7.12-19.77,18.83-49,4.94-90.54A1.62,1.62,0,0,1,344,34.17c-1.66-.35-3.24-.37-4.92-.65a1.59,1.59,0,0,0-1.71,2.12c13.52,40.16,2,68.51-5,87.66a27.6,27.6,0,0,1-4.65,7.71A17.68,17.68,0,0,1,313,137.44c-15.94-.87-41.62-2.56-51.3-4.79-14.47-3.34-60.46.12-67.84,23.88s-53.42,20.22-69.45,25c-4.37,1.3-5.81,4.1-5.58,7.48,1,14.56-10,27-24.59,25.75a269.25,269.25,0,0,1-29.12-4.35c-26.34-5.22-28.88-34.69-25.9-60.06a25.62,25.62,0,0,0,.56-4.26c.12-.84.23-1.7.36-2.53-.17.31-.32.64-.48,1-.18-.83-.59-1.33-1.38-1.11-3,.83-19.41,25.51-24.16,39.28-.34,1-.71,2.29-1.11,3.84C18.35,172.1,34.3,148,37.24,147.15Z"/><path class="cls-10" d="M485.82,223.06c.25,1.9.46,3.76.67,5.63.56,5,.94,10,1.14,15,.07.76.1,1.56.13,2.33a237.47,237.47,0,0,1-4.83,56.74c-.68,3.32-1.44,6.61-2.27,9.84-23.17,91.42-100,164-199.12,177.12q-3.1.41-6.22.72c-1.14.12-2.28.23-3.43.31a.71.71,0,0,1-.38.05,235.1,235.1,0,0,1-108.93-15.84c-2.25-.86-4.47-1.76-6.67-2.73a237.07,237.07,0,0,1-57-35.05c-.51-.42-1-.85-1.54-1.3-2.13-1.75-4.15-3.55-6.18-5.35-1.32-1.19-2.63-2.42-3.92-3.65-3.89-3.69-7.63-7.55-11.23-11.45.55.21,1.08.45,1.63.66a236,236,0,0,0,119,14.76c99.17-13.13,176-85.7,199.12-177.12.83-3.23,1.59-6.52,2.27-9.84.9-4.33,1.69-8.67,2.3-13.07.75-4.66,1.29-9.36,1.71-14.08.22-2.27.38-4.57.53-6.87.35-5.87.47-11.77.35-17.72a8.14,8.14,0,0,0,0-1.33c0-1.19,0-2.42-.06-3.64-.15-4-.39-8-.71-12-.16-1.77-.33-3.57-.53-5.33s-.42-3.73-.67-5.63a235.48,235.48,0,0,0-26.36-81.53c-1-1.9-2-3.73-3.09-5.59q-4-7-8.56-13.8c-2.93-4.38-6-8.63-9.2-12.81l-.17-.22c-.42-.51-.81-1.05-1.22-1.56-1.35-1.71-2.73-3.42-4.15-5.1-2.63-3.16-5.35-6.23-8.13-9.27,2.34,1,4.67,1.91,7,2.93q2.74,1.22,5.49,2.53c3,1.46,6,3,9,4.56a237.44,237.44,0,0,1,46.24,32c1.79,1.59,3.58,3.21,5.31,4.87a239.22,239.22,0,0,1,25.4,27.91l.17.22c4.26,5.55,8.22,11.33,12,17.26-.11-.18-.21-.41-.34-.64,1.06,1.61,2.12,3.3,3.11,5s2.05,3.34,3,5c1.05,1.86,2.1,3.68,3.09,5.59a238.71,238.71,0,0,1,26.36,81.53Z"/><path class="cls-11" d="M479.91,193.31c-1.62,1-3.35,2-5.09,2.88-18,9.46-41.55,15.35-68.59,19.81-1.37.25-2.78.47-4.22.7-.82.14-1.64.29-2.47.4-2.33.38-4.74.73-7.15,1.09l-.31,0c-2.27.34-4.58.64-6.92,1-28.61,4-60.14,7.08-92.4,11.57-2.45.32-4.89.68-7.33,1-8.15,1.18-16.26,2.47-24.42,3.86-3.36.58-6.72,1.17-10.07,1.79-5,.95-10.05,1.93-15.07,3a475.26,475.26,0,0,0-52.7,14C84.4,287.15,88.19,341.76,23.3,324c-1-3.41-2-6.82-2.87-10.31-1.07-4.1-2-8.25-2.88-12.45C-3.22,272,9.42,196.45,14.16,182.67s21.2-38.46,24.18-39.28c.77-.24,1.19.26,1.37,1.08.17-.3.3-.64.47-.94a236.68,236.68,0,0,1,19.45-30.76c1.54-2.13,3.16-4.24,4.81-6.32.54-.67,1.05-1.33,1.6-2A226.55,226.55,0,0,1,81.74,87,236.4,236.4,0,0,1,219.2,18.79c6.37-.84,12.71-1.44,19-1.75.7,0,1.36-.07,2.06-.06a232,232,0,0,1,45.07,2.27c2.68.38,5.34.84,8,1.33a232.79,232.79,0,0,1,43,12.22c.7.26,1.37.52,2,.82a1.18,1.18,0,0,1,.69-.09c4.15.64,7.57-.3,13.45,6.25,3,1.46,6,3,9,4.56a237.44,237.44,0,0,1,46.24,32c1.32.67,2.59,1.3,3.83,1.95a108,108,0,0,1,13.74,8.17c11.68,8.48,20.93,20.93,31.06,49.5,1.05,1.86,2.1,3.68,3.09,5.59A233,233,0,0,1,479.91,193.31Z"/></g></g></svg>