<svg xmlns="http://www.w3.org/2000/svg" xmlns:xlink="http://www.w3.org/1999/xlink" viewBox="0 0 500 500"><defs><style>.cls-1{isolation:isolate;}.cls-16,.cls-17,.cls-18,.cls-19,.cls-2,.cls-20,.cls-21,.cls-22,.cls-23,.cls-24,.cls-25,.cls-26,.cls-27,.cls-28,.cls-29,.cls-3,.cls-30,.cls-31,.cls-32,.cls-33,.cls-34,.cls-35,.cls-36,.cls-37,.cls-38,.cls-39,.cls-4,.cls-40,.cls-41,.cls-42,.cls-43,.cls-44,.cls-45,.cls-46,.cls-47,.cls-48{fill-rule:evenodd;}.cls-2{fill:url(#Áåçûìÿííûé_ãðàäèåíò_183);}.cls-10,.cls-11,.cls-12,.cls-13,.cls-14,.cls-15,.cls-26,.cls-3,.cls-30,.cls-31,.cls-33,.cls-34,.cls-35,.cls-36,.cls-37,.cls-42,.cls-43,.cls-44,.cls-45,.cls-46,.cls-47,.cls-48,.cls-5,.cls-6,.cls-7,.cls-8,.cls-9{mix-blend-mode:screen;}.cls-3{fill:url(#Áåçûìÿííûé_ãðàäèåíò_600);}.cls-4{fill:url(#Áåçûìÿííûé_ãðàäèåíò_183-2);}.cls-5{fill:url(#Áåçûìÿííûé_ãðàäèåíò_235);}.cls-6{fill:url(#Áåçûìÿííûé_ãðàäèåíò_235-2);}.cls-7{fill:url(#Áåçûìÿííûé_ãðàäèåíò_235-3);}.cls-8{fill:url(#Áåçûìÿííûé_ãðàäèåíò_241);}.cls-9{fill:url(#Áåçûìÿííûé_ãðàäèåíò_235-4);}.cls-10{fill:url(#Áåçûìÿííûé_ãðàäèåíò_235-5);}.cls-11{fill:url(#Áåçûìÿííûé_ãðàäèåíò_239);}.cls-12{fill:url(#Áåçûìÿííûé_ãðàäèåíò_239-2);}.cls-13{fill:url(#Áåçûìÿííûé_ãðàäèåíò_239-3);}.cls-14{fill:url(#Áåçûìÿííûé_ãðàäèåíò_239-4);}.cls-15{fill:url(#Áåçûìÿííûé_ãðàäèåíò_239-5);}.cls-16,.cls-17,.cls-18,.cls-19,.cls-20,.cls-21,.cls-22,.cls-23,.cls-24,.cls-25,.cls-27,.cls-28,.cls-29{opacity:0.5;mix-blend-mode:multiply;}.cls-16{fill:url(#Áåçûìÿííûé_ãðàäèåíò_141);}.cls-17{fill:url(#Áåçûìÿííûé_ãðàäèåíò_247);}.cls-18{fill:url(#Áåçûìÿííûé_ãðàäèåíò_141-2);}.cls-19{fill:url(#Áåçûìÿííûé_ãðàäèåíò_141-3);}.cls-20{fill:url(#Áåçûìÿííûé_ãðàäèåíò_202);}.cls-21{fill:url(#Áåçûìÿííûé_ãðàäèåíò_202-2);}.cls-22{fill:url(#Áåçûìÿííûé_ãðàäèåíò_202-3);}.cls-23{fill:url(#Áåçûìÿííûé_ãðàäèåíò_202-4);}.cls-24{fill:url(#Áåçûìÿííûé_ãðàäèåíò_202-5);}.cls-25{fill:url(#Áåçûìÿííûé_ãðàäèåíò_202-6);}.cls-26{fill:url(#Áåçûìÿííûé_ãðàäèåíò_206);}.cls-27{fill:url(#Áåçûìÿííûé_ãðàäèåíò_202-7);}.cls-28{fill:url(#Áåçûìÿííûé_ãðàäèåíò_202-8);}.cls-29{fill:url(#Áåçûìÿííûé_ãðàäèåíò_202-9);}.cls-30{fill:url(#Áåçûìÿííûé_ãðàäèåíò_233);}.cls-31{fill:url(#Áåçûìÿííûé_ãðàäèåíò_233-2);}.cls-32{fill:#ffffbf;}.cls-33{fill:url(#Áåçûìÿííûé_ãðàäèåíò_260);}.cls-34{fill:url(#Áåçûìÿííûé_ãðàäèåíò_260-2);}.cls-35{fill:url(#Áåçûìÿííûé_ãðàäèåíò_260-3);}.cls-36{fill:url(#Áåçûìÿííûé_ãðàäèåíò_260-4);}.cls-37{fill:url(#Áåçûìÿííûé_ãðàäèåíò_260-5);}.cls-38{fill:#ffc975;}.cls-39{fill:#ffa475;}.cls-40{fill:#ff93a4;}.cls-41{fill:#ffbbb8;}.cls-42{fill:url(#Áåçûìÿííûé_ãðàäèåíò_260-6);}.cls-43{fill:url(#Áåçûìÿííûé_ãðàäèåíò_260-7);}.cls-44{fill:url(#Áåçûìÿííûé_ãðàäèåíò_260-8);}.cls-45{fill:url(#Áåçûìÿííûé_ãðàäèåíò_260-9);}.cls-46{fill:url(#Áåçûìÿííûé_ãðàäèåíò_262);}.cls-47{fill:url(#Áåçûìÿííûé_ãðàäèåíò_260-10);}.cls-48{fill:url(#Áåçûìÿííûé_ãðàäèåíò_260-11);}</style><radialGradient id="Áåçûìÿííûé_ãðàäèåíò_183" cx="172.46" cy="173.84" r="318.11" gradientUnits="userSpaceOnUse"><stop offset="0.01" stop-color="#fc0"/><stop offset="0.18" stop-color="#fec902"/><stop offset="0.33" stop-color="#fcbe08"/><stop offset="0.48" stop-color="#f8ad13"/><stop offset="0.61" stop-color="#f29422"/><stop offset="0.74" stop-color="#ea7435"/><stop offset="0.82" stop-color="#e55e42"/><stop offset="0.84" stop-color="#e35d49"/><stop offset="0.88" stop-color="#df5a5c"/><stop offset="0.93" stop-color="#d7567c"/><stop offset="0.98" stop-color="#cc4fa7"/><stop offset="1" stop-color="#c74cbd"/></radialGradient><radialGradient id="Áåçûìÿííûé_ãðàäèåíò_600" cx="90.1" cy="99.19" r="295.07" gradientUnits="userSpaceOnUse"><stop offset="0" stop-color="#ffffd9"/><stop offset="1"/></radialGradient><radialGradient id="Áåçûìÿííûé_ãðàäèåíò_183-2" cx="162.79" cy="166.04" r="341.59" xlink:href="#Áåçûìÿííûé_ãðàäèåíò_183"/><radialGradient id="Áåçûìÿííûé_ãðàäèåíò_235" cx="19.24" cy="424.91" r="37.22" gradientTransform="matrix(1.67, 0, 0, 1.33, 230.13, -325.49)" gradientUnits="userSpaceOnUse"><stop offset="0" stop-color="#ffd400"/><stop offset="0.66" stop-color="#584900"/><stop offset="1"/></radialGradient><radialGradient id="Áåçûìÿííûé_ãðàäèåíò_235-2" cx="104.09" cy="435.03" r="24.12" gradientTransform="matrix(1.67, 0, 0, 1.33, 212.53, -408.62)" xlink:href="#Áåçûìÿííûé_ãðàäèåíò_235"/><radialGradient id="Áåçûìÿííûé_ãðàäèåíò_235-3" cx="32.45" cy="249.41" r="15.93" gradientTransform="matrix(0, 1.67, -1.33, 0, 737.51, 30.29)" xlink:href="#Áåçûìÿííûé_ãðàäèåíò_235"/><radialGradient id="Áåçûìÿííûé_ãðàäèåíò_241" cx="64.47" cy="608.89" r="19.08" gradientTransform="matrix(1.67, 0, 0, 1.33, 351.71, -543.37)" gradientUnits="userSpaceOnUse"><stop offset="0" stop-color="#ff8600"/><stop offset="0.66" stop-color="#582e00"/><stop offset="1"/></radialGradient><radialGradient id="Áåçûìÿííûé_ãðàäèåíò_235-4" cx="39.77" cy="292.5" r="27.82" gradientTransform="matrix(1.67, 0, 0, 1.33, 123.26, -313.46)" xlink:href="#Áåçûìÿííûé_ãðàäèåíò_235"/><radialGradient id="Áåçûìÿííûé_ãðàäèåíò_235-5" cx="-26.48" cy="364.47" r="27.82" gradientTransform="matrix(1.67, 0, 0, 1.33, 197.77, -267.59)" xlink:href="#Áåçûìÿííûé_ãðàäèåíò_235"/><radialGradient id="Áåçûìÿííûé_ãðàäèåíò_239" cx="-11.07" cy="526.11" r="27.82" gradientTransform="matrix(1.67, 0, 0, 1.33, 316.17, -320.79)" gradientUnits="userSpaceOnUse"><stop offset="0.01" stop-color="#ff8300"/><stop offset="0.66" stop-color="#582d00"/><stop offset="1"/></radialGradient><radialGradient id="Áåçûìÿííûé_ãðàäèåíò_239-2" cx="-99.6" cy="473.46" r="27.83" gradientTransform="matrix(0, 1.67, -1.33, 0, 746.78, 493.48)" xlink:href="#Áåçûìÿííûé_ãðàäèåíò_239"/><radialGradient id="Áåçûìÿííûé_ãðàäèåíò_239-3" cx="-54.36" cy="439.1" r="23.74" gradientTransform="matrix(-1.67, 0, 0, -1.33, 108.84, 961.21)" xlink:href="#Áåçûìÿííûé_ãðàäèåíò_239"/><radialGradient id="Áåçûìÿííûé_ãðàäèåíò_239-4" cx="-111.16" cy="536.57" r="23.74" gradientTransform="matrix(-1.67, 0, 0, -1.33, -40.53, 939.97)" xlink:href="#Áåçûìÿííûé_ãðàäèåíò_239"/><radialGradient id="Áåçûìÿííûé_ãðàäèåíò_239-5" cx="42.51" cy="545.01" r="27.83" gradientTransform="matrix(1.67, 0, 0, 1.33, 308.32, -420.28)" xlink:href="#Áåçûìÿííûé_ãðàäèåíò_239"/><linearGradient id="Áåçûìÿííûé_ãðàäèåíò_141" x1="214.41" y1="329.29" x2="219.71" y2="329.29" gradientUnits="userSpaceOnUse"><stop offset="0" stop-color="#ca528d"/><stop offset="1" stop-color="#8e7090"/></linearGradient><linearGradient id="Áåçûìÿííûé_ãðàäèåíò_247" x1="44.63" y1="268.46" x2="477.51" y2="268.46" gradientUnits="userSpaceOnUse"><stop offset="0" stop-color="#f4788d"/><stop offset="1" stop-color="#8e7090"/></linearGradient><linearGradient id="Áåçûìÿííûé_ãðàäèåíò_141-2" x1="136.08" y1="312.81" x2="206.61" y2="312.81" xlink:href="#Áåçûìÿííûé_ãðàäèåíò_141"/><linearGradient id="Áåçûìÿííûé_ãðàäèåíò_141-3" x1="141.16" y1="69.03" x2="158.2" y2="69.03" xlink:href="#Áåçûìÿííûé_ãðàäèåíò_141"/><linearGradient id="Áåçûìÿííûé_ãðàäèåíò_202" x1="118.96" y1="142.31" x2="143.64" y2="142.31" gradientUnits="userSpaceOnUse"><stop offset="0" stop-color="#ca528d"/><stop offset="1" stop-color="#b3757c"/></linearGradient><linearGradient id="Áåçûìÿííûé_ãðàäèåíò_202-2" x1="371.78" y1="224.59" x2="458.13" y2="224.59" xlink:href="#Áåçûìÿííûé_ãðàäèåíò_202"/><linearGradient id="Áåçûìÿííûé_ãðàäèåíò_202-3" x1="254.82" y1="400.58" x2="254.97" y2="400.58" xlink:href="#Áåçûìÿííûé_ãðàäèåíò_202"/><linearGradient id="Áåçûìÿííûé_ãðàäèåíò_202-4" x1="365.32" y1="368.19" x2="435.63" y2="368.19" xlink:href="#Áåçûìÿííûé_ãðàäèåíò_202"/><linearGradient id="Áåçûìÿííûé_ãðàäèåíò_202-5" x1="75.28" y1="214.93" x2="117.93" y2="214.93" xlink:href="#Áåçûìÿííûé_ãðàäèåíò_202"/><linearGradient id="Áåçûìÿííûé_ãðàäèåíò_202-6" x1="58.5" y1="296.2" x2="80.72" y2="296.2" xlink:href="#Áåçûìÿííûé_ãðàäèåíò_202"/><linearGradient id="Áåçûìÿííûé_ãðàäèåíò_206" x1="33.78" y1="293.57" x2="33.78" y2="184.47" gradientUnits="userSpaceOnUse"><stop offset="0"/><stop offset="0.08" stop-color="#080502"/><stop offset="0.22" stop-color="#1f1209"/><stop offset="0.38" stop-color="#452813"/><stop offset="0.57" stop-color="#794621"/><stop offset="0.79" stop-color="#bb6c33"/><stop offset="0.98" stop-color="#ff9346"/></linearGradient><linearGradient id="Áåçûìÿííûé_ãðàäèåíò_202-7" x1="164.47" y1="200.09" x2="348.72" y2="200.09" xlink:href="#Áåçûìÿííûé_ãðàäèåíò_202"/><linearGradient id="Áåçûìÿííûé_ãðàäèåíò_202-8" x1="150.45" y1="403.8" x2="371.78" y2="403.8" xlink:href="#Áåçûìÿííûé_ãðàäèåíò_202"/><linearGradient id="Áåçûìÿííûé_ãðàäèåíò_202-9" x1="375.17" y1="114.77" x2="434.77" y2="114.77" xlink:href="#Áåçûìÿííûé_ãðàäèåíò_202"/><linearGradient id="Áåçûìÿííûé_ãðàäèåíò_233" x1="10" y1="214.83" x2="144.76" y2="214.83" gradientUnits="userSpaceOnUse"><stop offset="0" stop-color="#514579"/><stop offset="0.11" stop-color="#594d7f"/><stop offset="0.27" stop-color="#6e6490"/><stop offset="0.48" stop-color="#918aab"/><stop offset="0.72" stop-color="#c2bed0"/><stop offset="0.98" stop-color="#fff"/></linearGradient><linearGradient id="Áåçûìÿííûé_ãðàäèåíò_233-2" x1="147.41" y1="41.53" x2="314.92" y2="41.53" xlink:href="#Áåçûìÿííûé_ãðàäèåíò_233"/><linearGradient id="Áåçûìÿííûé_ãðàäèåíò_260" x1="290.29" y1="107.89" x2="367" y2="107.89" gradientUnits="userSpaceOnUse"><stop offset="0" stop-color="#ff8b4a"/><stop offset="1"/></linearGradient><linearGradient id="Áåçûìÿííûé_ãðàäèåíò_260-2" x1="212.44" y1="291.49" x2="354.28" y2="291.49" xlink:href="#Áåçûìÿííûé_ãðàäèåíò_260"/><linearGradient id="Áåçûìÿííûé_ãðàäèåíò_260-3" x1="96.61" y1="422.51" x2="220.93" y2="422.51" xlink:href="#Áåçûìÿííûé_ãðàäèåíò_260"/><linearGradient id="Áåçûìÿííûé_ãðàäèåíò_260-4" x1="278.34" y1="399.52" x2="365.01" y2="399.52" xlink:href="#Áåçûìÿííûé_ãðàäèåíò_260"/><linearGradient id="Áåçûìÿííûé_ãðàäèåíò_260-5" x1="379.2" y1="342.78" x2="431.33" y2="342.78" xlink:href="#Áåçûìÿííûé_ãðàäèåíò_260"/><linearGradient id="Áåçûìÿííûé_ãðàäèåíò_260-6" x1="359.19" y1="218.5" x2="454.97" y2="218.5" xlink:href="#Áåçûìÿííûé_ãðàäèåíò_260"/><linearGradient id="Áåçûìÿííûé_ãðàäèåíò_260-7" x1="164.47" y1="312.73" x2="164.47" y2="244.19" xlink:href="#Áåçûìÿííûé_ãðàäèåíò_260"/><linearGradient id="Áåçûìÿííûé_ãðàäèåíò_260-8" x1="208.32" y1="156.3" x2="208.32" y2="112.8" xlink:href="#Áåçûìÿííûé_ãðàäèåíò_260"/><linearGradient id="Áåçûìÿííûé_ãðàäèåíò_260-9" x1="391.53" y1="117.05" x2="445.96" y2="117.05" xlink:href="#Áåçûìÿííûé_ãðàäèåíò_260"/><linearGradient id="Áåçûìÿííûé_ãðàäèåíò_262" x1="440.58" y1="320.52" x2="483.21" y2="320.52" gradientUnits="userSpaceOnUse"><stop offset="0"/><stop offset="1" stop-color="#ff8b4a"/></linearGradient><linearGradient id="Áåçûìÿííûé_ãðàäèåíò_260-10" x1="197.65" y1="470.77" x2="296.5" y2="470.77" xlink:href="#Áåçûìÿííûé_ãðàäèåíò_260"/><linearGradient id="Áåçûìÿííûé_ãðàäèåíò_260-11" x1="337.22" y1="435.14" x2="410.59" y2="435.14" xlink:href="#Áåçûìÿííûé_ãðàäèåíò_260"/></defs><title>objects</title><g class="cls-1"><g id="Layer_1" data-name="Layer 1"><path class="cls-2" d="M478.1,251.78A224,224,0,0,1,253.93,476a229.08,229.08,0,0,1-29.4-1.91,224.13,224.13,0,0,1-190-175.8.29.29,0,0,1,0-.19,226.71,226.71,0,0,1-4.78-46.28A224.19,224.19,0,0,1,253.93,27.6c4.9,0,9.72.16,14.54.47a222,222,0,0,1,72.17,17c3.93,1.63,7.78,3.38,11.59,5.25A224.44,224.44,0,0,1,478.1,251.78Z"/><path class="cls-3" d="M121,426.87a225,225,0,0,1-56.19-70.66A221.87,221.87,0,0,1,45.55,301.5a.29.29,0,0,1,0-.19A226.71,226.71,0,0,1,40.72,255,224.19,224.19,0,0,1,264.9,30.85c4.9,0,9.72.16,14.54.47a223.31,223.31,0,0,1,44.19,7.35,222.74,222.74,0,0,0-55.17-10.6c-4.82-.31-9.64-.47-14.54-.47A224.1,224.1,0,0,0,29.75,251.78a226.71,226.71,0,0,0,4.78,46.28.29.29,0,0,0,0,.19A221.92,221.92,0,0,0,53.82,353,225,225,0,0,0,195.37,468.2,223.63,223.63,0,0,1,121,426.87Z"/><path class="cls-4" d="M450.73,359.15,414,408.74c-31.61,67.24-103.3,60-103.3,60l-9.37,2.22c-75.71,52.71-140.68-12.63-140.68-12.63L144,447.12c-39.13,3.17-49.31-37.62-49.31-37.62l-24.94-30-.47-.47c-117-107-24.61-207.69-24.61-207.69l7.62-17.6c6.39-53.23,56.26-72.59,56.26-72.59,10.69-20.16,25.6-27.78,36.25-30.62a42.79,42.79,0,0,1,13.44-1.66C215.12-4.69,273.8,4.39,314.92,23.18c0,0,.09,0,.09,0A209.33,209.33,0,0,1,369.86,59.9c88.39-7.48,77.46,78.46,77.46,78.46,26,41.07,30.19,97.34,30.19,97.34C516.83,306.34,450.73,359.15,450.73,359.15Z"/><ellipse class="cls-5" cx="262.22" cy="241.01" rx="62.04" ry="49.62" transform="translate(-90.65 192.74) rotate(-34.8)"/><ellipse class="cls-6" cx="386.06" cy="171.38" rx="40.2" ry="32.16" transform="translate(-28.76 250.96) rotate(-34.8)"/><ellipse class="cls-7" cx="404.97" cy="84.38" rx="21.23" ry="26.55" transform="translate(177.4 429.82) rotate(-68.39)"/><ellipse class="cls-8" cx="459.16" cy="268.46" rx="31.8" ry="25.44" transform="translate(40.48 596.5) rotate(-68.39)"/><ellipse class="cls-9" cx="189.58" cy="76.52" rx="46.38" ry="37.1" transform="translate(-9.77 121.87) rotate(-34.8)"/><ellipse class="cls-10" cx="153.65" cy="218.34" rx="46.38" ry="37.1" transform="translate(-97.12 126.73) rotate(-34.8)"/><ellipse class="cls-11" cx="297.73" cy="380.65" rx="46.38" ry="37.1" transform="translate(-163.99 237.98) rotate(-34.8)"/><ellipse class="cls-12" cx="115.53" cy="327.45" rx="37.1" ry="46.38" transform="translate(-187.12 157.24) rotate(-41.21)"/><ellipse class="cls-13" cx="199.45" cy="375.79" rx="39.57" ry="31.65" transform="translate(-223.59 330.71) rotate(-55.96)"/><ellipse class="cls-14" cx="144.76" cy="224.59" rx="39.57" ry="31.65" transform="translate(-122.38 218.83) rotate(-55.96)"/><ellipse class="cls-15" cx="379.2" cy="306.36" rx="46.38" ry="37.1" transform="translate(-97.38 408.9) rotate(-51.08)"/><path class="cls-16" d="M214.41,327.45a21.44,21.44,0,0,1,5.3,3.69A57.28,57.28,0,0,1,214.41,327.45Z"/><path class="cls-17" d="M450.73,359.15S441,385.22,414,408.74c0,0-25.65-13.2-47.18.52s-56.12,59.43-56.12,59.43l-9.37,2.22s-9.23-16.85-26.64-26.59h0a44,44,0,0,0-6.72-3.22,49.61,49.61,0,0,0-24.8-3.08c-37.67,4.73-82.48,20.25-82.48,20.25L144,447.12s31,9.37,68-19.07c34.16-26.22,27.68-79.45,7.71-96.91,7.86,4.87,23.47,12.78,41.36,11.64,25.08-1.61,69.51-29.43,82.67-48.69-3,5.25-28.63,47.6-61.8,67.15,0,0-21.48,14.24-27,39.13a1.5,1.5,0,0,0-.14.43c0,.09,0,.19,0,.33a3.22,3.22,0,0,0-.14.9,33.37,33.37,0,0,0-.71,4.35,23.39,23.39,0,0,0,.14,6.34c3.6,22.76,42.45,24.89,69.56,15.33,23.9-8.42,37.43-33.46,41.69-42.59,1-2.13,1.47-3.41,1.47-3.41s25.79,6.06,52.62-4.5c9.84-3.88,14.86-17.79,16-34.78,2.18-29.29-7.1-67.71-22.62-78.5-20-13.86-53.09,14.34-64.64,25.22,7.76-8.19,23.94-26.64,25.79-41.59,2.41-19.73-61.73-85.09-124-62.62-64.66,23.33-46.38,109.28-39.51,129.3-5.11-14.2-20.33-58.36-19.44-82.38,1.18-32,9.29-52.76,9.29-52.76s-56.48-14.63-84.59,24.84,11.36,87.21,11.36,87.21S99,267.21,90.67,256c0,0-29.67,81.3,4,153.46l-24.94-30s2.41-24,3.6-73.68S44.63,171.39,44.63,171.39l7.62-17.6s10.32,72.35,21.67,82.62,46.33-40.55,53.71-69.28c12.45-48.64-19.12-85.93-19.12-85.93s32.65,20.87,41.17,74.24c0,0,42.07,9.51,104.25,8.33s106.9-25.41,106.9-25.41-13.13,23.58-25.48,35c0,0,23.68,59.36,60.16,73.23S463,203,457.64,179.43s-35.25-66.15-93.79-43.11c.76-1.32,15-25.69,10.74-50.63-4.45-25.65-1.8-18.88-1.8-18.88s4.78,23,21.48,42.3,53,29.24,53,29.24,28,48,30.19,97.34c0,0-37.81.85-43.16,20S450.73,359.15,450.73,359.15Z"/><path class="cls-18" d="M136.08,298.88s24.51,39.81,70.53,24.27C206.61,323.15,169,318.8,136.08,298.88Z"/><path class="cls-19" d="M158.2,48.92s-12.1,20.26-13.45,40.43c0,0-8.07-22.44,0-38.79C144.75,50.57,151.47,47.94,158.2,48.92Z"/><path class="cls-20" d="M120.29,193.43S151.21,145,119,91.19c0,0,24.16,39.35,24.67,60.56C144.13,172.45,120.29,193.43,120.29,193.43Z"/><path class="cls-21" d="M371.78,232.57s24.91,32.85,48.22,27.75,36.53-47.65,38.13-72c0,0-15.55,59.88-44.3,63.45C387.6,255,371.78,232.57,371.78,232.57Z"/><path class="cls-22" d="M255,400.37a1.5,1.5,0,0,0-.14.43,3.12,3.12,0,0,1,.09-.43Z"/><path class="cls-23" d="M415,390.43c-23.71,9.37-49.64-5-49.64-5,1-2.13,1.47-3.41,1.47-3.41s25.79,6.06,52.62-4.5c9.84-3.88,14.86-17.79,16-34.78h0S438.66,381,415,390.43Z"/><path class="cls-24" d="M75.28,237.27s11.23,6,22-5.59S117.93,191,117.93,191,99.32,232.36,75.28,237.27Z"/><path class="cls-25" d="M58.5,216.6S75.57,255.67,79.9,279,70,375.79,70,375.79s5-56.78,2.08-94.57S58.5,216.6,58.5,216.6Z"/><path class="cls-26" d="M13.8,293.57s18.45-37,42.43-57.15c0,0,2-34.38-16.16-51.95C40.06,184.47,1.19,217.59,13.8,293.57Z"/><path class="cls-27" d="M164.47,164.22s37,8.76,47.11,19.54c0,0-16.09,19.52-12.14,64.65,0,0,4.48-47.28,36.76-63.95s93.25.94,112.52,21.44c0,0-27.2-30.66-26.75-35.71s24.16-18.45,24.16-18.45S307,168.12,261.07,170.94C219.71,173.49,164.47,164.22,164.47,164.22Z"/><path class="cls-28" d="M233.51,342.78s15.56,24.87,12.63,41.16c-4.94,27.46-26.08,45.37-42.52,53.14s-53.17,14.41-53.17,14.41l5.65,4.41s45.43-15.54,69-20.32,71.13,8.07,78.9,35l6.62-1.86a168.61,168.61,0,0,1,24.46-37.29c16.44-19.13,36.65-33.17,36.65-33.17s-14.54,7.47-35.46,26.3S317.4,451.14,290,444.85s-47.22-20.92-48.12-28.69,10.46-38.16,23.31-50.91S299.56,337,299.56,337s-24.51,20.24-41.24,19.65S233.51,342.78,233.51,342.78Z"/><path class="cls-29" d="M375.17,126s34.32-5.71,59.6,12.39c0,0-47.64-18.58-57.21-47.16C377.56,91.19,384.7,111.62,375.17,126Z"/><path class="cls-30" d="M144.76,50.58c-12.11,6-30.62,38.57-30.62,38.57s-21.86,9.18-36.2,28.44-21.67,55.22-21.67,55.22L49,184.49S9.38,231.91,18.65,284.67c8.71,49.45,45.95,89.58,50.58,94.4-117-107-24.61-207.69-24.61-207.69l7.62-17.6c6.39-53.23,56.26-72.59,56.26-72.59C119.21,61,134.11,53.42,144.76,50.58Z"/><path class="cls-31" d="M314.92,23.18C226.76-15.24,147.41,74.52,147.41,74.52c1.94-8.71,10.79-25.6,10.79-25.6C215.12-4.69,273.8,4.39,314.92,23.18Z"/><path class="cls-32" d="M180.4,57.66c7.46,5.76,36-6.77,43.44-19.76s2.33-16.33,2.33-16.33-18.67,2.28-31.73,11.14S177.12,55.13,180.4,57.66Z"/><path class="cls-33" d="M290.29,149.77s23.56-.87,49-26.69C360.77,101.32,362,66,362,66s12.9,29.06-2.83,57.08S290.29,149.77,290.29,149.77Z"/><path class="cls-34" d="M212.44,318.8s30.93,16.55,75.76-7.24,61.75-51.83,66.08-68.3c0,0-.08,29.42-22.15,55.63s-53.8,43.9-77.66,40.4C232.54,336.07,212.44,318.8,212.44,318.8Z"/><path class="cls-35" d="M96.61,404s7.35,31.07,53.07,31.14,71.25-34.77,71.25-34.77S203,443.21,157.87,444.6,101.39,422,96.61,404Z"/><path class="cls-36" d="M278.34,422.19s34.22,10.94,58.73-13.45S365,369.81,365,369.81s-12,43.54-41.38,55.68C299.35,435.54,278.34,422.19,278.34,422.19Z"/><path class="cls-37" d="M379.2,377.9s15.1,1.1,33-24.61,15.54-47.39,15.54-47.39,10.88,43.45-5.38,61.74S379.2,377.9,379.2,377.9Z"/><path class="cls-32" d="M175.24,61.87c-6.06-7.64-15.9,7.18-10.5,13S178.21,65.63,175.24,61.87Z"/><path class="cls-32" d="M253.93,200.09c-7.36-10.52-35.3,16.63-39.51,34.32S243.18,245.68,250,239,259.34,207.83,253.93,200.09Z"/><path class="cls-38" d="M384.47,279.91c-3.74-5.35-20.28,4.93-20.09,17.45.14,9.24,14.63,5.73,18.1,2.35S387.23,283.85,384.47,279.91Z"/><path class="cls-32" d="M373.68,150.6c-3.74-5.35-20.28,4.93-20.09,17.45.14,9.24,14.63,5.73,18.1,2.35S376.43,154.54,373.68,150.6Z"/><path class="cls-32" d="M385.5,67.34c-2.54.07-2.75,7.63,1.35,10.25,3,1.93,5-3.51,4.64-5.36S387.37,67.29,385.5,67.34Z"/><path class="cls-32" d="M81.74,116.78c-2.29-2.65-10.56,3.74-9.77,10.42.58,4.93,8.12,2.26,9.79.26S83.43,118.73,81.74,116.78Z"/><path class="cls-32" d="M128.15,205c-1.81-2.6-9.84,2.39-9.75,8.46.07,4.48,7.1,2.78,8.78,1.14S129.49,206.92,128.15,205Z"/><path class="cls-32" d="M97,308.28c-3.43-2.23-10.63,7.63-7.57,14.86,2.25,5.34,9.87-.1,11.07-2.89A9.38,9.38,0,0,0,97,308.28Z"/><path class="cls-32" d="M28.44,240.53c-4.57-2.94-14.06,10.19-10,19.78,3,7.07,13.07-.2,14.68-3.9S31.81,242.69,28.44,240.53Z"/><path class="cls-38" d="M277.6,378.53c-1.85-2.64-10,2.43-9.92,8.62.07,4.56,7.22,2.83,8.94,1.16S279,380.47,277.6,378.53Z"/><path class="cls-32" d="M212.47,261.34c-3.36,2.66-2.46,9.58-.7,11.93s6.65-3.52,6.84-6S214.34,259.86,212.47,261.34Z"/><path class="cls-39" d="M198.23,452.22c-3.82-1.94-9.73,1.78-11.13,4.36s3.72,5.2,8.28,3.72S200.36,453.29,198.23,452.22Z"/><path class="cls-40" d="M356.62,422.51c-6,.09-13.59,8.81-14.93,13.06s6.73,4.17,12.93-.8S360,422.46,356.62,422.51Z"/><path class="cls-41" d="M454.85,253.11c-4.19-.63-8.45,4.67-8.9,7.52s5.17,3.73,8.92.93S457.19,253.46,454.85,253.11Z"/><path class="cls-32" d="M195.34,338.28c-7.64-1.15-15.41,8.52-16.22,13.71s9.42,6.79,16.25,1.69S199.59,338.92,195.34,338.28Z"/><path class="cls-42" d="M359.19,204.31s19.67,31.44,55.76,24.46S455,191,455,191s-11.57,57.86-47.89,54.81S359.19,204.31,359.19,204.31Z"/><path class="cls-43" d="M138.07,289.72s24.63,13.54,37.44,2.41,6.79-47.94,6.79-47.94,14.85,58.88,5.48,67.18C178.8,319.33,138.07,289.72,138.07,289.72Z"/><path class="cls-44" d="M143.64,112.8s7.6,17.77,47.24,29.51S273,151.73,273,151.73s-72.46,10.17-101.66.19S143.64,112.8,143.64,112.8Z"/><path class="cls-45" d="M391.53,101.22s19.51,15.36,34.75,19.3,19.65-4.35,19.65-4.35.85,15.87-5.75,16.68S407.66,120.7,391.53,101.22Z"/><path class="cls-46" d="M440.58,293.57s8.88,32.24,18.58,35.73,24-23.39,24-23.39-8.05,29.84-28.24,41.58C455,347.48,445.24,335.18,440.58,293.57Z"/><path class="cls-47" d="M197.65,478s23.09,11,50.88,10.09,48-17.56,48-17.56-3.63-11.13-13.14-17.18c0,0,0,14.83-15.68,23.76C252.64,485.69,217.29,484.21,197.65,478Z"/><path class="cls-48" d="M398.18,405.4s-4.43,23.61-20.77,38.33-40.2,21.14-40.2,21.14,20.47-1.64,44.68-18.68,28.69-36.76,28.69-36.76Z"/></g></g></svg>