<svg xmlns="http://www.w3.org/2000/svg" xmlns:xlink="http://www.w3.org/1999/xlink" viewBox="0 0 500 500"><defs><style>.cls-1{isolation:isolate;}.cls-2{fill:url(#linear-gradient);}.cls-13,.cls-14,.cls-17,.cls-18,.cls-21,.cls-22,.cls-24,.cls-25,.cls-27,.cls-28,.cls-3,.cls-4,.cls-6{mix-blend-mode:multiply;}.cls-3{fill:url(#linear-gradient-2);}.cls-4{fill:url(#linear-gradient-3);}.cls-5{fill:url(#linear-gradient-4);}.cls-6{fill:url(#linear-gradient-5);}.cls-7{fill:url(#linear-gradient-6);}.cls-15,.cls-19,.cls-8{fill:#fff;}.cls-8{opacity:0.85;}.cls-15,.cls-8{mix-blend-mode:overlay;}.cls-10,.cls-9{opacity:0.5;mix-blend-mode:color-dodge;}.cls-9{fill:url(#radial-gradient);}.cls-10{fill:url(#radial-gradient-2);}.cls-11{opacity:0.15;mix-blend-mode:color-burn;fill:url(#linear-gradient-7);}.cls-12{fill:url(#linear-gradient-8);}.cls-13{fill:url(#linear-gradient-9);}.cls-14{fill:url(#linear-gradient-10);}.cls-15{opacity:0.25;}.cls-16{fill:url(#linear-gradient-11);}.cls-17{fill:url(#linear-gradient-12);}.cls-18{fill:url(#linear-gradient-13);}.cls-20{fill:url(#linear-gradient-14);}.cls-21{fill:url(#linear-gradient-15);}.cls-22{fill:url(#linear-gradient-16);}.cls-23{fill:url(#linear-gradient-17);}.cls-24{fill:url(#linear-gradient-18);}.cls-25{fill:url(#linear-gradient-19);}.cls-26{fill:url(#linear-gradient-20);}.cls-27{fill:url(#linear-gradient-21);}.cls-28{fill:url(#linear-gradient-22);}</style><linearGradient id="linear-gradient" x1="48.73" y1="311.43" x2="48.73" y2="137.23" gradientUnits="userSpaceOnUse"><stop offset="0.01" stop-color="#ff871a"/><stop offset="0.18" stop-color="#ff911c"/><stop offset="0.47" stop-color="#ffad22"/><stop offset="0.85" stop-color="#ffdb2b"/><stop offset="0.99" stop-color="#ffee2f"/></linearGradient><linearGradient id="linear-gradient-2" x1="15.22" y1="224.33" x2="82.27" y2="224.33" xlink:href="#linear-gradient"/><linearGradient id="linear-gradient-3" x1="48.73" y1="311.43" x2="48.73" y2="157.2" gradientUnits="userSpaceOnUse"><stop offset="0" stop-color="#fff"/><stop offset="0.15" stop-color="#ffefde"/><stop offset="0.44" stop-color="#ffd19f"/><stop offset="0.69" stop-color="#ffbb72"/><stop offset="0.88" stop-color="#ffad55"/><stop offset="0.99" stop-color="#ffa84b"/></linearGradient><linearGradient id="linear-gradient-4" x1="75.05" y1="424.74" x2="244.9" y2="424.74" xlink:href="#linear-gradient"/><linearGradient id="linear-gradient-5" x1="88.05" y1="424.74" x2="231.9" y2="424.74" xlink:href="#linear-gradient"/><linearGradient id="linear-gradient-6" x1="4.71" y1="145.24" x2="379.36" y2="324.55" gradientUnits="userSpaceOnUse"><stop offset="0" stop-color="#f50c76"/><stop offset="0.14" stop-color="#e90c70"/><stop offset="0.4" stop-color="#ca0b62"/><stop offset="0.73" stop-color="#980a4a"/><stop offset="1" stop-color="#6b0935"/></linearGradient><radialGradient id="radial-gradient" cx="211.37" cy="222.53" r="152.35" gradientTransform="matrix(0.41, 0.91, -0.91, 0.41, 327.31, -60.91)" gradientUnits="userSpaceOnUse"><stop offset="0" stop-color="#cd0b63"/><stop offset="0.14" stop-color="#b60a58"/><stop offset="0.45" stop-color="#7a073b"/><stop offset="0.88" stop-color="#1c010d"/><stop offset="1"/></radialGradient><radialGradient id="radial-gradient-2" cx="183.63" cy="190.17" r="97.86" gradientTransform="translate(281.55 -54.71) rotate(65.75)" xlink:href="#radial-gradient"/><linearGradient id="linear-gradient-7" x1="411.42" y1="224.47" x2="114.75" y2="428.29" gradientUnits="userSpaceOnUse"><stop offset="0" stop-color="#b8105c"/><stop offset="0.02" stop-color="#b41060"/><stop offset="0.26" stop-color="#7e0a90"/><stop offset="0.49" stop-color="#5406b6"/><stop offset="0.7" stop-color="#3503d1"/><stop offset="0.88" stop-color="#2301e2"/><stop offset="1" stop-color="#1c00e8"/></linearGradient><linearGradient id="linear-gradient-8" x1="301.72" y1="421.18" x2="428.26" y2="421.18" xlink:href="#linear-gradient"/><linearGradient id="linear-gradient-9" x1="320.92" y1="425.53" x2="423.38" y2="425.53" xlink:href="#linear-gradient"/><linearGradient id="linear-gradient-10" x1="363.36" y1="474.88" x2="363.36" y2="367.49" xlink:href="#linear-gradient-3"/><linearGradient id="linear-gradient-11" x1="113.92" y1="304.89" x2="264.99" y2="304.89" gradientTransform="translate(-3.3 9.24) rotate(-0.73)" gradientUnits="userSpaceOnUse"><stop offset="0.01" stop-color="#ffee2f"/><stop offset="0.15" stop-color="#ffdb2b"/><stop offset="0.53" stop-color="#ffad22"/><stop offset="0.82" stop-color="#ff911c"/><stop offset="0.99" stop-color="#ff871a"/></linearGradient><linearGradient id="linear-gradient-12" x1="125.33" y1="311.81" x2="244.35" y2="311.81" gradientTransform="translate(-3.3 9.24) rotate(-0.73)" xlink:href="#linear-gradient"/><linearGradient id="linear-gradient-13" x1="138.76" y1="305.04" x2="264.99" y2="305.04" gradientTransform="translate(-3.3 9.24) rotate(-0.73)" xlink:href="#linear-gradient-3"/><linearGradient id="linear-gradient-14" x1="437.06" y1="324.71" x2="437.06" y2="149.93" gradientUnits="userSpaceOnUse"><stop offset="0.01" stop-color="#ff871a"/><stop offset="0.91" stop-color="#ffe52d"/><stop offset="0.99" stop-color="#ffee2f"/></linearGradient><linearGradient id="linear-gradient-15" x1="402" y1="232.71" x2="490.59" y2="232.71" xlink:href="#linear-gradient"/><linearGradient id="linear-gradient-16" x1="436.93" y1="324.71" x2="436.93" y2="199.83" xlink:href="#linear-gradient-3"/><linearGradient id="linear-gradient-17" x1="791.29" y1="-169.22" x2="791.29" y2="-259.91" gradientTransform="matrix(0.11, -0.99, 0.99, 0.11, 298.61, 990.93)" xlink:href="#linear-gradient-14"/><linearGradient id="linear-gradient-18" x1="773.1" y1="-216.96" x2="819.06" y2="-216.96" gradientTransform="matrix(0.11, -0.99, 0.99, 0.11, 298.61, 990.93)" xlink:href="#linear-gradient"/><linearGradient id="linear-gradient-19" x1="791.22" y1="-169.22" x2="791.22" y2="-234.02" gradientTransform="matrix(0.11, -0.99, 0.99, 0.11, 298.61, 990.93)" xlink:href="#linear-gradient-3"/><linearGradient id="linear-gradient-20" x1="235.81" y1="158.76" x2="235.81" y2="38.63" gradientTransform="matrix(1, 0.06, -0.06, 1, 20.31, -38.44)" gradientUnits="userSpaceOnUse"><stop offset="0.01" stop-color="#ff871a"/><stop offset="0.2" stop-color="#ffa11f"/><stop offset="0.55" stop-color="#ffcb28"/><stop offset="0.83" stop-color="#ffe42d"/><stop offset="0.99" stop-color="#ffee2f"/></linearGradient><linearGradient id="linear-gradient-21" x1="235.79" y1="150.07" x2="235.79" y2="47.35" gradientTransform="matrix(1, 0.06, -0.06, 1, 20.31, -38.44)" xlink:href="#linear-gradient"/><linearGradient id="linear-gradient-22" x1="243.39" y1="158.76" x2="243.39" y2="55.15" gradientTransform="matrix(1, 0.06, -0.06, 1, 20.31, -38.44)" xlink:href="#linear-gradient-3"/></defs><title>objects</title><g class="cls-1"><g id="Layer_1" data-name="Layer 1"><path class="cls-2" d="M52.28,311.43s-53-15-45-86.51a111.86,111.86,0,0,1,3.43-17.79c16.26-58.86,73.84-69.9,73.84-69.9a72.49,72.49,0,0,1,5.43,20C98.3,217.55,52.28,311.43,52.28,311.43Z"/><path class="cls-3" d="M77.15,155.28s-54.6,10.44-61.27,69.5c-6.4,56.7,35.67,68.59,35.67,68.59S97.27,200.09,77.15,155.28Z"/><path class="cls-4" d="M52.28,311.43s-53-15-45-86.51a111.86,111.86,0,0,1,3.43-17.79c22.94,2,53.19-6.33,79.28-49.93C98.3,217.55,52.28,311.43,52.28,311.43Z"/><path class="cls-5" d="M75.35,364.47s-8.4,92.27,63.44,114.19c68.05,20.76,106.12-16.15,106.12-16.15Z"/><path class="cls-6" d="M88.31,373.7S81.19,451.85,142,470.41c57.63,17.58,89.87-13.68,89.87-13.68Z"/><path class="cls-7" d="M457.14,262.39C457.14,377.07,364.19,470,249.52,470A207.59,207.59,0,0,1,41.9,262.39c0-114.68,92.94-207.62,207.62-207.62A207.61,207.61,0,0,1,457.14,262.39Z"/><path class="cls-8" d="M90.67,384.26a219.33,219.33,0,0,1,16-272.42A207.52,207.52,0,0,0,178.89,457.6,220.06,220.06,0,0,1,90.67,384.26Z"/><ellipse class="cls-9" cx="211.45" cy="222.6" rx="154.57" ry="149.36" transform="translate(-78.35 323.98) rotate(-65.75)"/><ellipse class="cls-10" cx="183.77" cy="190.3" rx="99.29" ry="95.94" transform="translate(-65.21 279.71) rotate(-65.75)"/><path class="cls-11" d="M457.14,262.39C457.14,377.07,364.19,470,249.52,470A207.32,207.32,0,0,1,79.68,381.84C407,430.22,359,187.55,355.82,84A207.38,207.38,0,0,1,457.14,262.39Z"/><path class="cls-8" d="M380.65,101.46a207,207,0,0,1,68.41,154c0,114.68-92.94,207.62-207.62,207.62a206.75,206.75,0,0,1-130.95-46.51,206.83,206.83,0,0,0,139,53.44c114.68,0,207.62-92.94,207.62-207.62A207.09,207.09,0,0,0,380.65,101.46Z"/><path class="cls-12" d="M427.73,418.11c-2.66,26-34,50.38-69.24,55.71a88.78,88.78,0,0,1-32.11-.87c-46-10.07-16-56.51-2.84-66.78C393.19,352,417.31,364.27,425,385.58,429,396.65,428.52,410.22,427.73,418.11Z"/><path class="cls-13" d="M338.59,413.39c-10.68,8.3-34.92,45.92,2.3,54.06s79.25-17.09,82.05-44.4C424.86,404.36,424.34,346.7,338.59,413.39Z"/><path class="cls-14" d="M358.48,473.82a88.78,88.78,0,0,1-32.11-.87c-46-10.07-16-56.51-2.84-66.78C393.19,352,417.31,364.27,425,385.58,357.31,383.61,356.37,448.91,358.48,473.82Z"/><ellipse class="cls-15" cx="397.54" cy="423.57" rx="30.38" ry="18.62" transform="translate(-160.1 586.34) rotate(-63.09)"/><path class="cls-16" d="M263.09,336c-9.7,15.8-78.17,52-123.31,13.05a83.27,83.27,0,0,1-6.38-6.22c-24.25-26.41-21.23-48.08-13.42-62.4a43.41,43.41,0,0,1,31.56-21.72,104.22,104.22,0,0,1,24.07-1.34c12.92.87,25.12,4.87,43.38,12.57C252.92,284.22,273.26,319.43,263.09,336Z"/><path class="cls-17" d="M155.17,276.94A34.16,34.16,0,0,0,130.32,294c-6.17,11.28-8.53,28.36,10.57,49.17,35.25,38.41,94.16,7.67,102.18-5.38s-8-40.8-34.74-52C185.69,276.25,174.88,273.91,155.17,276.94Z"/><path class="cls-18" d="M263.09,336c-9.7,15.8-78.17,52-123.31,13.05,102.37-13,51.77-76.62,35.83-91.68,12.92.87,25.12,4.87,43.38,12.57C252.92,284.22,273.26,319.43,263.09,336Z"/><ellipse class="cls-15" cx="151.92" cy="297.94" rx="33.27" ry="28.43" transform="translate(-56.97 36.76) rotate(-11.64)"/><ellipse class="cls-19" cx="141.28" cy="281.31" rx="12.27" ry="8.31" transform="translate(-123.9 111.68) rotate(-30.73)"/><path class="cls-19" d="M419.5,394.73c4.58-.18,8.52,5.16,8.79,11.92s-3.23,12.4-7.81,12.59-14.54-3.92-14.81-10.69S414.91,394.91,419.5,394.73Z"/><path class="cls-20" d="M493.26,248.27c-2.84,39.31-28.13,75.61-44.78,76.4-18.17.86-63.15-15.57-67.48-83-1.07-16.78,0-30.56,2.39-41.8,9.34-44.33,39.14-49.9,39.14-49.9,35.47,0,69.21,44.12,70.94,87.37A96.51,96.51,0,0,1,493.26,248.27Z"/><path class="cls-21" d="M434.9,164.17s-36.73,6.89-32.56,71.91c3.39,52.92,38.67,65.81,52.92,65.13s36.63-34.6,35.28-68.52S462.71,164.17,434.9,164.17Z"/><path class="cls-22" d="M493.26,248.27c-2.84,39.31-28.13,75.61-44.78,76.4-18.17.86-63.15-15.57-67.48-83-1.07-16.78,0-30.56,2.39-41.8C402.43,241.42,445.17,308.48,493.26,248.27Z"/><ellipse class="cls-15" cx="458.16" cy="219.2" rx="28.43" ry="47.78" transform="translate(-34.8 96.92) rotate(-11.64)"/><path class="cls-19" d="M446.27,184.17c6.21-2.54,21.65-.79,25.4,8.38s-5.61,22.29-11.82,24.83-14.29-2.83-18-12S440.06,186.71,446.27,184.17Z"/><path class="cls-23" d="M181.93,152.42c20.11,3.72,37.37,18.85,36.82,27.48-.6,9.42-11.66,31.67-46.7,30a79.33,79.33,0,0,1-21.42-3.63c-22.32-7.37-23.48-23-23.48-23,2-18.29,26.73-33.15,49.13-31.55A50,50,0,0,1,181.93,152.42Z"/><path class="cls-24" d="M135.21,177.68s1.44,19.34,35.21,20.93c27.48,1.29,36.16-16.15,36.62-23.54s-15.73-20.88-33.3-22.13S136.81,163.34,135.21,177.68Z"/><path class="cls-25" d="M181.93,152.42c20.11,3.72,37.37,18.85,36.82,27.48-.6,9.42-11.66,31.67-46.7,30a79.33,79.33,0,0,1-21.42-3.63C173.17,198.86,210.21,180.69,181.93,152.42Z"/><ellipse class="cls-15" cx="164.92" cy="168.85" rx="24.79" ry="14.75" transform="translate(-14.82 15.87) rotate(-5.27)"/><path class="cls-19" d="M146.17,173c-1-3.35.84-11.21,5.78-12.62s11.17,4.17,12.12,7.52-2.28,7.2-7.23,8.61S147.13,176.31,146.17,173Z"/><path class="cls-26" d="M344.91,103.89c-9.13,20.65-70.1,40.6-129,26.56a297.82,297.82,0,0,1-34.75-10.15,48,48,0,0,1-17-10.69c-17-16.57-18.41-43.89.69-61.21,18.64-16.94,48.25-34.69,89.77-33.33,25.92.85,45.44,9.05,59.65,20.25C342.81,57.78,350,92.32,344.91,103.89Z"/><path class="cls-27" d="M191,113.72c-27.13-10.1-34.69-42.7-14-61.5C193,37.76,218.36,22.57,253.85,23.75c66.66,2.22,83.75,61.12,77.2,75.94-7.8,17.66-59.95,34.71-110.3,22.72A256.9,256.9,0,0,1,191,113.72Z"/><path class="cls-28" d="M344.91,103.89c-9.13,20.65-70.1,40.6-129,26.56a297.82,297.82,0,0,1-34.75-10.15,48,48,0,0,1-17-10.69c127.7,9.62,147.91-46.2,150.12-74.29C342.81,57.78,350,92.32,344.91,103.89Z"/><path class="cls-15" d="M278.71,38.14c5.39,16-13.63,35.49-42.49,43.63s-56.62,1.8-62-14.16S187.84,32.12,216.7,24,273.32,22.18,278.71,38.14Z"/><path class="cls-19" d="M229.23,46c1.52,7.17-6.49,14.58-17.89,16.56s-29.24-1.35-30.76-8.52,13.74-23.68,25.14-25.65S227.72,38.88,229.23,46Z"/><path class="cls-19" d="M260.64,56.42c.84,4-3.59,8.08-9.91,9.17s-12.11-1.24-13-5.21,3.59-8.08,9.91-9.17S259.8,52.45,260.64,56.42Z"/></g></g></svg>