<svg xmlns="http://www.w3.org/2000/svg" xmlns:xlink="http://www.w3.org/1999/xlink" viewBox="0 0 500 500"><defs><style>.cls-1{isolation:isolate;}.cls-2{fill:#31fb7d;}.cls-3{fill:#5df71e;}.cls-4{fill:#999;}.cls-11,.cls-14,.cls-4,.cls-6,.cls-8,.cls-9{mix-blend-mode:multiply;}.cls-5,.cls-7{fill:#fff;}.cls-11,.cls-5{opacity:0.5;}.cls-6{fill:#989396;}.cls-7{opacity:0.7;}.cls-8{fill:#c0bcbf;}.cls-9{fill:#d4d1d4;}.cls-10{fill:#43fb31;}.cls-11,.cls-14{fill:#447524;}.cls-12{fill:#7ac6ff;}.cls-13{fill:url(#linear-gradient);}.cls-14{opacity:0.3;}.cls-15{fill:url(#linear-gradient-2);}</style><linearGradient id="linear-gradient" x1="14296.25" y1="890.28" x2="14296.25" y2="885.55" gradientTransform="matrix(-1.24, 0.34, 0.46, 1.66, 17470.31, -6307.13)" gradientUnits="userSpaceOnUse"><stop offset="0" stop-color="#180942"/><stop offset="0.59" stop-color="#601457"/><stop offset="1" stop-color="#951c67"/></linearGradient><linearGradient id="linear-gradient-2" x1="13472.87" y1="6728.61" x2="13472.87" y2="6725.56" gradientTransform="matrix(-1.14, 0.59, -0.79, -1.53, 21023.08, 2871.03)" xlink:href="#linear-gradient"/></defs><title>objects</title><g class="cls-1"><g id="Layer_1" data-name="Layer 1"><path class="cls-2" d="M487.55,323.29l-23.19-19.84-6.09-22.83s-1.5-.38-3.33,1.94c-6.32,8-20.75,36.67-29.94,53.16-11.84,21.25-20.4,53.85-26.3,64.65,0,1.67-1.56,13.18-1.56,13.18l47.77-14.62,13.3-3.53a21.49,21.49,0,0,0,13.93-11.64L484.7,357l6.91-17A14.71,14.71,0,0,0,487.55,323.29Z"/><path class="cls-3" d="M478.81,320.89l-18.07-13.14-5.79-25.2s-20.22,25.67-31.42,45.56-16.41,47-18.17,50.81-6.64,21.44-6.64,21.44l42.48-11.75,7,.25a28.53,28.53,0,0,0,25.38-13.66L484.7,357l2.94-9.45A24.11,24.11,0,0,0,478.81,320.89Z"/><path class="cls-4" d="M474.19,333.07l-27.11-11.7a26.4,26.4,0,0,1,.09-21.46l7.78-17.36S366.6,304.13,350.8,416.67c-7.07,50.35,46.35-3.14,46.35-3.14l20.94-40.42,36.27,3.94a27.71,27.71,0,0,0,27.56-14.73L484.7,357h0A19.19,19.19,0,0,0,474.19,333.07Z"/><path class="cls-3" d="M101.67,485.18l30.21-23.38,23.69-4.07a4,4,0,0,0,.06-3.92c-3.78-8-21.65-27.31-31.47-39.44-12.65-15.62-37.21-28.94-43.7-36.75-1.51-.15-11-3.28-11-3.28L56.91,429l-4,15.16c-1.84,7-.77,13.15,2.93,16.82L73,478.06l11.5,9.66C88.51,491,95.41,490,101.67,485.18Z"/><path class="cls-4" d="M108.51,475.77,130,457.28l25.65-3.46s-12.1-25.43-23.87-40.19-33.26-23.71-35.69-26.11-15.61-9.88-15.61-9.88L68.15,426.11l-4,7.77c-5.87,11.38-6.41,22.75-1.42,29.74L73,478.06l6.87,4.37C87.08,487,98.59,484.31,108.51,475.77Z"/><circle class="cls-3" cx="241.91" cy="256" r="230.55" transform="translate(-93.69 362.9) rotate(-64.29)"/><path class="cls-5" d="M341.93,48.27A230,230,0,0,1,463.06,190.85,229.7,229.7,0,0,0,349.57,70.1C234.84,14.86,97.06,63.08,41.82,177.8A229.7,229.7,0,0,0,28.4,343a230,230,0,0,1,5.78-187C89.42,41.26,227.2-7,341.93,48.27Z"/><ellipse class="cls-6" cx="318.93" cy="125" rx="33.3" ry="32.95" transform="translate(138.42 416.13) rotate(-79.6)"/><ellipse class="cls-2" cx="312.94" cy="115.79" rx="33.3" ry="32.95" transform="translate(142.57 402.69) rotate(-79.6)"/><path class="cls-7" d="M316.38,97.05c-8.48-1.56-16.2,1.83-15.35-2.82s8.42-7.15,16.89-5.59,14.66,6.58,13.81,11.23S324.86,98.61,316.38,97.05Z"/><ellipse class="cls-8" cx="311.41" cy="117.39" rx="18.76" ry="22.89" transform="translate(139.74 402.5) rotate(-79.6)"/><path class="cls-8" d="M329.49,129.92c.24-9.23-7.11-17.72-17.57-19.64-9.69-1.78-18.9,2.67-22.63,10.27,2.13,7.34,9.31,13.56,18.73,15.29C316.51,137.41,324.61,134.91,329.49,129.92Z"/><ellipse class="cls-6" cx="320.14" cy="234.18" rx="23.38" ry="23.14" transform="translate(32.02 506.79) rotate(-79.6)"/><ellipse class="cls-2" cx="315.93" cy="227.72" rx="23.38" ry="23.14" transform="translate(34.93 497.36) rotate(-79.6)"/><path class="cls-7" d="M318.35,214.56c-6-1.09-11.38,1.28-10.78-2s5.91-5,11.86-3.93,10.29,4.62,9.7,7.88S324.3,215.65,318.35,214.56Z"/><ellipse class="cls-8" cx="314.86" cy="228.84" rx="13.18" ry="16.08" transform="translate(32.95 497.23) rotate(-79.6)"/><path class="cls-8" d="M327.55,237.64c.17-6.48-5-12.45-12.34-13.79-6.81-1.25-13.27,1.88-15.89,7.22,1.49,5.16,6.54,9.52,13.15,10.74C318.44,242.9,324.13,241.14,327.55,237.64Z"/><ellipse class="cls-6" cx="401.06" cy="321.14" rx="21.03" ry="20.81" transform="translate(12.8 657.65) rotate(-79.6)"/><ellipse class="cls-2" cx="397.28" cy="315.32" rx="21.03" ry="20.81" transform="translate(15.42 649.16) rotate(-79.6)"/><path class="cls-7" d="M399.45,303.49c-5.35-1-10.23,1.15-9.69-1.78s5.31-4.51,10.67-3.53,9.26,4.16,8.72,7.09S404.8,304.47,399.45,303.49Z"/><ellipse class="cls-8" cx="396.31" cy="316.34" rx="11.85" ry="14.46" transform="translate(13.64 649.04) rotate(-79.6)"/><path class="cls-8" d="M407.73,324.25c.15-5.83-4.49-11.19-11.1-12.4-6.12-1.12-11.93,1.69-14.29,6.49,1.34,4.64,5.88,8.57,11.83,9.66C399.53,329,404.64,327.4,407.73,324.25Z"/><path class="cls-9" d="M201,262.83c96.87,46.64,203.48,43,269.65-35.64a229.39,229.39,0,0,1-21,128.84C394.4,470.75,256.62,519,141.89,463.73S-21.06,270.71,34.18,156A230.94,230.94,0,0,1,65.57,107.4C75.09,182.34,127.84,227.62,201,262.83Z"/><ellipse class="cls-6" cx="178.76" cy="264.03" rx="60.34" ry="56.24" transform="translate(-12.19 8.67) rotate(-2.69)"/><ellipse class="cls-2" cx="164.32" cy="251.21" rx="60.34" ry="56.24" transform="matrix(1, -0.05, 0.05, 1, -11.6, 7.98)"/><path class="cls-7" d="M162.81,219.08c-15.77.74-28.17,9.31-28.55,1.34s12.1-15,27.87-15.76,28.85,5.12,29.22,13.08S178.57,218.33,162.81,219.08Z"/><ellipse class="cls-8" cx="162.24" cy="254.44" rx="41.92" ry="31.69" transform="translate(-11.75 7.89) rotate(-2.69)"/><path class="cls-8" d="M199.62,268c-3.34-15.27-19.93-26.37-39.37-25.46-18,.85-32.63,11.75-36.19,25.69,6.79,11.24,22.16,18.67,39.67,17.85C179.52,285.36,192.94,278.1,199.62,268Z"/><path class="cls-2" d="M205.65,7.91,228.3,42.22l21.9,8.87s.19,1.54-2.33,3.06c-8.74,5.28-39,16-56.46,23.12-22.56,9.12-56,13.57-67.41,18.08-1.65-.24-13.27-.09-13.27-.09l20.42-45.59,8.91-22L177.68,15.4Z"/><path class="cls-10" d="M204.43,10.6l19.16,34.69,24.29,8.87s-28,16.88-49.1,25.53S150.06,90.14,146.1,91.42,124,95.36,124,95.36l16.93-40.7L143,31,177.68,15.4Z"/><path class="cls-11" d="M195.13,11.66l13.24,45.49a26.4,26.4,0,0,0,21.3,2.57l18.19-5.57s-32.36,85-146,86.72c-50.84.77,8.85-45.61,8.85-45.61L153.43,79.5l.89-55.4,23.36-8.7Z"/><path class="cls-12" d="M139.74,29.24c.86,3.7,16.31,1.92,34.51-4s32.26-13.66,31.4-17.36-16.31-1.92-34.51,4S138.88,25.54,139.74,29.24Z"/><path class="cls-13" d="M144.93,26.93c.48,2.08,12.79-.09,27.49-4.84s26.22-10.3,25.73-12.38-12.79.09-27.49,4.84S144.44,24.85,144.93,26.93Z"/><path class="cls-2" d="M356.23,476.56,352,450.34l6.54-13.78s-.58-.81-2.45-.44c-6.47,1.31-25.53,9.39-36.95,13.67-14.71,5.52-32.54,18-40,20.85-.68.84-6.27,5.84-6.27,5.84l29.63,12.76,13.87,6.59,23.24-10.62Z"/><path class="cls-10" d="M354.47,475.81l-6-24.86,7.67-14.83s-20.68,4.2-34.5,9.31-27.73,16.31-30.17,17.43-12.23,7.78-12.23,7.78l25.83,12,11.33,10.33,23.3-7.72Z"/><path class="cls-14" d="M349.59,479.37,336,452a17,17,0,0,1,9-10.53l11.08-5.3s-52.52-26.28-107.31,22.55c-24.51,21.84,24.14,17.82,24.14,17.82l27.2-11.16,24.63,26,14.91-6.07Z"/><path class="cls-12" d="M315.57,495.21c-1.21-2.13,6.92-8,18.14-13.19s21.31-7.6,22.51-5.46-6.92,8-18.14,13.19S316.78,497.34,315.57,495.21Z"/><path class="cls-15" d="M319,494c-.68-1.2,6.12-5.55,15.19-9.71s17-6.56,17.65-5.36-6.12,5.55-15.19,9.71S319.72,495.24,319,494Z"/></g></g></svg>