<svg xmlns="http://www.w3.org/2000/svg" xmlns:xlink="http://www.w3.org/1999/xlink" viewBox="0 0 500 500"><defs><style>.cls-1{mask:url(#mask);filter:url(#luminosity-noclip-5);}.cls-13,.cls-14,.cls-16,.cls-18,.cls-19,.cls-2,.cls-21,.cls-24,.cls-30,.cls-32,.cls-4,.cls-6,.cls-8{mix-blend-mode:multiply;}.cls-2{fill:url(#linear-gradient);}.cls-3{mask:url(#mask-2);filter:url(#luminosity-noclip-6);}.cls-4{fill:url(#linear-gradient-2);}.cls-5{mask:url(#mask-3);filter:url(#luminosity-noclip-7);}.cls-6{fill:url(#linear-gradient-3);}.cls-7{mask:url(#mask-4);filter:url(#luminosity-noclip-8);}.cls-8{fill:url(#linear-gradient-4);}.cls-9{isolation:isolate;}.cls-10{fill:#fbcc31;}.cls-11,.cls-28{fill:#fff;}.cls-11{opacity:0.5;}.cls-12{mask:url(#mask-5);}.cls-13{fill:url(#linear-gradient-5);}.cls-14{fill:gray;}.cls-15{mask:url(#mask-6);}.cls-16{fill:url(#linear-gradient-6);}.cls-17{fill:#65c8d0;}.cls-18{fill:#e6e6e6;}.cls-19{fill:#999;}.cls-20,.cls-21{fill:#ccc;}.cls-22{mask:url(#mask-7);}.cls-23{fill:url(#linear-gradient-7);}.cls-24{fill:#666;}.cls-25{fill:url(#linear-gradient-8);}.cls-26{fill:url(#linear-gradient-9);}.cls-27{fill:#0071bc;}.cls-28{opacity:0.3;}.cls-29{fill:#4d4d4d;}.cls-30{fill:#b3b3b3;}.cls-31{mask:url(#mask-8);}.cls-32{fill:url(#linear-gradient-10);}.cls-33{filter:url(#luminosity-noclip-4);}.cls-34{filter:url(#luminosity-noclip-3);}.cls-35{filter:url(#luminosity-noclip-2);}.cls-36{filter:url(#luminosity-noclip);}</style><filter id="luminosity-noclip" x="116.92" y="-8165" width="72.47" height="32766" filterUnits="userSpaceOnUse" color-interpolation-filters="sRGB"><feFlood flood-color="#fff" result="bg"/><feBlend in="SourceGraphic" in2="bg"/></filter><mask id="mask" x="116.92" y="-8165" width="72.47" height="32766" maskUnits="userSpaceOnUse"><g class="cls-36"/></mask><linearGradient id="linear-gradient" x1="153.15" y1="485" x2="153.15" y2="286.7" gradientUnits="userSpaceOnUse"><stop offset="0"/><stop offset="0.04" stop-color="#181818"/><stop offset="0.15" stop-color="#4e4e4e"/><stop offset="0.26" stop-color="#7d7d7d"/><stop offset="0.37" stop-color="#a5a5a5"/><stop offset="0.49" stop-color="#c6c6c6"/><stop offset="0.6" stop-color="#dfdfdf"/><stop offset="0.72" stop-color="#f1f1f1"/><stop offset="0.85" stop-color="#fcfcfc"/><stop offset="1" stop-color="#fff"/></linearGradient><filter id="luminosity-noclip-2" x="310.61" y="-8165" width="72.47" height="32766" filterUnits="userSpaceOnUse" color-interpolation-filters="sRGB"><feFlood flood-color="#fff" result="bg"/><feBlend in="SourceGraphic" in2="bg"/></filter><mask id="mask-2" x="310.61" y="-8165" width="72.47" height="32766" maskUnits="userSpaceOnUse"><g class="cls-35"/></mask><linearGradient id="linear-gradient-2" x1="2039.66" y1="485" x2="2039.66" y2="286.7" gradientTransform="matrix(-1, 0, 0, 1, 2386.51, 0)" xlink:href="#linear-gradient"/><filter id="luminosity-noclip-3" x="169.03" y="-8165" width="70.62" height="32766" filterUnits="userSpaceOnUse" color-interpolation-filters="sRGB"><feFlood flood-color="#fff" result="bg"/><feBlend in="SourceGraphic" in2="bg"/></filter><mask id="mask-3" x="169.03" y="-8165" width="70.62" height="32766" maskUnits="userSpaceOnUse"><g class="cls-34"/></mask><linearGradient id="linear-gradient-3" x1="204.34" y1="368.16" x2="204.34" y2="18.79" gradientUnits="userSpaceOnUse"><stop offset="0"/><stop offset="0.23" stop-color="#414141"/><stop offset="0.61" stop-color="#a6a6a6"/><stop offset="0.88" stop-color="#e6e6e6"/><stop offset="1" stop-color="#fff"/></linearGradient><filter id="luminosity-noclip-4" x="251.51" y="-8165" width="87.66" height="32766" filterUnits="userSpaceOnUse" color-interpolation-filters="sRGB"><feFlood flood-color="#fff" result="bg"/><feBlend in="SourceGraphic" in2="bg"/></filter><mask id="mask-4" x="251.51" y="-8165" width="87.66" height="32766" maskUnits="userSpaceOnUse"><g class="cls-33"/></mask><linearGradient id="linear-gradient-4" x1="251.51" y1="333.81" x2="339.17" y2="333.81" gradientUnits="userSpaceOnUse"><stop offset="0" stop-color="#fff"/><stop offset="0.37" stop-color="#a3a3a3"/><stop offset="1"/></linearGradient><filter id="luminosity-noclip-5" x="116.92" y="286.7" width="72.47" height="198.3" filterUnits="userSpaceOnUse" color-interpolation-filters="sRGB"><feFlood flood-color="#fff" result="bg"/><feBlend in="SourceGraphic" in2="bg"/></filter><mask id="mask-5" x="116.92" y="286.7" width="72.47" height="198.3" maskUnits="userSpaceOnUse"><g class="cls-1"><path class="cls-2" d="M185.56,313.24c-3.56-93.73-68.65,85.88-68.65,150.9V485H157.4c22.36,0,37.81-22.14,29.88-42.82L179.54,422a99.56,99.56,0,0,1-6.42-41.41C174.68,353.73,179,331.46,185.56,313.24Z"/></g></mask><linearGradient id="linear-gradient-5" x1="153.15" y1="485" x2="153.15" y2="286.7" gradientUnits="userSpaceOnUse"><stop offset="0" stop-color="#fff"/><stop offset="0.04" stop-color="#e7e7e7"/><stop offset="0.15" stop-color="#b1b1b1"/><stop offset="0.26" stop-color="#828282"/><stop offset="0.37" stop-color="#5a5a5a"/><stop offset="0.49" stop-color="#393939"/><stop offset="0.6" stop-color="#202020"/><stop offset="0.72" stop-color="#0e0e0e"/><stop offset="0.85" stop-color="#030303"/><stop offset="1"/></linearGradient><filter id="luminosity-noclip-6" x="310.61" y="286.7" width="72.47" height="198.3" filterUnits="userSpaceOnUse" color-interpolation-filters="sRGB"><feFlood flood-color="#fff" result="bg"/><feBlend in="SourceGraphic" in2="bg"/></filter><mask id="mask-6" x="310.61" y="286.7" width="72.47" height="198.3" maskUnits="userSpaceOnUse"><g class="cls-3"><path class="cls-4" d="M314.44,313.24c3.56-93.73,68.65,85.88,68.65,150.9V485H342.6c-22.36,0-37.81-22.14-29.88-42.82L320.46,422a99.56,99.56,0,0,0,6.42-41.41C325.32,353.73,321,331.46,314.44,313.24Z"/></g></mask><linearGradient id="linear-gradient-6" x1="2039.66" y1="485" x2="2039.66" y2="286.7" gradientTransform="matrix(-1, 0, 0, 1, 2386.51, 0)" xlink:href="#linear-gradient-5"/><filter id="luminosity-noclip-7" x="169.03" y="18.79" width="70.62" height="349.37" filterUnits="userSpaceOnUse" color-interpolation-filters="sRGB"><feFlood flood-color="#fff" result="bg"/><feBlend in="SourceGraphic" in2="bg"/></filter><mask id="mask-7" x="169.03" y="18.79" width="70.62" height="349.37" maskUnits="userSpaceOnUse"><g class="cls-5"><path class="cls-6" d="M225.86,18.79C192.93,29.42,169,61.24,169,98.84c0,42.68,30.79,238.84,70.62,269.32C208.77,331,185.17,139.91,185.17,97.62,185.17,61.9,202,31.33,225.86,18.79Z"/></g></mask><linearGradient id="linear-gradient-7" x1="204.34" y1="368.16" x2="204.34" y2="18.79" gradientUnits="userSpaceOnUse"><stop offset="0" stop-color="#fff"/><stop offset="1" stop-color="#fff"/></linearGradient><linearGradient id="linear-gradient-8" x1="250" y1="172.08" x2="250" y2="88.96" gradientUnits="userSpaceOnUse"><stop offset="0" stop-color="#808285"/><stop offset="0.24" stop-color="#888a8d"/><stop offset="0.6" stop-color="#9d9fa2"/><stop offset="1" stop-color="#bcbec0"/></linearGradient><linearGradient id="linear-gradient-9" x1="250" y1="169.98" x2="250" y2="91.06" gradientUnits="userSpaceOnUse"><stop offset="0" stop-color="#bcbec0"/><stop offset="0.4" stop-color="#9d9fa2"/><stop offset="0.76" stop-color="#888a8d"/><stop offset="1" stop-color="#808285"/></linearGradient><filter id="luminosity-noclip-8" x="251.51" y="236.03" width="87.66" height="195.55" filterUnits="userSpaceOnUse" color-interpolation-filters="sRGB"><feFlood flood-color="#fff" result="bg"/><feBlend in="SourceGraphic" in2="bg"/></filter><mask id="mask-8" x="251.51" y="236.03" width="87.66" height="195.55" maskUnits="userSpaceOnUse"><g class="cls-7"><path class="cls-8" d="M251.51,236l1,195.55h86.61C310.89,272.16,251.51,236,251.51,236Z"/></g></mask><linearGradient id="linear-gradient-10" x1="251.51" y1="333.81" x2="339.17" y2="333.81" gradientUnits="userSpaceOnUse"><stop offset="0"/><stop offset="0.37" stop-color="#5c5c5c"/><stop offset="1" stop-color="#fff"/></linearGradient></defs><title>ships</title><g class="cls-9"><g id="Layer_1" data-name="Layer 1"><path class="cls-10" d="M173.12,380.58c4.6-79.38,33.47-118.83,72.18-131.39v-9.48H194.92c-58.43,0-105.8,133.41-105.8,191.21V467a18.09,18.09,0,0,0,18.19,18h50.1c22.36,0,37.81-22.14,29.88-42.82L179.54,422A99.56,99.56,0,0,1,173.12,380.58Z"/><path class="cls-11" d="M97.6,477.62V441.54c0-57.8,47.37-191.21,105.8-191.21H242q1.61-.59,3.25-1.13v-9.48H194.92c-58.43,0-105.8,133.41-105.8,191.21V467a18,18,0,0,0,9.22,15.64A17.79,17.79,0,0,1,97.6,477.62Z"/><g class="cls-12"><path class="cls-13" d="M185.56,313.24c-3.56-93.73-68.65,85.88-68.65,150.9V485H157.4c22.36,0,37.81-22.14,29.88-42.82L179.54,422a99.56,99.56,0,0,1-6.42-41.41C174.68,353.73,179,331.46,185.56,313.24Z"/></g><path class="cls-14" d="M194.92,239.71c-16.73,0-32.55,10.95-46.61,27.91,4.21,26.92,13.34,55.15,28.81,78,10.07-56.28,35.64-85.84,68.18-96.39v-9.48Z"/><path class="cls-10" d="M326.88,380.58c-4.6-79.38-33.47-118.83-72.18-131.39v-9.48h50.38c58.43,0,105.8,133.41,105.8,191.21V467a18.09,18.09,0,0,1-18.19,18H342.6c-22.36,0-37.81-22.14-29.88-42.82L320.46,422A99.56,99.56,0,0,0,326.88,380.58Z"/><path class="cls-11" d="M402.4,477.62V441.54c0-57.8-47.37-191.21-105.8-191.21H258q-1.61-.59-3.25-1.13v-9.48h50.38c58.43,0,105.8,133.41,105.8,191.21V467a18,18,0,0,1-9.22,15.64A17.79,17.79,0,0,0,402.4,477.62Z"/><g class="cls-15"><path class="cls-16" d="M314.44,313.24c3.56-93.73,68.65,85.88,68.65,150.9V485H342.6c-22.36,0-37.81-22.14-29.88-42.82L320.46,422a99.56,99.56,0,0,0,6.42-41.41C325.32,353.73,321,331.46,314.44,313.24Z"/></g><path class="cls-14" d="M305.08,239.71c16.73,0,32.55,10.95,46.61,27.91-4.21,26.92-13.34,55.15-28.81,78-10.07-56.28-35.64-85.84-68.18-96.39v-9.48Z"/><path class="cls-17" d="M250,224.43c-57.68,0-105.65,89.35-115.57,207.15H365.57C355.65,313.78,307.68,224.43,250,224.43Z"/><path class="cls-18" d="M250,224.43c-47.35,0-86.73,89.35-94.87,207.15H344.87C336.73,313.78,297.35,224.43,250,224.43Z"/><path class="cls-11" d="M250,224.43c53.18,0,97.54,88.94,107.78,207.15h7.79C355.65,313.78,307.68,224.43,250,224.43ZM134.43,431.58h7.79C152.46,313.37,196.82,224.43,250,224.43,192.32,224.43,144.35,313.78,134.43,431.58Z"/><path class="cls-18" d="M250,224.43c-32.92,0-60.29,89.35-66,207.15H316C310.29,313.78,282.92,224.43,250,224.43Z"/><path class="cls-19" d="M250,377.46c30.9,0,58.4-47.5,76-93-20.49-37.45-47-60.05-76-60.05s-55.55,22.6-76,60.05C191.6,330,219.1,377.46,250,377.46Z"/><path class="cls-20" d="M346.4,98.72c0,46.24-43.16,272.9-96.4,272.9S153.6,145,153.6,98.72,196.76,15,250,15,346.4,52.48,346.4,98.72Z"/><path class="cls-17" d="M250,15c-42.56,0-78.68,24-91.46,57.18H341.46C328.68,39,292.56,15,250,15Z"/><path class="cls-18" d="M305.76,98.72c0,46.24-25,272.9-55.76,272.9S194.24,145,194.24,98.72,219.2,15,250,15,305.76,52.48,305.76,98.72Z"/><path class="cls-21" d="M274.14,18.79C298,31.33,314.83,61.9,314.83,97.62c0,42.29-23.6,233.37-54.48,270.54C300.18,337.67,331,141.51,331,98.84,331,61.24,307.07,29.42,274.14,18.79Z"/><g class="cls-22"><path class="cls-23" d="M225.86,18.79C192.93,29.42,169,61.24,169,98.84c0,42.68,30.79,238.84,70.62,269.32C208.77,331,185.17,139.91,185.17,97.62,185.17,61.9,202,31.33,225.86,18.79Z"/></g><path class="cls-11" d="M189.09,33.83C167.43,49.18,153.6,72.54,153.6,98.72c0,37.42,28.28,193,67.29,251C184.72,289,158.67,134.7,158.67,97.2,158.67,72,170.42,49.4,189.09,33.83ZM346.4,98.72c0-26.17-13.83-49.54-35.49-64.89C329.58,49.4,341.33,72,341.33,97.2c0,37.49-26,191.77-62.21,252.53C318.13,291.76,346.4,136.14,346.4,98.72Z"/><path class="cls-24" d="M216,137.15a58.79,58.79,0,0,0,4.86,23.56c4.77,10.92,17.46,18,31.34,18h11.18c13.88,0,26.57-7.08,31.34-18a59.54,59.54,0,0,0,0-47.12c-4.77-10.92-17.46-18-31.34-18H252.15c-13.88,0-26.57,7.08-31.34,18A58.79,58.79,0,0,0,216,137.15Z"/><path class="cls-21" d="M200.47,137.15a58.79,58.79,0,0,0,4.86,23.56c4.77,10.92,17.46,18,31.34,18h11.18c13.88,0,26.57-7.08,31.34-18a59.54,59.54,0,0,0,0-47.12c-4.77-10.92-17.46-18-31.34-18H236.67c-13.88,0-26.57,7.08-31.34,18A58.79,58.79,0,0,0,200.47,137.15Z"/><path class="cls-25" d="M208.21,130.52a58.79,58.79,0,0,0,4.86,23.56c4.77,10.92,17.46,18,31.34,18h11.18c13.88,0,26.57-7.08,31.34-18a59.54,59.54,0,0,0,0-47.12C282.16,96,269.47,89,255.59,89H244.41c-13.88,0-26.57,7.08-31.34,18A58.79,58.79,0,0,0,208.21,130.52Z"/><path class="cls-26" d="M210.33,130.52a55.82,55.82,0,0,0,4.61,22.37c4.53,10.37,16.57,17.09,29.75,17.09h10.61c13.18,0,25.22-6.72,29.75-17.09a56.52,56.52,0,0,0,0-44.73c-4.53-10.37-16.57-17.09-29.75-17.09H244.69c-13.18,0-25.22,6.72-29.75,17.09A55.82,55.82,0,0,0,210.33,130.52Z"/><path d="M214.2,130.52a50.36,50.36,0,0,0,4.16,20.18c4.09,9.36,15,15.42,26.85,15.42h9.57c11.89,0,22.76-6.07,26.85-15.42a51,51,0,0,0,0-40.37c-4.09-9.36-15-15.42-26.85-15.42h-9.57c-11.89,0-22.76,6.07-26.85,15.42A50.37,50.37,0,0,0,214.2,130.52Z"/><path class="cls-27" d="M216.43,130.52a47.23,47.23,0,0,0,3.9,18.93c3.83,8.77,14,14.46,25.17,14.46h9c11.15,0,21.34-5.69,25.17-14.46a47.83,47.83,0,0,0,0-37.85c-3.83-8.77-14-14.46-25.17-14.46h-9c-11.15,0-21.34,5.69-25.17,14.46A47.23,47.23,0,0,0,216.43,130.52Z"/><path class="cls-28" d="M243.15,122.92h13.71c9.94,0,19.36,2,26.66,5.58a47.07,47.07,0,0,0-3.85-16.91c-3.83-8.77-14-14.46-25.18-14.46h-9c-11.15,0-21.34,5.69-25.17,14.46a47.08,47.08,0,0,0-3.85,16.91C223.78,125,233.21,122.92,243.15,122.92Z"/><path class="cls-28" d="M222.86,144.19a40.67,40.67,0,0,1,4.67-18.93c4.59-8.77,16.79-14.46,30.14-14.46h10.75a45.44,45.44,0,0,1,11.52,1.47c-.09-.23-.18-.46-.28-.68-3.83-8.77-14-14.46-25.18-14.46h-9c-11.15,0-21.34,5.69-25.17,14.46a47.83,47.83,0,0,0,0,37.85,20.91,20.91,0,0,0,4.17,6.15A40.42,40.42,0,0,1,222.86,144.19Z"/><path class="cls-19" d="M250,241.88a674.53,674.53,0,0,1,70.1,3.6c1.76-6.53,3.45-13.11,5.06-19.67H174.84c1.61,6.56,3.3,13.13,5.06,19.67A674.53,674.53,0,0,1,250,241.88Z"/><path class="cls-29" d="M326.55,231.91H173.45a5.87,5.87,0,0,1-5.87-5.87h0a5.87,5.87,0,0,1,5.87-5.87H326.55a5.87,5.87,0,0,1,5.87,5.87h0A5.87,5.87,0,0,1,326.55,231.91Z"/><path class="cls-30" d="M326.35,231.91H173.55c-4-.06-3.88-5.91.1-6,29.73-.55,158.77-2.75,158.77.11h0A6,6,0,0,1,326.35,231.91Z"/><g class="cls-31"><path class="cls-32" d="M251.51,236l1,195.55h86.61C310.89,272.16,251.51,236,251.51,236Z"/></g><path class="cls-10" d="M271.77,485H228.23V320.62c0-10.69,9.75-85,21.77-85h0c12,0,21.77,74.29,21.77,85Z"/><path class="cls-30" d="M271.77,320.62c0-8.43-6.06-56.42-14.52-76.33-.72-1.69-3.54,75.6-3.54,77.41V485h18.07Z"/><path class="cls-11" d="M237.89,316.62c0-8.87,5.17-57.51,12.52-80.94a3,3,0,0,0-.41,0h0c-12,0-21.77,74.29-21.77,85V485h9.66Z"/></g></g></svg>