<svg xmlns="http://www.w3.org/2000/svg" xmlns:xlink="http://www.w3.org/1999/xlink" viewBox="0 0 500 500"><defs><style>.cls-1{isolation:isolate;}.cls-10,.cls-11,.cls-12,.cls-13,.cls-14,.cls-15,.cls-16,.cls-17,.cls-18,.cls-19,.cls-2,.cls-20,.cls-21,.cls-22,.cls-23,.cls-24,.cls-25,.cls-26,.cls-27,.cls-28,.cls-29,.cls-3,.cls-30,.cls-31,.cls-32,.cls-33,.cls-34,.cls-35,.cls-36,.cls-37,.cls-38,.cls-39,.cls-4,.cls-40,.cls-41,.cls-42,.cls-44,.cls-45,.cls-46,.cls-47,.cls-48,.cls-49,.cls-5,.cls-50,.cls-51,.cls-52,.cls-6,.cls-7,.cls-8,.cls-9{fill-rule:evenodd;}.cls-2{fill:url(#_119);}.cls-3{fill:url(#_119-2);}.cls-4{fill:url(#_162);}.cls-13,.cls-14,.cls-15,.cls-25,.cls-5,.cls-6,.cls-7{opacity:0.5;}.cls-13,.cls-14,.cls-15,.cls-17,.cls-19,.cls-21,.cls-24,.cls-28,.cls-33,.cls-34,.cls-35,.cls-36,.cls-48,.cls-5,.cls-51,.cls-6,.cls-7,.cls-9{mix-blend-mode:multiply;}.cls-5{fill:url(#_210);}.cls-6{fill:url(#_210-2);}.cls-7{fill:url(#_210-3);}.cls-16,.cls-8{opacity:0.91;}.cls-16,.cls-25,.cls-42,.cls-43,.cls-44,.cls-45,.cls-49,.cls-50,.cls-53,.cls-8{mix-blend-mode:screen;}.cls-8{fill:url(#_320);}.cls-17,.cls-19,.cls-21,.cls-24,.cls-33,.cls-34,.cls-35,.cls-36,.cls-48,.cls-51,.cls-9{opacity:0.71;}.cls-9{fill:url(#_110);}.cls-10{fill:url(#_119-3);}.cls-11{fill:url(#_119-4);}.cls-12{fill:url(#_162-2);}.cls-13{fill:url(#_210-4);}.cls-14{fill:url(#_210-5);}.cls-15{fill:url(#_210-6);}.cls-16{fill:url(#_320-2);}.cls-17{fill:url(#_110-2);}.cls-18{fill:url(#_423);}.cls-19{fill:url(#_68);}.cls-20{fill:url(#_230);}.cls-21{fill:url(#_68-2);}.cls-22{fill:url(#_435);}.cls-23{fill:url(#_162-3);}.cls-24{fill:url(#_68-3);}.cls-25{fill:url(#_61);}.cls-26{fill:#2b1f54;}.cls-27{fill:url(#_472);}.cls-28{fill:url(#_214);}.cls-29{fill:url(#_435-2);}.cls-30{fill:url(#_435-3);}.cls-31{fill:url(#_435-4);}.cls-32{fill:url(#_435-5);}.cls-33{fill:url(#_68-4);}.cls-34{fill:url(#_68-5);}.cls-35{fill:url(#_68-6);}.cls-36{fill:url(#_68-7);}.cls-37{fill:url(#_423-2);}.cls-38{fill:url(#_423-3);}.cls-39{fill:url(#_435-6);}.cls-40{fill:url(#_162-4);}.cls-41{fill:#fff;}.cls-42{opacity:0.64;fill:url(#_89);}.cls-43{fill:url(#_34);}.cls-44{fill:url(#_494);}.cls-45{fill:url(#_494-2);}.cls-46{fill:url(#_119-5);}.cls-47{fill:url(#_162-5);}.cls-48{fill:url(#_110-3);}.cls-49{fill:url(#_320-3);}.cls-50{opacity:0.2;fill:url(#_89-2);}.cls-51{fill:url(#_68-8);}.cls-52{fill:#72ffff;}.cls-53{fill:url(#_34-2);}</style><linearGradient id="_119" x1="-10457.93" y1="242.63" x2="-10365.65" y2="242.63" gradientTransform="matrix(-1, 0, 0, 1, -10275.05, 0)" gradientUnits="userSpaceOnUse"><stop offset="0" stop-color="#5b58a3"/><stop offset="0.44" stop-color="#5f59a3"/><stop offset="0.85" stop-color="#6a5ca2"/><stop offset="0.99" stop-color="#705ea2"/></linearGradient><linearGradient id="_119-2" x1="-10411.79" y1="371.76" x2="-10374.22" y2="371.76" xlink:href="#_119"/><radialGradient id="_162" cx="-10355.32" cy="163.55" r="178.82" gradientTransform="matrix(-1, 0, 0, 1, -10275.05, 0)" gradientUnits="userSpaceOnUse"><stop offset="0" stop-color="#ffd5bd"/><stop offset="0.1" stop-color="#f8d0bf"/><stop offset="0.25" stop-color="#e5c2c6"/><stop offset="0.43" stop-color="#c5abd2"/><stop offset="0.63" stop-color="#9a8ce1"/><stop offset="0.75" stop-color="#7a75ed"/><stop offset="0.97" stop-color="#7a82ed"/></radialGradient><linearGradient id="_210" x1="-10369.07" y1="365.92" x2="-10340.43" y2="365.92" gradientTransform="matrix(-1, 0, 0, 1, -10275.05, 0)" gradientUnits="userSpaceOnUse"><stop offset="0" stop-color="#b3a6db"/><stop offset="0.41" stop-color="#a685be"/><stop offset="0.77" stop-color="#9d71ab"/><stop offset="1" stop-color="#9a69a4"/></linearGradient><linearGradient id="_210-2" x1="-10362.86" y1="421.34" x2="-10340.86" y2="421.34" xlink:href="#_210"/><linearGradient id="_210-3" x1="-10376.36" y1="400.04" x2="-10361.34" y2="400.04" xlink:href="#_210"/><linearGradient id="_320" x1="-10359.67" y1="283.5" x2="-10337.72" y2="283.5" gradientTransform="matrix(-1, 0, 0, 1, -10275.05, 0)" gradientUnits="userSpaceOnUse"><stop offset="0" stop-color="#fff"/><stop offset="1" stop-color="#623964"/></linearGradient><linearGradient id="_110" x1="146.37" y1="272.89" x2="193.53" y2="272.89" gradientUnits="userSpaceOnUse"><stop offset="0" stop-color="#cc87cf"/><stop offset="0.09" stop-color="#c781cb"/><stop offset="0.69" stop-color="#a65aaf"/><stop offset="1" stop-color="#9a4ba4"/></linearGradient><linearGradient id="_119-3" x1="317.12" y1="242.63" x2="409.4" y2="242.63" gradientTransform="matrix(1, 0, 0, 1, 0, 0)" xlink:href="#_119"/><linearGradient id="_119-4" x1="363.26" y1="371.76" x2="400.83" y2="371.76" gradientTransform="matrix(1, 0, 0, 1, 0, 0)" xlink:href="#_119"/><radialGradient id="_162-2" cx="426.44" cy="247.44" r="178.83" gradientTransform="matrix(1, 0, 0, 1, 0, 0)" xlink:href="#_162"/><linearGradient id="_210-4" x1="408.94" y1="345.79" x2="429.35" y2="345.79" gradientTransform="matrix(1, 0, 0, 1, 0, 0)" xlink:href="#_210"/><linearGradient id="_210-5" x1="412.19" y1="421.34" x2="434.19" y2="421.34" gradientTransform="matrix(1, 0, 0, 1, 0, 0)" xlink:href="#_210"/><linearGradient id="_210-6" x1="396.48" y1="400.04" x2="404.52" y2="400.04" gradientTransform="matrix(1, 0, 0, 1, 0, 0)" xlink:href="#_210"/><linearGradient id="_320-2" x1="415.39" y1="283.5" x2="437.33" y2="283.5" gradientTransform="matrix(1, 0, 0, 1, 0, 0)" xlink:href="#_320"/><linearGradient id="_110-2" x1="307.54" y1="273.81" x2="351.8" y2="273.81" xlink:href="#_110"/><radialGradient id="_423" cx="265.86" cy="343.57" r="39.88" gradientUnits="userSpaceOnUse"><stop offset="0" stop-color="#b1b5bd"/><stop offset="0.14" stop-color="#abaebd"/><stop offset="0.34" stop-color="#9b9bbf"/><stop offset="0.57" stop-color="#817cc0"/><stop offset="0.75" stop-color="#685ec2"/><stop offset="0.97" stop-color="#7a75d8"/></radialGradient><linearGradient id="_68" x1="195.95" y1="334.57" x2="304.82" y2="334.57" gradientUnits="userSpaceOnUse"><stop offset="0" stop-color="#9a69a4"/><stop offset="0.13" stop-color="#a275ab"/><stop offset="0.38" stop-color="#b795bf"/><stop offset="0.69" stop-color="#dac8dd"/><stop offset="1" stop-color="#fff"/></linearGradient><linearGradient id="_230" x1="140.96" y1="260.29" x2="357.95" y2="260.29" gradientUnits="userSpaceOnUse"><stop offset="0" stop-color="#860057"/><stop offset="0.03" stop-color="#8c0555"/><stop offset="0.19" stop-color="#a9224b"/><stop offset="0.36" stop-color="#c13842"/><stop offset="0.54" stop-color="#d1483d"/><stop offset="0.74" stop-color="#db5139"/><stop offset="0.99" stop-color="#de5438"/></linearGradient><linearGradient id="_68-2" x1="140.96" y1="260.28" x2="357.95" y2="260.28" xlink:href="#_68"/><linearGradient id="_435" x1="89.14" y1="162.76" x2="333.53" y2="162.76" gradientUnits="userSpaceOnUse"><stop offset="0.03" stop-color="#7a82ed"/><stop offset="0.21" stop-color="#7a75ed"/><stop offset="0.99" stop-color="#fdd3be"/><stop offset="1" stop-color="#ffd5bd"/></linearGradient><radialGradient id="_162-3" cx="278.16" cy="54" r="146.34" gradientTransform="matrix(1, 0, 0, 1, 0, 0)" xlink:href="#_162"/><linearGradient id="_68-3" x1="226.32" y1="123.69" x2="173.75" y2="80.63" xlink:href="#_68"/><linearGradient id="_61" x1="245.97" y1="160.76" x2="245.97" y2="53.84" gradientUnits="userSpaceOnUse"><stop offset="0" stop-color="#fff"/><stop offset="1"/></linearGradient><radialGradient id="_472" cx="245.97" cy="204.99" r="29.7" gradientTransform="translate(0 -54.36) scale(1 0.89)" gradientUnits="userSpaceOnUse"><stop offset="0.01" stop-color="#60dbff"/><stop offset="0.18" stop-color="#56d5ff"/><stop offset="0.48" stop-color="#3cc4ff"/><stop offset="0.86" stop-color="#12a9ff"/><stop offset="1" stop-color="#009dff"/></radialGradient><linearGradient id="_214" x1="244.68" y1="133.8" x2="244.68" y2="115.9" gradientUnits="userSpaceOnUse"><stop offset="0" stop-color="#e7e3f4"/><stop offset="0.07" stop-color="#dfd6ec"/><stop offset="0.37" stop-color="#c1a7cd"/><stop offset="0.64" stop-color="#ac85b7"/><stop offset="0.86" stop-color="#9f71a9"/><stop offset="1" stop-color="#9a69a4"/></linearGradient><linearGradient id="_435-2" x1="150.5" y1="191.49" x2="150.5" y2="208.15" xlink:href="#_435"/><linearGradient id="_435-3" x1="212.55" y1="197.93" x2="212.55" y2="216.6" xlink:href="#_435"/><linearGradient id="_435-4" x1="292.15" y1="197.93" x2="292.15" y2="213.79" xlink:href="#_435"/><linearGradient id="_435-5" x1="348.28" y1="187.11" x2="348.28" y2="205.63" xlink:href="#_435"/><linearGradient id="_68-4" x1="135.62" y1="198" x2="165.38" y2="198" xlink:href="#_68"/><linearGradient id="_68-5" x1="190.74" y1="205.03" x2="234.36" y2="205.03" xlink:href="#_68"/><linearGradient id="_68-6" x1="272.38" y1="205.3" x2="311.91" y2="205.3" xlink:href="#_68"/><linearGradient id="_68-7" x1="329.8" y1="195.8" x2="366.77" y2="195.8" xlink:href="#_68"/><radialGradient id="_423-2" cx="284.97" cy="191.29" r="110.09" xlink:href="#_423"/><radialGradient id="_423-3" cx="260.08" cy="59.78" r="31.29" xlink:href="#_423"/><linearGradient id="_435-6" x1="220.37" y1="49.35" x2="269.87" y2="49.35" xlink:href="#_435"/><radialGradient id="_162-4" cx="-1742.35" cy="-233.92" r="28.64" gradientTransform="matrix(1.77, 0.1, -0.06, 1, 3338.68, 441.14)" xlink:href="#_162"/><linearGradient id="_89" x1="233.89" y1="35.36" x2="243.09" y2="35.36" gradientUnits="userSpaceOnUse"><stop offset="0" stop-color="#623964"/><stop offset="1" stop-color="#ffc209"/></linearGradient><radialGradient id="_34" cx="1764.17" cy="510.93" r="9.82" gradientTransform="translate(-1133 -726.59) scale(0.78 1.48)" gradientUnits="userSpaceOnUse"><stop offset="0.01" stop-color="#f4ff09"/><stop offset="0.07" stop-color="#dfe908"/><stop offset="0.27" stop-color="#9ca306"/><stop offset="0.46" stop-color="#646904"/><stop offset="0.63" stop-color="#393c02"/><stop offset="0.78" stop-color="#1a1b01"/><stop offset="0.91" stop-color="#070700"/><stop offset="1"/></radialGradient><radialGradient id="_494" cx="258.92" cy="54.18" r="12.07" gradientTransform="matrix(1, 0, 0, 1, 0, 0)" xlink:href="#_320"/><radialGradient id="_494-2" cx="326.39" cy="172.5" r="24.64" gradientTransform="matrix(1, 0, 0, 1, 0, 0)" xlink:href="#_320"/><linearGradient id="_119-5" x1="245.97" y1="350.62" x2="264" y2="350.62" gradientTransform="translate(0 0.93) scale(1 1.03)" xlink:href="#_119"/><radialGradient id="_162-5" cx="257.33" cy="219.49" r="36.09" gradientTransform="matrix(1, 0, 0, 1, 0, 0)" xlink:href="#_162"/><linearGradient id="_110-3" x1="215.43" y1="289.55" x2="249.74" y2="289.55" xlink:href="#_110"/><linearGradient id="_320-3" x1="215.43" y1="170.82" x2="361.02" y2="170.82" gradientTransform="matrix(1, 0, 0, 1, 0, 0)" xlink:href="#_320"/><linearGradient id="_89-2" x1="293.63" y1="333.86" x2="304.1" y2="257.06" xlink:href="#_89"/><linearGradient id="_68-8" x1="208.43" y1="172.23" x2="139.38" y2="176.84" xlink:href="#_68"/><radialGradient id="_34-2" cx="288.23" cy="84.57" r="20.83" gradientTransform="matrix(1, 0, 0, 1, 0, 0)" xlink:href="#_34"/></defs><title>ships</title><g class="cls-1"><g id="Layer_1" data-name="Layer 1"><path class="cls-2" d="M99.17,226.12s45.83,26.66,80.35,27.36l3.36,6.82s-57-4.58-92.28-35.34Z"/><path class="cls-3" d="M101.23,475.5l6.65-11.38s1.77-111.6,28.87-189.21L128.07,268S90,412.3,101.23,475.5Z"/><path class="cls-4" d="M182.88,260.3C128.07,246.21,90.6,225,90.6,225s-13.42,5-22.93,13.42c0,0-18.46,152.67,15.66,237.12h17.9s1.12-110.74,32-202.45c0,0,15,8.76,49.64,19.57Z"/><path class="cls-5" d="M80.86,345.79c20.76-3,13.28,41,2.59,40.42S50.18,350.23,80.86,345.79Z"/><path class="cls-6" d="M85.2,405.59c9.69,22-10.69,42.38-10.69,42.38a333.92,333.92,0,0,1-8.7-51.32S77.66,388.5,85.2,405.59Z"/><path class="cls-7" d="M93.48,395c5.93.49,16.45,16.44-5.25,7.23C83.48,400.22,88.3,394.58,93.48,395Z"/><path class="cls-8" d="M84.61,227.58l-14,13.6s-5.49,68.6-8,98.24c0,0-.61-50.52,5-101A146.91,146.91,0,0,1,84.61,227.58Z"/><path class="cls-9" d="M155.46,249.74h-9.09s-.66,15.13,14.58,35.44l32.58,10.87-14-42.57S166.48,253,155.46,249.74Z"/><path class="cls-10" d="M400.83,226.12S355,252.77,320.48,253.48l-3.36,6.82s57-4.58,92.28-35.34Z"/><path class="cls-11" d="M398.77,475.5l-6.65-11.38s-1.77-111.6-28.87-189.21l8.67-6.89S410,412.3,398.77,475.5Z"/><path class="cls-12" d="M317.12,260.3C371.93,246.21,409.4,225,409.4,225s13.42,5,22.93,13.42c0,0,18.46,152.67-15.66,237.12h-17.9s-1.12-110.74-32-202.45c0,0-15,8.76-49.64,19.57Z"/><path class="cls-13" d="M423.63,328.42c-20.87,2.09-16.4,35.29-5.7,34.76S434.33,327.35,423.63,328.42Z"/><path class="cls-14" d="M414.8,405.59c-9.69,22,10.69,42.38,10.69,42.38a333.85,333.85,0,0,0,8.7-51.32S422.34,388.5,414.8,405.59Z"/><path class="cls-15" d="M400.64,391.81c-5.93.49-5.16,16.47,0,16.47S405.82,391.38,400.64,391.81Z"/><path class="cls-16" d="M415.39,227.58l14,13.6s5.49,68.6,8,98.24c0,0,.61-50.52-5-101A146.9,146.9,0,0,0,415.39,227.58Z"/><path class="cls-17" d="M344.55,249.74l7.25.1a82.31,82.31,0,0,1-8.32,33.66l-35.94,14.39,9.58-37.59Z"/><path class="cls-18" d="M196,324.69l4.47,19.76s18.46,9.69,49.31,9.69,47.63-5.59,47.63-5.59l7.46-23.86Z"/><path class="cls-19" d="M200.43,344.45c33.74-5.75,90.64-8.3,98.22,0l6.17-19.76H196Z"/><path class="cls-20" d="M357.95,181.9s-2.44,13-7.09,31.89c-8.35,34-23.84,87.28-45.1,118.91,0,0-32.71,6.48-65.9,6-17.93-.27-36-2.58-49.13-9.05,0,0-35.23-73.33-49.77-147.71Z"/><path class="cls-21" d="M357.95,181.9s-2.44,13-7.09,31.89c-76.8-2.81-156.83,7.81-168,27.11s11.62,77.56,29.67,87.5c12.59,6.93,22.49,9.41,27.32,10.27-17.93-.27-36-2.58-49.13-9.05,0,0-35.23-73.33-49.77-147.71Z"/><path class="cls-22" d="M267.91,144.14c-108.42-4.06-140.37,15.13-140.37,15.13S149.91,183,252.25,181.9s119.68-22.62,119.68-22.62S335,146.66,267.91,144.14Z"/><path class="cls-23" d="M351.8,156.73s-59.15,21-132.56,16.27a291.85,291.85,0,0,1-72.87-13.73S146,62.08,245,59.63a122.41,122.41,0,0,1,29.82,2.71C345.62,78.14,351.8,156.73,351.8,156.73Z"/><path class="cls-24" d="M274.8,62.33,272.38,65c-7.83,9.23-68.51,11.74-68.51,11.74S186.54,81,178.15,108.91s7,53,41.09,64.09a291.85,291.85,0,0,1-72.87-13.73S146,62.08,245,59.63A122.41,122.41,0,0,1,274.8,62.33Z"/><path class="cls-25" d="M295.09,123.78c0,24.12-22,43.68-49.12,43.68s-49.12-19.55-49.12-43.68,20.71-51.24,47.84-51.24S295.09,99.66,295.09,123.78Z"/><path class="cls-26" d="M286.16,126c0,19.74-17.32,33.24-39.52,33.24S205.77,145.76,205.77,126s18-35.73,40.19-35.73S286.16,106.29,286.16,126Z"/><path class="cls-27" d="M274.6,126c0,14.06-12.82,29.19-28.63,29.19S217.33,140.09,217.33,126s12.82-25.46,28.63-25.46S274.6,112,274.6,126Z"/><path class="cls-28" d="M205.77,123.78l12.41,8.43s7.4-11.9,30.14-11.9c23.12,0,26.15,8,26.15,8L283.81,114S275.75,91.53,246,90.29,203.67,115.54,205.77,123.78Z"/><path class="cls-29" d="M165.38,198a15.54,15.54,0,0,1-3.85,6.32l-.27.25c-5.67,5.2-14.61,4.46-20.3,0h0a13.23,13.23,0,0,1-5.12-13Z"/><path class="cls-30" d="M234.36,201.28a23.64,23.64,0,0,1-5.59,9.56c-8,8.06-20.66,6.88-29.15,1.29h0c-5.23-3.43-8.88-8.54-8.88-14.2Z"/><path class="cls-31" d="M311.91,197.93a12.6,12.6,0,0,1-1.81,6.5c-4.52,7.61-16.64,11.4-26.16,8.23a17.65,17.65,0,0,1-11.55-11.76Z"/><path class="cls-32" d="M364.46,195.16c-4.57,7.19-15.18,13-24.63,9.33h0l-.1,0a14.38,14.38,0,0,1-1.41-.64,21.76,21.76,0,0,1-8.5-8.32l36.91-8.38A12.69,12.69,0,0,1,364.46,195.16Z"/><path class="cls-33" d="M165.38,198a15.54,15.54,0,0,1-3.85,6.32l-.27.25c-.67-3.66-16.11-5-20.3,0h0a13.23,13.23,0,0,1-5.12-13Z"/><path class="cls-34" d="M234.36,201.28a23.64,23.64,0,0,1-5.59,9.56c-.84-6-28.81-3.5-29.15,1.29-5.23-3.43-8.88-8.54-8.88-14.2Z"/><path class="cls-35" d="M311.91,197.93a12.6,12.6,0,0,1-1.81,6.5h0c-3.12-2.63-24.56,2.08-26.14,8.23h0a17.65,17.65,0,0,1-11.55-11.76Z"/><path class="cls-36" d="M364.46,195.16c-3.42-6-20.48,2.53-24.63,9.33h0l-.1,0-1.41-.64a21.76,21.76,0,0,1-8.5-8.32l36.91-8.38A12.69,12.69,0,0,1,364.46,195.16Z"/><path class="cls-37" d="M127.54,159.27s-3.92,15.35,0,31.57c0,0,92.83,37.82,244.39-2.62,0,0,3.92-8,0-29,0,0-56.48,23.74-139.81,18.15S127.54,159.27,127.54,159.27Z"/><path class="cls-38" d="M219.26,65l1.12-16,49.49.41L272.38,65A88.14,88.14,0,0,1,219.26,65Z"/><path class="cls-39" d="M269.87,49.4c0,2.67-11.5,4.79-25.19,4.79s-24.3-2.53-24.3-5.21,10.61-4.47,24.3-4.47S269.87,46.72,269.87,49.4Z"/><path class="cls-40" d="M233.82,49.35s10.85,6,21.72.57c0,0-2.12-31.07-10-31S233.82,49.35,233.82,49.35Z"/><path class="cls-41" d="M246.32,22.33c-2.62,7.77,3.16,11.51,3.33,7.84S247,20.33,246.32,22.33Z"/><path class="cls-42" d="M241.38,21.94c6.47,13.52-7.49,26.84-7.49,26.84s2.34-15.37,4.6-20.58S241.38,21.94,241.38,21.94Z"/><ellipse class="cls-43" cx="247.64" cy="29.54" rx="7.69" ry="14.54"/><polygon class="cls-44" points="252.81 54.19 263.14 52.65 264.26 67.2 251.41 68.93 252.81 54.19"/><path class="cls-45" d="M337.64,169.48s-14,3.12-30.1,5.44v26.65s21.75-3.43,32.28-5.72Z"/><polygon class="cls-46" points="264 242.63 245.97 240.9 253.3 485 259.73 485 264 242.63"/><polygon class="cls-47" points="245.97 240.9 264 242.63 261.97 224.96 249.08 224.96 245.97 240.9"/><path class="cls-48" d="M249.08,225S233,253,215.43,336.77l18.74,1.92-5.76,13.84,21.33,1.61L246,240.9Z"/><path class="cls-49" d="M215.43,176.14s78.48,10.53,145.59-13C361,163.15,304.91,181.66,215.43,176.14Z"/><path class="cls-50" d="M305.76,332.7c37.37-72.42,28.93-154.21-8.3-85.37-17,31.5-29.57,90.34-29.57,90.34Z"/><path class="cls-51" d="M157.16,199.14s15.28-16,29.12-26.13h33s-38-2-72.87-13.73l.36-6.41s-16.39,3.18-19.18,6.41c0,0-4.29,20.39,0,31.57Z"/><path class="cls-41" d="M307.54,233.79c-8.14,6.24-15.11,19.45-16.4,26.84C290.61,263.64,311.84,230.5,307.54,233.79Z"/><path class="cls-41" d="M286.16,73.28c-8.33-.43,2.93,13.14,7.81,11.29S291,73.52,286.16,73.28Z"/><path class="cls-52" d="M238.49,146.65c-2.62,2.19,9.84,3.8,11.24,1.07S244.3,141.8,238.49,146.65Z"/><circle class="cls-53" cx="288.23" cy="84.57" r="20.83"/></g></g></svg>