<svg xmlns="http://www.w3.org/2000/svg" xmlns:xlink="http://www.w3.org/1999/xlink" viewBox="0 0 500 500"><defs><style>.cls-1{isolation:isolate;}.cls-2{opacity:0.85;mix-blend-mode:color-dodge;fill:url(#radial-gradient);}.cls-3{fill:url(#linear-gradient);}.cls-4{fill:url(#linear-gradient-2);}.cls-5{fill:url(#linear-gradient-3);}.cls-6{fill:url(#linear-gradient-4);}.cls-7{fill:url(#linear-gradient-5);}.cls-8{fill:url(#linear-gradient-6);}.cls-9{fill:#9185e7;}.cls-13,.cls-19,.cls-9{opacity:0.5;}.cls-12,.cls-13,.cls-17,.cls-9{mix-blend-mode:multiply;}.cls-10{fill:url(#linear-gradient-7);}.cls-11,.cls-18,.cls-19{fill:#fff;}.cls-11{opacity:0.25;}.cls-11,.cls-19{mix-blend-mode:overlay;}.cls-12{fill:url(#linear-gradient-8);}.cls-13{fill:#61379d;}.cls-14{fill:url(#linear-gradient-9);}.cls-15{fill:url(#linear-gradient-10);}.cls-16{fill:url(#linear-gradient-11);}.cls-17{fill:url(#linear-gradient-12);}</style><radialGradient id="radial-gradient" cx="250.32" cy="339.78" r="166.63" gradientUnits="userSpaceOnUse"><stop offset="0" stop-color="#fff"/><stop offset="0.18" stop-color="#fcfcfc"/><stop offset="0.31" stop-color="#f3f3f3"/><stop offset="0.43" stop-color="#e2e2e2"/><stop offset="0.54" stop-color="#ccc"/><stop offset="0.64" stop-color="#afafaf"/><stop offset="0.74" stop-color="#8b8b8b"/><stop offset="0.83" stop-color="#606060"/><stop offset="0.92" stop-color="#303030"/><stop offset="1"/></radialGradient><linearGradient id="linear-gradient" x1="252.3" y1="424.36" x2="252.3" y2="173.9" gradientUnits="userSpaceOnUse"><stop offset="0" stop-color="#55fbff"/><stop offset="0.28" stop-color="#52f8fe"/><stop offset="0.49" stop-color="#48eef9"/><stop offset="0.68" stop-color="#38def2"/><stop offset="0.85" stop-color="#21c7e8"/><stop offset="0.99" stop-color="#0ab0dd"/></linearGradient><linearGradient id="linear-gradient-2" x1="250" y1="410.62" x2="250" y2="352.06" gradientUnits="userSpaceOnUse"><stop offset="0.01" stop-color="#f94e41"/><stop offset="0.12" stop-color="#f2483b"/><stop offset="0.68" stop-color="#d62e21"/><stop offset="1" stop-color="#cc2417"/></linearGradient><linearGradient id="linear-gradient-3" x1="395.78" y1="391.38" x2="395.78" y2="326.44" xlink:href="#linear-gradient-2"/><linearGradient id="linear-gradient-4" x1="100.5" y1="391.38" x2="100.5" y2="326.44" xlink:href="#linear-gradient-2"/><linearGradient id="linear-gradient-5" x1="62.91" y1="190.38" x2="437.09" y2="190.38" gradientUnits="userSpaceOnUse"><stop offset="0.23" stop-color="#ffe6dc"/><stop offset="0.34" stop-color="#f5dcdb"/><stop offset="0.54" stop-color="#d9c0d8"/><stop offset="0.79" stop-color="#ab94d3"/><stop offset="0.99" stop-color="#826ccf"/></linearGradient><linearGradient id="linear-gradient-6" x1="62.91" y1="348.34" x2="437.09" y2="348.34" gradientUnits="userSpaceOnUse"><stop offset="0" stop-color="#8365bf"/><stop offset="1" stop-color="#61379d"/></linearGradient><linearGradient id="linear-gradient-7" x1="246.28" y1="84.92" x2="246.28" y2="15" xlink:href="#linear-gradient-6"/><linearGradient id="linear-gradient-8" x1="219.58" y1="190.4" x2="437.09" y2="190.4" gradientUnits="userSpaceOnUse"><stop offset="0" stop-color="#fff"/><stop offset="0.16" stop-color="#edeafa"/><stop offset="0.54" stop-color="#c5bcef"/><stop offset="0.83" stop-color="#ada0e8"/><stop offset="1" stop-color="#a496e5"/></linearGradient><linearGradient id="linear-gradient-9" x1="245.14" y1="325.32" x2="245.14" y2="131.82" gradientUnits="userSpaceOnUse"><stop offset="0.3" stop-color="#b98fbd"/><stop offset="1" stop-color="#8365bf"/></linearGradient><linearGradient id="linear-gradient-10" x1="245.14" y1="320.42" x2="245.14" y2="136.72" xlink:href="#linear-gradient-6"/><linearGradient id="linear-gradient-11" x1="245.14" y1="295.93" x2="245.14" y2="161.22" gradientUnits="userSpaceOnUse"><stop offset="0.01" stop-color="#ff871a"/><stop offset="0.18" stop-color="#ff911c"/><stop offset="0.47" stop-color="#ffad22"/><stop offset="0.85" stop-color="#ffdb2b"/><stop offset="0.99" stop-color="#ffee2f"/></linearGradient><linearGradient id="linear-gradient-12" x1="245.14" y1="249.98" x2="245.14" y2="161.22" gradientUnits="userSpaceOnUse"><stop offset="0" stop-color="#fff"/><stop offset="0.18" stop-color="#ffded4"/><stop offset="0.46" stop-color="#ffae95"/><stop offset="0.7" stop-color="#ff8b68"/><stop offset="0.89" stop-color="#ff754b"/><stop offset="0.99" stop-color="#ff6d41"/></linearGradient></defs><title>ships</title><g class="cls-1"><g id="Layer_1" data-name="Layer 1"><path class="cls-2" d="M64.74,344.31S98,485,248,485C421.62,485,435.9,336.56,435.9,336.56L258,194.56Z"/><path class="cls-3" d="M124.08,340.39s17.56,84.62,129.39,84c109.72-.65,127-95.53,127-95.53L254.65,173.9Z"/><path class="cls-4" d="M282.27,352.06s-1.45,4.54-3.82,11.15q-1.7,4.8-4,10.53c-6.82,16.83-17,37.39-26.54,36.87-8.16-.52-17.25-20.35-23.34-36.46-1.34-3.82-2.68-7.33-3.72-10.43-2-5.89-3.1-9.91-3.1-9.91Z"/><path class="cls-5" d="M427,326.44s-.41,6.3-1.45,15c-.52,3.41-1,7.33-1.65,11.26C421,370,415.81,389.86,407,391.3c-7.75,1.34-20.45-14.46-30-28.4-2.27-3.41-4.44-6.61-6.2-9.5-3.82-6.09-6.3-10.33-6.3-10.33Z"/><path class="cls-6" d="M131.69,343.07s-3.1,5.47-7.75,12.7c-1.86,2.89-3.92,6-6.2,9.19-9.29,13.32-21.17,27.57-28.5,26.34-8.06-1.34-13.12-18.18-16.11-34.39q-.93-5.27-1.55-10.22c-1.65-11.26-2.27-20.24-2.27-20.24Z"/><path class="cls-7" d="M437.09,341c-69.4,19.52-138.39,25.3-197.88,24.68-6.71,0-13.22-.21-19.62-.31A862.63,862.63,0,0,1,98,352.88c-22.31-4-35.11-7.33-35.11-7.33C87.39,230.09,139.44,139,181.27,80.33a661.12,661.12,0,0,1,46.27-58A21.33,21.33,0,0,1,241,15.16a18.79,18.79,0,0,1,3.41-.1,21.84,21.84,0,0,1,15,6.3A557.78,557.78,0,0,1,311.3,80C407,203.75,437.09,341,437.09,341Z"/><path class="cls-8" d="M434.58,330.89C262,379.12,92.22,342.61,65.06,336.17c-.71,3.13-1.48,6.21-2.15,9.38,0,0,185.59,48.44,374.18-4.54C437.09,341,436.29,337.39,434.58,330.89Z"/><path class="cls-9" d="M123.95,355.77c-1.86,2.89-3.92,6-6.2,9.19-19.62-3-34.91-6-44.62-8.06q-.93-5.27-1.55-10.22C82.53,349.06,100.5,352.57,123.95,355.77Z"/><path class="cls-9" d="M278.45,363.21q-1.7,4.8-4,10.53c-17.25.72-33.87.72-49.88.41-1.34-3.82-2.68-7.33-3.72-10.43C239.1,364.24,258.42,364.14,278.45,363.21Z"/><path class="cls-9" d="M425.52,341.42c-.52,3.41-1,7.33-1.65,11.26q-23.55,6-46.79,10.22c-2.27-3.41-4.44-6.61-6.2-9.5C389,350.3,407.24,346.38,425.52,341.42Z"/><path class="cls-10" d="M311.3,80c-49.06,8.37-99.35,4.34-130,.31a661.12,661.12,0,0,1,46.27-58,22,22,0,0,1,31.81-.93A557.78,557.78,0,0,1,311.3,80Z"/><path class="cls-11" d="M239.21,365.69A851.63,851.63,0,0,1,98,352.88c-.1,0-2.48-2.58-2.48-2.58C91,231.84,212.35,55,241,15.16a19.94,19.94,0,0,1,3.51-.1C210.91,129.39,230.43,303.31,239.21,365.69Z"/><path class="cls-12" d="M437.09,341c-16.94,4.75-34,8.68-50.71,11.88C334.53,363,284.13,366.21,239.21,365.69c-6.71,0-13.22-.21-19.62-.31a2.58,2.58,0,0,1,.72-.41C428.93,262.2,279.49,58.23,244.47,15.06a21.79,21.79,0,0,1,14.87,6.3A557.78,557.78,0,0,1,311.3,80a660.77,660.77,0,0,1,54.22,82.52C418.91,257.76,437.09,341,437.09,341Z"/><circle class="cls-13" cx="254.94" cy="244.08" r="96.75"/><circle class="cls-14" cx="245.14" cy="228.57" r="96.75"/><circle class="cls-15" cx="245.14" cy="228.57" r="91.85"/><circle class="cls-16" cx="245.14" cy="228.57" r="67.36"/><path class="cls-17" d="M246.77,198.77a67.14,67.14,0,0,1,63.56,45.95A67.37,67.37,0,1,0,181.58,250,67.23,67.23,0,0,1,246.77,198.77Z"/><ellipse class="cls-18" cx="210.94" cy="271.77" rx="7.04" ry="16.42" transform="translate(-133.09 270.61) rotate(-51.99)"/><path class="cls-19" d="M386.38,352.88c36.35-38.32,12.5-118.77-20.86-190.34C418.91,257.76,437.09,341,437.09,341,420.15,345.76,403.11,349.68,386.38,352.88Z"/><ellipse class="cls-18" cx="301.52" cy="242.71" rx="8.96" ry="4.07" transform="translate(7.09 493.98) rotate(-79.31)"/></g></g></svg>