<svg xmlns="http://www.w3.org/2000/svg" xmlns:xlink="http://www.w3.org/1999/xlink" viewBox="0 0 500 500"><defs><style>.cls-1{isolation:isolate;}.cls-2,.cls-9{opacity:0.85;}.cls-2,.cls-22,.cls-24{mix-blend-mode:color-dodge;}.cls-2{fill:url(#radial-gradient);}.cls-3{fill:url(#linear-gradient);}.cls-4{fill:url(#linear-gradient-2);}.cls-10,.cls-5,.cls-7,.cls-8,.cls-9{fill:#fff;}.cls-22,.cls-5{opacity:0.35;}.cls-5,.cls-7,.cls-8,.cls-9{mix-blend-mode:overlay;}.cls-6{mix-blend-mode:color-burn;fill:url(#linear-gradient-3);}.cls-7{opacity:0.25;}.cls-13,.cls-24,.cls-8{opacity:0.5;}.cls-11{fill:url(#linear-gradient-4);}.cls-12,.cls-15,.cls-17,.cls-19,.cls-21{mix-blend-mode:multiply;}.cls-12{fill:url(#linear-gradient-5);}.cls-14{fill:#2c2660;}.cls-15{fill:url(#linear-gradient-6);}.cls-16{fill:url(#linear-gradient-7);}.cls-17{fill:url(#linear-gradient-8);}.cls-18{fill:url(#linear-gradient-9);}.cls-19{fill:url(#linear-gradient-10);}.cls-20{fill:url(#linear-gradient-11);}.cls-21{fill:url(#linear-gradient-12);}.cls-22{fill:url(#radial-gradient-2);}.cls-23{fill:url(#linear-gradient-13);}.cls-24{fill:url(#radial-gradient-3);}.cls-25{fill:url(#linear-gradient-14);}</style><radialGradient id="radial-gradient" cx="249.07" cy="306.72" r="94.14" gradientUnits="userSpaceOnUse"><stop offset="0" stop-color="#fff"/><stop offset="0.18" stop-color="#fcfcfc"/><stop offset="0.31" stop-color="#f3f3f3"/><stop offset="0.43" stop-color="#e2e2e2"/><stop offset="0.54" stop-color="#ccc"/><stop offset="0.64" stop-color="#afafaf"/><stop offset="0.74" stop-color="#8b8b8b"/><stop offset="0.83" stop-color="#606060"/><stop offset="0.92" stop-color="#303030"/><stop offset="1"/></radialGradient><linearGradient id="linear-gradient" x1="250.19" y1="354.5" x2="250.19" y2="213" gradientUnits="userSpaceOnUse"><stop offset="0" stop-color="#55fbff"/><stop offset="0.28" stop-color="#52f8fe"/><stop offset="0.49" stop-color="#48eef9"/><stop offset="0.68" stop-color="#38def2"/><stop offset="0.85" stop-color="#21c7e8"/><stop offset="0.99" stop-color="#0ab0dd"/></linearGradient><linearGradient id="linear-gradient-2" x1="126.21" y1="76.66" x2="648.86" y2="76.66" gradientUnits="userSpaceOnUse"><stop offset="0" stop-color="#55fbff"/><stop offset="0.34" stop-color="#3dcff3"/><stop offset="0.99" stop-color="#0b73db"/></linearGradient><linearGradient id="linear-gradient-3" x1="126.21" y1="84.84" x2="648.86" y2="84.84" gradientUnits="userSpaceOnUse"><stop offset="0" stop-color="#fff"/><stop offset="0.15" stop-color="#dfdfe5"/><stop offset="0.47" stop-color="#8f8ca2"/><stop offset="0.95" stop-color="#0f0939"/><stop offset="0.98" stop-color="#060032"/></linearGradient><linearGradient id="linear-gradient-4" x1="130.64" y1="230.5" x2="369.36" y2="230.5" gradientUnits="userSpaceOnUse"><stop offset="0.23" stop-color="#ffe6dc"/><stop offset="0.34" stop-color="#f5dcdb"/><stop offset="0.54" stop-color="#d9c0d8"/><stop offset="0.79" stop-color="#ab94d3"/><stop offset="0.99" stop-color="#826ccf"/></linearGradient><linearGradient id="linear-gradient-5" x1="130.64" y1="230" x2="369.36" y2="230" gradientUnits="userSpaceOnUse"><stop offset="0" stop-color="#fff"/><stop offset="0.16" stop-color="#edeafa"/><stop offset="0.54" stop-color="#c5bcef"/><stop offset="0.83" stop-color="#ada0e8"/><stop offset="1" stop-color="#a496e5"/></linearGradient><linearGradient id="linear-gradient-6" x1="138.87" y1="270.21" x2="239.51" y2="270.21" xlink:href="#linear-gradient-5"/><linearGradient id="linear-gradient-7" x1="76.44" y1="344.22" x2="189.07" y2="344.22" gradientUnits="userSpaceOnUse"><stop offset="0.01" stop-color="#ff871a"/><stop offset="0.27" stop-color="#fe7d21"/><stop offset="0.73" stop-color="#fb6134"/><stop offset="0.99" stop-color="#f94e41"/></linearGradient><linearGradient id="linear-gradient-8" x1="118.64" y1="353.55" x2="189.07" y2="353.55" gradientUnits="userSpaceOnUse"><stop offset="0.01" stop-color="#ffa84b"/><stop offset="0.12" stop-color="#ffad55"/><stop offset="0.31" stop-color="#ffbb72"/><stop offset="0.56" stop-color="#ffd19f"/><stop offset="0.85" stop-color="#ffefde"/><stop offset="1" stop-color="#fff"/></linearGradient><linearGradient id="linear-gradient-9" x1="-1797.71" y1="344.22" x2="-1685.08" y2="344.22" gradientTransform="matrix(-1, 0, 0, 1, -1374.15, 0)" xlink:href="#linear-gradient-7"/><linearGradient id="linear-gradient-10" x1="-1755.51" y1="353.55" x2="-1685.08" y2="353.55" gradientTransform="matrix(-1, 0, 0, 1, -1374.15, 0)" xlink:href="#linear-gradient-8"/><linearGradient id="linear-gradient-11" x1="114.49" y1="121.55" x2="385.51" y2="121.55" gradientUnits="userSpaceOnUse"><stop offset="0" stop-color="#826ccf"/><stop offset="0.02" stop-color="#9a84d2"/><stop offset="0.05" stop-color="#bea7d5"/><stop offset="0.08" stop-color="#dbc3d8"/><stop offset="0.12" stop-color="#efd6da"/><stop offset="0.15" stop-color="#fbe2dc"/><stop offset="0.18" stop-color="#ffe6dc"/><stop offset="0.3" stop-color="#f5dcdb"/><stop offset="0.51" stop-color="#d9c0d8"/><stop offset="0.78" stop-color="#ab94d3"/><stop offset="0.99" stop-color="#826ccf"/></linearGradient><linearGradient id="linear-gradient-12" x1="297.17" y1="121.52" x2="372.74" y2="121.52" xlink:href="#linear-gradient-5"/><radialGradient id="radial-gradient-2" cx="160.77" cy="170.25" r="19.54" gradientUnits="userSpaceOnUse"><stop offset="0" stop-color="#55fbff"/><stop offset="1"/></radialGradient><linearGradient id="linear-gradient-13" x1="154.61" y1="169.71" x2="166.92" y2="169.71" gradientUnits="userSpaceOnUse"><stop offset="0" stop-color="#55fbff"/><stop offset="0.23" stop-color="#53f8fe"/><stop offset="0.4" stop-color="#4eeffc"/><stop offset="0.55" stop-color="#46dff8"/><stop offset="0.68" stop-color="#3ac9f2"/><stop offset="0.81" stop-color="#2aacea"/><stop offset="0.92" stop-color="#178ae1"/><stop offset="0.99" stop-color="#0b73db"/></linearGradient><radialGradient id="radial-gradient-3" cx="336.63" cy="170.25" r="19.54" gradientUnits="userSpaceOnUse"><stop offset="0" stop-color="#55fbff"/><stop offset="0.08" stop-color="#4de4e7"/><stop offset="0.42" stop-color="#2d8486"/><stop offset="0.7" stop-color="#153d3e"/><stop offset="0.9" stop-color="#061111"/><stop offset="1"/></radialGradient><linearGradient id="linear-gradient-14" x1="331.44" y1="169.71" x2="343.75" y2="169.71" xlink:href="#linear-gradient-13"/></defs><title>ships</title><g class="cls-1"><g id="Layer_1" data-name="Layer 1"><path class="cls-2" d="M144.23,309.28S163,388.76,247.75,388.76c98.1,0,106.17-83.86,106.17-83.86l-100.5-80.23Z"/><path class="cls-3" d="M177.75,307.06s9.92,47.81,73.1,47.44c62-.36,71.78-54,71.78-54L251.52,213Z"/><path class="cls-4" d="M373.79,110.54c-31.94,21-77.37,27.58-121.67,27.72,0,.07-4.17.07-4.17.07-34.25-.21-69.25-4.11-98.14-15.67a126.67,126.67,0,0,1-23.6-12.11,55.6,55.6,0,0,1,1-6.71,102,102,0,0,1,3.72-13.62C140.28,63.73,167.76,20.13,248,15.27V15c.67,0,1.34.07,2.08.14a19.87,19.87,0,0,1,2.08-.14v.27c27.1,1.64,48.18,7.73,64.63,16.08C370.52,58.66,373.79,110.54,373.79,110.54Z"/><path class="cls-5" d="M349.79,109.44c-26.39,18.91-63.91,24.83-100.51,24.95,0,.06-3.45.06-3.45.06-36.6-.18-74.19-6.1-100.58-25a54.31,54.31,0,0,1,.8-6c3.38-18.67,20.05-74.48,99.78-79.71v-.25c.55,0,1.11.06,1.72.12a15,15,0,0,1,1.72-.12v.25c22.39,1.48,39.8,7,53.39,14.48C347.08,62.74,349.79,109.44,349.79,109.44Z"/><path class="cls-6" d="M373.79,110.54c-31.94,21-77.37,27.58-121.67,27.72,0,.07-4.17.07-4.17.07-44.23-.21-89.58-6.78-121.52-27.65-.07-.07-.15-.07-.22-.14a55.6,55.6,0,0,1,1-6.71C247,113.42,296.65,64.69,316.76,31.36a105,105,0,0,1,40.81,35.72C372.45,89.46,373.79,110.54,373.79,110.54Z"/><path class="cls-7" d="M166.63,58.07c-3.62,8.93-2,19.83,5.72,26.41,7.18,6.15,18,7.58,28,7.3a104.39,104.39,0,0,0,49.77-14.16c10.73-6.35,20.72-16.48,19-27.76-2.81-18.15-33-26.44-50.82-24C198.86,28.46,173.52,41,166.63,58.07Z"/><path class="cls-8" d="M175.92,57c-2.5,6.19-1.37,13.73,4,18.28,5,4.25,12.46,5.25,19.39,5.05a72.27,72.27,0,0,0,34.46-9.81c7.43-4.4,14.35-11.41,13.14-19.22C244.91,38.77,224,33,211.68,34.7,198.23,36.53,180.69,45.24,175.92,57Z"/><path class="cls-9" d="M373.79,110.54c-31.94,21-77.37,27.58-121.67,27.72,0,.07-4.17.07-4.17.07-44.23-.21-89.58-6.78-121.52-27.65,9.38-.48,24.72-.14,47.28,1.16,134.93,7.8,173.42-22.65,183.85-44.76C372.45,89.46,373.79,110.54,373.79,110.54Z"/><path class="cls-10" d="M222.82,39.12c2.91,4.64-.74,11.59-8.16,15.53s-15.8,3.37-18.71-1.27.74-11.59,8.16-15.53S219.9,34.49,222.82,39.12Z"/><path class="cls-10" d="M242.35,64.07c1,2.71-1.71,6-6,7.34s-8.65.24-9.64-2.47,1.71-6,6-7.34S241.36,61.36,242.35,64.07Z"/><polygon class="cls-11" points="369.36 124.78 356.37 334.9 305.09 335.21 280.1 335.36 278.18 335.36 239.5 335.59 221.82 335.75 219.9 335.75 148.25 336.21 138.87 223.27 132.56 148.08 130.64 124.78 369.36 124.78"/><path class="cls-12" d="M369.36,124.78l-13,210.12-51.28.31C319.23,175.37,174,151.61,132.56,148.08l-1.92-23.3Z"/><g class="cls-13"><path class="cls-14" d="M221.82,335.75H219.9c2.38-105.48-22.37-177.06-37.75-211h2.08C199.68,159.23,224.21,230.8,221.82,335.75Z"/></g><g class="cls-13"><path class="cls-14" d="M280.1,335.36h-1.92c-2.31-104.71,22.14-176.21,37.67-210.58H318C302.63,158.61,277.79,230,280.1,335.36Z"/></g><path class="cls-15" d="M239.51,335.59l-17.68.15H219.9l-71.65.46-9.38-112.94.08-19.07S215.52,216,239.51,335.59Z"/><path class="cls-16" d="M189.07,325.52A29.16,29.16,0,0,1,184,342.13c-12.22,18.3-43.21,69.89-52,134a12.25,12.25,0,0,1-.69,2.54,9.15,9.15,0,0,1-2.61,3.61,10.39,10.39,0,0,1-16.22-2.84c-28.75-54-72.5-175.68,19.45-272.7a10.79,10.79,0,0,1,11.76-2.54,35.36,35.36,0,0,1,7,3.77c5.69,3.69,12.38,10,18.53,20.45C179.61,246.18,188.53,275.78,189.07,325.52Z"/><path class="cls-7" d="M98.73,337.44c1.92,55,16,110.86,29.91,144.85a10.39,10.39,0,0,1-16.22-2.84c-28.75-54-72.5-175.68,19.45-272.7a10.79,10.79,0,0,1,11.76-2.54,35.36,35.36,0,0,1,7,3.77C132.87,230.57,96.81,283.31,98.73,337.44Z"/><path class="cls-17" d="M189.07,325.52A29.16,29.16,0,0,1,184,342.13c-12.22,18.3-43.21,69.89-52,134a12.25,12.25,0,0,1-.69,2.54C94.5,358.43,147.63,261.1,169.16,228.42,179.61,246.18,188.53,275.78,189.07,325.52Z"/><path class="cls-18" d="M310.93,325.52A29.15,29.15,0,0,0,316,342.13c12.22,18.3,43.21,69.89,52,134a12.23,12.23,0,0,0,.69,2.54,9.15,9.15,0,0,0,2.61,3.61,10.39,10.39,0,0,0,16.22-2.84c28.75-54,72.5-175.68-19.45-272.7a10.79,10.79,0,0,0-11.76-2.54,35.36,35.36,0,0,0-7,3.77c-5.69,3.69-12.38,10-18.53,20.45C320.39,246.18,311.47,275.78,310.93,325.52Z"/><path class="cls-7" d="M401.27,337.44c-1.92,55-16,110.86-29.91,144.85a10.39,10.39,0,0,0,16.22-2.84c28.75-54,72.5-175.68-19.45-272.7a10.79,10.79,0,0,0-11.76-2.54,35.36,35.36,0,0,0-7,3.77C367.13,230.57,403.19,283.31,401.27,337.44Z"/><path class="cls-19" d="M310.93,325.52A29.15,29.15,0,0,0,316,342.13c12.22,18.3,43.21,69.89,52,134a12.23,12.23,0,0,0,.69,2.54c36.75-120.24-16.38-217.58-37.9-250.25C320.39,246.18,311.47,275.78,310.93,325.52Z"/><polygon class="cls-20" points="385.5 106.18 376.89 136.93 365.52 136.85 301.86 136.62 255.11 136.47 138.71 136.01 124.11 135.93 114.5 106.18 385.5 106.18"/><polygon class="cls-7" points="256.11 106.18 255.11 136.47 222.05 136.31 159.78 136.08 138.71 136.01 135.25 106.18 256.11 106.18"/><polygon class="cls-9" points="223.67 106.18 222.05 136.31 159.78 136.08 157.16 106.18 223.67 106.18"/><path class="cls-21" d="M372.74,106.18c-2.23,9.61-4.84,20.76-7.23,30.68l-63.66-.23-4.69-30.45Z"/><circle class="cls-22" cx="160.77" cy="170.25" r="19.54"/><path class="cls-23" d="M160.77,181.76a6.16,6.16,0,0,1-6.16-6.16V163.82a6.16,6.16,0,0,1,12.31,0V175.6A6.16,6.16,0,0,1,160.77,181.76Z"/><circle class="cls-24" cx="336.63" cy="170.25" r="19.54"/><path class="cls-25" d="M337.59,181.76a6.16,6.16,0,0,1-6.16-6.16V163.82a6.16,6.16,0,0,1,12.31,0V175.6A6.16,6.16,0,0,1,337.59,181.76Z"/></g></g></svg>