<svg xmlns="http://www.w3.org/2000/svg" xmlns:xlink="http://www.w3.org/1999/xlink" viewBox="0 0 500 500"><defs><style>.cls-1{isolation:isolate;}.cls-2{mix-blend-mode:color-dodge;fill:url(#radial-gradient);}.cls-3{fill:url(#linear-gradient);}.cls-4{fill:#e1ffff;}.cls-19,.cls-21,.cls-4{mix-blend-mode:overlay;}.cls-5{fill:url(#linear-gradient-2);}.cls-6{fill:#9185e7;}.cls-21,.cls-6{opacity:0.5;}.cls-11,.cls-17,.cls-22,.cls-24,.cls-25,.cls-6{mix-blend-mode:multiply;}.cls-7{fill:url(#linear-gradient-3);}.cls-8{fill:#ffc82c;}.cls-9{fill:url(#linear-gradient-4);}.cls-10{fill:url(#radial-gradient-2);}.cls-12{fill:url(#linear-gradient-5);}.cls-13{fill:url(#linear-gradient-6);}.cls-14{fill:url(#linear-gradient-7);}.cls-15{fill:url(#linear-gradient-8);}.cls-16{fill:url(#linear-gradient-9);}.cls-17{fill:url(#linear-gradient-10);}.cls-18{fill:url(#linear-gradient-11);}.cls-19,.cls-21,.cls-23{fill:#fff;}.cls-19{opacity:0.25;}.cls-20{fill:url(#linear-gradient-12);}.cls-22{fill:url(#linear-gradient-13);}.cls-24{fill:#9d99b5;}.cls-25{fill:url(#linear-gradient-14);}</style><radialGradient id="radial-gradient" cx="348.28" cy="317.16" r="51.45" gradientTransform="translate(-182.13 -25.57) scale(1.26 1.26)" gradientUnits="userSpaceOnUse"><stop offset="0" stop-color="#fff"/><stop offset="0.08" stop-color="#f6f6f6"/><stop offset="0.22" stop-color="#ddd"/><stop offset="0.31" stop-color="#cacaca"/><stop offset="0.4" stop-color="#b6b6b6"/><stop offset="0.59" stop-color="#828282"/><stop offset="0.86" stop-color="#2f2f2f"/><stop offset="1"/></radialGradient><linearGradient id="linear-gradient" x1="257.53" y1="401.67" x2="257.53" y2="332.29" gradientUnits="userSpaceOnUse"><stop offset="0" stop-color="#55fbff"/><stop offset="0.28" stop-color="#52f8fe"/><stop offset="0.49" stop-color="#48eef9"/><stop offset="0.68" stop-color="#38def2"/><stop offset="0.85" stop-color="#21c7e8"/><stop offset="0.99" stop-color="#0ab0dd"/></linearGradient><linearGradient id="linear-gradient-2" x1="195.49" y1="316.12" x2="321.71" y2="316.12" gradientTransform="translate(-0.81 -0.14) rotate(0.13)" gradientUnits="userSpaceOnUse"><stop offset="0.01" stop-color="#f94e41"/><stop offset="0.12" stop-color="#f2483b"/><stop offset="0.68" stop-color="#d62e21"/><stop offset="1" stop-color="#cc2417"/></linearGradient><linearGradient id="linear-gradient-3" x1="55.53" y1="310.01" x2="143.64" y2="310.01" gradientUnits="userSpaceOnUse"><stop offset="0.01" stop-color="#ff871a"/><stop offset="0.27" stop-color="#fe7d21"/><stop offset="0.73" stop-color="#fb6134"/><stop offset="0.99" stop-color="#f94e41"/></linearGradient><linearGradient id="linear-gradient-4" x1="-73.74" y1="310.01" x2="14.37" y2="310.01" gradientTransform="matrix(-1, 0, 0, 1, 370.73, 0)" xlink:href="#linear-gradient-3"/><radialGradient id="radial-gradient-2" cx="198.46" cy="117.24" r="217.44" gradientUnits="userSpaceOnUse"><stop offset="0" stop-color="#ffe6dc"/><stop offset="0.16" stop-color="#f5dddd"/><stop offset="0.44" stop-color="#d9c4e0"/><stop offset="0.81" stop-color="#ab9ce4"/><stop offset="0.99" stop-color="#9185e7"/></radialGradient><linearGradient id="linear-gradient-5" x1="249.92" y1="220.19" x2="256.6" y2="220.19" gradientUnits="userSpaceOnUse"><stop offset="0" stop-color="#fff"/><stop offset="0.16" stop-color="#edeafa"/><stop offset="0.54" stop-color="#c5bcef"/><stop offset="0.83" stop-color="#ada0e8"/><stop offset="1" stop-color="#a496e5"/></linearGradient><linearGradient id="linear-gradient-6" x1="101.99" y1="135.31" x2="196.35" y2="135.31" xlink:href="#linear-gradient-5"/><linearGradient id="linear-gradient-7" x1="315.65" y1="118.5" x2="397.44" y2="118.5" xlink:href="#linear-gradient-5"/><linearGradient id="linear-gradient-8" x1="136.47" y1="132.13" x2="363.39" y2="132.13" xlink:href="#linear-gradient-5"/><linearGradient id="linear-gradient-9" x1="248.27" y1="197.8" x2="248.27" y2="18.26" gradientUnits="userSpaceOnUse"><stop offset="0.01" stop-color="#826ccf"/><stop offset="0.21" stop-color="#ab94d3"/><stop offset="0.46" stop-color="#d9c0d8"/><stop offset="0.66" stop-color="#f5dcdb"/><stop offset="0.77" stop-color="#ffe6dc"/></linearGradient><linearGradient id="linear-gradient-10" x1="175.96" y1="113.02" x2="355.5" y2="113.02" xlink:href="#linear-gradient-5"/><linearGradient id="linear-gradient-11" x1="248.27" y1="193.64" x2="248.27" y2="22.41" gradientUnits="userSpaceOnUse"><stop offset="0" stop-color="#ffe6dc"/><stop offset="0.07" stop-color="#f3dadb"/><stop offset="0.37" stop-color="#c3abd6"/><stop offset="0.64" stop-color="#9f89d2"/><stop offset="0.85" stop-color="#8a74d0"/><stop offset="0.99" stop-color="#826ccf"/></linearGradient><linearGradient id="linear-gradient-12" x1="248.27" y1="178.27" x2="248.27" y2="37.79" gradientUnits="userSpaceOnUse"><stop offset="0.01" stop-color="#ffee2f"/><stop offset="0.15" stop-color="#ffdb2b"/><stop offset="0.53" stop-color="#ffad22"/><stop offset="0.82" stop-color="#ff911c"/><stop offset="0.99" stop-color="#ff871a"/></linearGradient><linearGradient id="linear-gradient-13" x1="248.27" y1="129.23" x2="248.27" y2="37.79" gradientUnits="userSpaceOnUse"><stop offset="0" stop-color="#fff"/><stop offset="0.15" stop-color="#ffefde"/><stop offset="0.44" stop-color="#ffd19f"/><stop offset="0.69" stop-color="#ffbb72"/><stop offset="0.88" stop-color="#ffad55"/><stop offset="0.99" stop-color="#ffa84b"/></linearGradient><linearGradient id="linear-gradient-14" x1="252.34" y1="360.72" x2="268.62" y2="360.72" xlink:href="#linear-gradient-13"/></defs><title>ships</title><g class="cls-1"><g id="Layer_1" data-name="Layer 1"><path class="cls-2" d="M198.29,343.85s-9.51,48.73-3.46,68.8l23.34-22.93,39.77,67.84,38-65.93,24.21,22.93s8.65-32.49-9.51-69.75S198.29,343.85,198.29,343.85Z"/><path class="cls-3" d="M220.56,340.78s-5.94,26.09-2.16,36.84L233,365.34l24.82,36.33,23.74-35.3,15.11,12.28s5.4-17.4-5.94-37.35S220.56,340.78,220.56,340.78Z"/><path class="cls-4" d="M229.05,338.87s-4.4,19.34-1.6,27.3l10.8-9.1L256.64,384l17.6-26.16,11.2,9.1s4-12.89-4.4-27.68S229.05,338.87,229.05,338.87Z"/><path class="cls-5" d="M320.1,346.13a115.84,115.84,0,0,1-20.74,7c-49.09,12.36-105.49-1.59-105.49-1.59L200.43,312l5-36L307.63,275Z"/><path class="cls-6" d="M320.1,346.13a115.84,115.84,0,0,1-20.74,7c-30.48-19.62-82-36-98.93-41.12l5-36L307.63,275Z"/><path class="cls-7" d="M143.64,271.41l-18.85,58.15L81.4,463.32S15.17,304.43,94.66,179.85a221,221,0,0,1,16.66-23.14Z"/><path class="cls-8" d="M115.39,171.22l-4.12-14.57C6.54,283.83,81.35,463.37,81.35,463.37l.13-.41C69.62,421.73,36.85,278.57,115.39,171.22Z"/><path class="cls-6" d="M143.64,271.41l-18.85,58.15c-1.5-51.67-21.54-122-30.12-149.72a221,221,0,0,1,16.66-23.14Z"/><path class="cls-9" d="M356.36,271.41l18.85,58.15L418.6,463.32s66.23-158.89-13.27-283.48a221,221,0,0,0-16.66-23.14Z"/><path class="cls-8" d="M384.61,171.22l4.12-14.57c104.73,127.18,29.92,306.72,29.92,306.72l-.13-.41C430.38,421.73,463.15,278.57,384.61,171.22Z"/><path class="cls-6" d="M356.36,271.41l18.85,58.15c1.5-51.67,21.54-122,30.12-149.72a221,221,0,0,0-16.66-23.14Z"/><path class="cls-10" d="M398.37,167.11c0,58.35-32,109-79.1,134.46a143,143,0,0,1-58.65,17.16c-1.3.2-2.69.2-4,.3a21.69,21.69,0,0,1-2.49.1c-1.4.1-2.79.1-4.19.1a144.6,144.6,0,0,1-77.2-22.34A151.63,151.63,0,0,1,113,225.66a155.64,155.64,0,0,1-10.37-41c-.3-2.39-.5-4.79-.6-7.28-.3-3.39-.4-6.78-.4-10.27C101.63,83,168.06,15,250,15c74.31,0,135.85,55.86,146.73,128.87.3,2.49.6,4.79.8,7.18A143.06,143.06,0,0,1,398.37,167.11Z"/><g class="cls-11"><path class="cls-12" d="M256.6,319a21.7,21.7,0,0,1-2.49.1l-4.19-197.7,2.49-.1Z"/></g><g class="cls-11"><path class="cls-13" d="M196.35,86v2.49c-.8,0-70,1.3-93.76,96.16-.3-2.39-.5-4.79-.6-7.28C127.63,87.18,195.56,86,196.35,86Z"/></g><g class="cls-11"><path class="cls-14" d="M397.44,151c-29.33-61.54-81.19-62.54-81.79-62.54V86c.6,0,50.57.9,81,57.85C396.94,146.33,397.24,148.63,397.44,151Z"/></g><g class="cls-11"><path class="cls-15" d="M249.93,248.42c-62.56,0-113.46-52.17-113.46-116.29S187.37,15.84,249.93,15.84,363.39,68,363.39,132.13,312.49,248.42,249.93,248.42Zm0-230.09c-61.19,0-111,51.05-111,113.8s49.78,113.8,111,113.8,111-51.05,111-113.8S311.12,18.34,249.93,18.34Z"/></g><circle class="cls-16" cx="248.27" cy="108.03" r="89.77"/><circle class="cls-17" cx="265.73" cy="113.02" r="89.77"/><circle class="cls-18" cx="248.27" cy="108.03" r="85.61"/><path class="cls-19" d="M172.75,296.88A151.63,151.63,0,0,1,113,225.66c14.06-82.89,62.94-90.17,62.94-90.17l22.44,34.91C163.17,196.24,165.86,256,172.75,296.88Z"/><circle class="cls-20" cx="248.27" cy="108.03" r="70.24"/><path class="cls-21" d="M248.27,171.62A70.18,70.18,0,0,1,178.2,104.7c-.05,1.11-.17,2.2-.17,3.33a70.24,70.24,0,1,0,140.47,0c0-1.12-.12-2.22-.17-3.33A70.18,70.18,0,0,1,248.27,171.62Z"/><path class="cls-22" d="M248.27,80.18a70.26,70.26,0,0,1,67,49,70.24,70.24,0,1,0-133.93,0A70.26,70.26,0,0,1,248.27,80.18Z"/><ellipse class="cls-23" cx="224.58" cy="142.94" rx="10.81" ry="17.04" transform="translate(-11.5 265.96) rotate(-60)"/><ellipse class="cls-23" cx="203.8" cy="119.67" rx="4.49" ry="7.09" transform="translate(-1.73 236.33) rotate(-60)"/><path class="cls-24" d="M319.27,301.57a143,143,0,0,1-58.65,17.16L254.34,237Z"/><path class="cls-8" d="M254.34,483.3V485s-.1-1.4-.4-4.09l-.1-1.4C250.65,447.1,235,281.82,238.68,248.11c0,0,7.68-8.78,13.67-11.07v-.6c.3.1.7.2,1,.3.3-.1.7-.2,1-.3v.6c6,2.29,13.67,11.07,13.67,11.07C272.09,285.51,254.34,483.3,254.34,483.3Z"/><path class="cls-25" d="M254.34,483.3V485s-.1-1.4-.4-4.09l-.1-1.4L252.34,237v-.6c.3.1.7.2,1,.3.3-.1.7-.2,1-.3v.6c6,2.29,13.67,11.07,13.67,11.07C272.09,285.51,254.34,483.3,254.34,483.3Z"/></g></g></svg>