<svg xmlns="http://www.w3.org/2000/svg" xmlns:xlink="http://www.w3.org/1999/xlink" viewBox="0 0 500 500"><defs><style>.cls-1{isolation:isolate;}.cls-2{fill:url(#linear-gradient);}.cls-3{fill:#ff7c76;}.cls-4{fill:#9185e7;}.cls-10,.cls-4{opacity:0.5;}.cls-15,.cls-16,.cls-17,.cls-4{mix-blend-mode:multiply;}.cls-5{fill:url(#linear-gradient-2);}.cls-6{fill:url(#linear-gradient-3);}.cls-10,.cls-11,.cls-12,.cls-7,.cls-9{fill:#fff;}.cls-7{opacity:0.35;}.cls-10,.cls-11,.cls-7,.cls-9{mix-blend-mode:overlay;}.cls-8{mix-blend-mode:color-burn;fill:url(#linear-gradient-4);}.cls-9{opacity:0.25;}.cls-11{opacity:0.85;}.cls-13{fill:url(#linear-gradient-5);}.cls-14{fill:url(#linear-gradient-6);}.cls-15{fill:#9378c9;}.cls-16{fill:url(#linear-gradient-7);}.cls-17{fill:url(#linear-gradient-8);}.cls-18,.cls-20,.cls-22{opacity:0.55;mix-blend-mode:color-dodge;}.cls-18{fill:url(#radial-gradient);}.cls-19{fill:url(#linear-gradient-9);}.cls-20{fill:url(#radial-gradient-2);}.cls-21{fill:url(#linear-gradient-10);}.cls-22{fill:url(#radial-gradient-3);}.cls-23{fill:url(#linear-gradient-11);}.cls-24{fill:#391160;}.cls-25{fill:url(#linear-gradient-12);}</style><linearGradient id="linear-gradient" x1="74.94" y1="384.18" x2="142.91" y2="384.18" gradientUnits="userSpaceOnUse"><stop offset="0.01" stop-color="#f94e41"/><stop offset="0.12" stop-color="#f2483b"/><stop offset="0.68" stop-color="#d62e21"/><stop offset="1" stop-color="#cc2417"/></linearGradient><linearGradient id="linear-gradient-2" x1="-688.71" y1="384.18" x2="-620.74" y2="384.18" gradientTransform="matrix(-1, 0, 0, 1, -263.65, 0)" xlink:href="#linear-gradient"/><linearGradient id="linear-gradient-3" x1="96.78" y1="123.15" x2="752.21" y2="123.15" gradientUnits="userSpaceOnUse"><stop offset="0" stop-color="#55fbff"/><stop offset="0.34" stop-color="#3dcff3"/><stop offset="0.99" stop-color="#0b73db"/></linearGradient><linearGradient id="linear-gradient-4" x1="96.78" y1="133.18" x2="752.21" y2="133.18" gradientUnits="userSpaceOnUse"><stop offset="0" stop-color="#fff"/><stop offset="0.15" stop-color="#dfdfe5"/><stop offset="0.47" stop-color="#8f8ca2"/><stop offset="0.95" stop-color="#0f0939"/><stop offset="0.98" stop-color="#060032"/></linearGradient><linearGradient id="linear-gradient-5" x1="-8.35" y1="229.02" x2="458.53" y2="283.15" gradientUnits="userSpaceOnUse"><stop offset="0" stop-color="#998ce6"/><stop offset="0.3" stop-color="#ffe6dc"/><stop offset="0.41" stop-color="#f5dddd"/><stop offset="0.61" stop-color="#d9c4e0"/><stop offset="0.86" stop-color="#ab9ce4"/><stop offset="0.99" stop-color="#9185e7"/></linearGradient><linearGradient id="linear-gradient-6" x1="15" y1="315.98" x2="485" y2="315.98" gradientUnits="userSpaceOnUse"><stop offset="0" stop-color="#7a35bc"/><stop offset="0.99" stop-color="#9185e7"/></linearGradient><linearGradient id="linear-gradient-7" x1="383.61" y1="375.93" x2="383.61" y2="273.18" gradientUnits="userSpaceOnUse"><stop offset="0" stop-color="#fff"/><stop offset="0.16" stop-color="#edeafa"/><stop offset="0.54" stop-color="#c5bcef"/><stop offset="0.83" stop-color="#ada0e8"/><stop offset="1" stop-color="#a496e5"/></linearGradient><linearGradient id="linear-gradient-8" x1="146" y1="265.66" x2="485" y2="265.66" xlink:href="#linear-gradient-7"/><radialGradient id="radial-gradient" cx="250.96" cy="257.21" r="3.35" gradientTransform="translate(-1146.65 -1146.65) scale(5.59)" gradientUnits="userSpaceOnUse"><stop offset="0" stop-color="#fff"/><stop offset="1"/></radialGradient><linearGradient id="linear-gradient-9" x1="255.63" y1="281.48" x2="255.63" y2="299.62" gradientUnits="userSpaceOnUse"><stop offset="0" stop-color="#55fbff"/><stop offset="0.23" stop-color="#53f8fe"/><stop offset="0.4" stop-color="#4eeffc"/><stop offset="0.55" stop-color="#46dff8"/><stop offset="0.68" stop-color="#3ac9f2"/><stop offset="0.81" stop-color="#2aacea"/><stop offset="0.92" stop-color="#178ae1"/><stop offset="0.99" stop-color="#0b73db"/></linearGradient><radialGradient id="radial-gradient-2" cx="219.07" cy="254.27" r="3.35" xlink:href="#radial-gradient"/><linearGradient id="linear-gradient-10" x1="77.47" y1="265.07" x2="77.47" y2="283.21" xlink:href="#linear-gradient-9"/><radialGradient id="radial-gradient-3" cx="279.57" cy="254.28" r="3.35" xlink:href="#radial-gradient"/><linearGradient id="linear-gradient-11" x1="415.49" y1="265.12" x2="415.49" y2="283.26" xlink:href="#linear-gradient-9"/><linearGradient id="linear-gradient-12" x1="238.29" y1="395.5" x2="269.75" y2="395.5" xlink:href="#linear-gradient"/></defs><title>ships</title><g class="cls-1"><g id="Layer_1" data-name="Layer 1"><path class="cls-2" d="M142.91,348.49a117,117,0,0,0-30,30.47c-10.26,15.29-18.09,35.89-13.54,60.85a4.22,4.22,0,0,1-7.84,2.81c-11.9-21.38-24.19-55-10.74-88.91,4-10.16,10.35-20.32,19.74-30.19Z"/><path class="cls-3" d="M107,331.59l32.61,19.26c2-1.48,3.26-2.33,3.26-2.33l-42.33-25c-40.67,42.81-24.51,91.31-9,119.08a4.06,4.06,0,0,0,3.34,2.17C80.59,416.38,69.08,371.52,107,331.59Z"/><path class="cls-4" d="M142.91,348.49a117,117,0,0,0-30,30.47c-10.74-11-23.9-20-32.12-25.25,4-10.16,10.35-20.32,19.74-30.19Z"/><path class="cls-5" d="M357.09,348.49a117,117,0,0,1,30,30.47c10.26,15.29,18.09,35.89,13.54,60.85a4.22,4.22,0,0,0,7.84,2.81c11.9-21.38,24.19-55,10.74-88.91-4-10.16-10.35-20.32-19.74-30.19Z"/><path class="cls-3" d="M393,331.59l-32.61,19.26c-2-1.48-3.26-2.33-3.26-2.33l42.33-25c40.67,42.81,24.51,91.31,9,119.08a4.06,4.06,0,0,1-3.34,2.17C419.41,416.38,430.92,371.52,393,331.59Z"/><path class="cls-4" d="M357.09,348.49a117,117,0,0,1,30,30.47c10.74-11,23.9-20,32.12-25.25-4-10.16-10.35-20.32-19.74-30.19Z"/><path class="cls-6" d="M407.27,164.69c-40.06,25.77-97,33.83-152.58,34,0,.08-5.23.08-5.23.08-43-.25-86.84-5-123.07-19.22a160.2,160.2,0,0,1-29.6-14.86A66.83,66.83,0,0,1,98,156.47a122.8,122.8,0,0,1,4.67-16.7c11.76-32.48,46.22-85.95,146.79-91.91v-.34c.84,0,1.68.08,2.61.17a25.57,25.57,0,0,1,2.61-.17v.34c34,2,60.42,9.48,81.05,19.72C403.16,101.07,407.27,164.69,407.27,164.69Z"/><path class="cls-7" d="M377.16,163.34c-33.09,23.19-80.15,30.45-126.05,30.6,0,.08-4.32.08-4.32.08-45.9-.23-93-7.48-126.13-30.67a65.26,65.26,0,0,1,1-7.4C125.91,133,146.81,64.6,246.79,58.18v-.3c.69,0,1.39.08,2.16.15a19.3,19.3,0,0,1,2.16-.15v.3c28.08,1.81,49.91,8.54,67,17.75C373.77,106.07,377.16,163.34,377.16,163.34Z"/><path class="cls-8" d="M407.27,164.69c-40.06,25.77-97,33.83-152.58,34,0,.08-5.23.08-5.23.08-55.47-.25-112.34-8.31-152.4-33.91-.09-.08-.19-.08-.28-.17A66.83,66.83,0,0,1,98,156.47c150.25,11.75,212.53-48,237.74-88.89,24.47,12.09,40.62,28.29,51.17,43.81C405.59,138.84,407.27,164.69,407.27,164.69Z"/><path class="cls-9" d="M147.48,100.34c-4.53,11-2.47,24.32,7.17,32.39,9,7.54,22.57,9.3,35.13,8.95a133.13,133.13,0,0,0,62.42-17.37c13.45-7.79,26-20.21,23.8-34C272.46,68,234.55,57.83,212.26,60.79,187.89,64,156.11,79.46,147.48,100.34Z"/><path class="cls-10" d="M159.12,99.06c-3.14,7.59-1.71,16.83,5,22.42,6.24,5.22,15.63,6.44,24.32,6.19a92.16,92.16,0,0,0,43.21-12c9.31-5.39,18-14,16.47-23.57C245.65,76.67,219.4,69.63,204,71.68,187.1,73.93,165.1,84.61,159.12,99.06Z"/><path class="cls-11" d="M407.27,164.69c-40.06,25.77-97,33.83-152.58,34,0,.08-5.23.08-5.23.08-55.47-.25-112.34-8.31-152.4-33.91,11.77-.59,31-.17,59.3,1.43,169.2,9.57,217.48-27.78,230.55-54.89C405.59,138.84,407.27,164.69,407.27,164.69Z"/><path class="cls-12" d="M217.93,77.11c3.65,5.69-.93,14.21-10.23,19s-19.81,4.13-23.46-1.55.93-14.21,10.23-19S214.28,71.42,217.93,77.11Z"/><path class="cls-12" d="M242.44,107.7c1.25,3.32-2.14,7.35-7.58,9s-10.85.3-12.09-3,2.14-7.35,7.58-9S241.19,104.38,242.44,107.7Z"/><path class="cls-13" d="M485,260.36l-18.48,17.12-8.61,8-35.8,33.18a195.42,195.42,0,0,1-124.32,52.24l-17.42.58c-9.58.19-19.74.19-30.38.1-17.32.19-33.38-.1-47.89-.68A195.17,195.17,0,0,1,77.89,318.7L60.57,302.64,33.48,277.48,15,260.36c.1-.1,51.37-87.75,51.37-87.75a26.09,26.09,0,0,1,26.8-12.48c5.22.87,10.55,1.64,15.77,2.32,12.48,1.74,24.86,3.19,37.05,4.26,10.06,1,20,1.74,29.89,2.23,24.57,1.35,48.47,1.64,71.3,1.26,0-.1,5.61-.1,5.61-.1q19.59.43,40.34,0a824.09,824.09,0,0,0,95.59-7.26c6-.87,12.09-1.74,18.09-2.71a26.23,26.23,0,0,1,26.8,12.48l51.28,87.65Z"/><path class="cls-11" d="M83,164.79c5.56.87,11.23,1.65,16.8,2.32,13.29,1.74,26.48,3.19,39.47,4.26,10.72,1,21.33,1.74,31.84,2.23,26.17,1.35,51.62,1.64,75.94,1.26,0-.1,6-.1,6-.1q20.87.43,43,0a933.66,933.66,0,0,0,101.81-7.26c6.39-.87,12.88-1.74,19.27-2.71a30.61,30.61,0,0,1,9.64.18,26.56,26.56,0,0,0-19.84-4.85c-6,1-12.09,1.84-18.09,2.71a824.1,824.1,0,0,1-95.59,7.26c-13.83.29-27.28.29-40.34.1,0-.1-5.61-.1-5.61-.1-22.83.48-46.73.19-71.3-1.16-9.87-.48-19.83-1.26-29.89-2.23-12.19-1.06-24.57-2.51-37.05-4.26-5.22-.68-10.55-1.45-15.77-2.32A26.61,26.61,0,0,0,73.27,165,31,31,0,0,1,83,164.79Z"/><path class="cls-9" d="M175.89,168.93l-2.13,157.21L60.57,302.64,33.48,277.48l75.46-115c3,.39,6,.87,9,1.16,8.13,1.06,16.16,2,24.19,2.71C153.54,167.48,164.77,168.35,175.89,168.93Z"/><path class="cls-11" d="M142.13,166.32l-11.9,134-74.11-17.7s49.49-83.76,67.29-117.91C131.53,165.76,134.1,165.64,142.13,166.32Z"/><path class="cls-14" d="M485,260.36l-61.53,57.08L418,322.57a180.18,180.18,0,0,1-106.13,47.5c-2,.19-4.16.39-6.19.48-16.35.87-35.12,1.35-55.63,1.06-20.51.29-39.28-.19-55.63-1.06H194a176.64,176.64,0,0,1-65.69-16.74A178.7,178.7,0,0,1,82,322.57L58.63,300.8,15,260.36c6,1.45,14.42,3.87,25.54,6.68,27.86,7,72.46,16.06,133.9,20q28.44,1.89,61.82,1.94c3.58,0,7.26-.1,10.93-.1h5.61c21.38.19,41.21-.19,59.69-1.06,65.21-3.29,112.71-12.58,142.9-19.83,13.06-3.19,22.93-6,29.51-7.74Z"/><path class="cls-15" d="M40.54,272.68c27.86,7,72.46,16.06,133.9,20q28.44,1.89,61.82,1.93c3.58,0,7.26-.1,10.93-.1h5.61c21.38.19,41.21-.19,59.69-1.06,65.21-3.29,112.71-12.58,142.9-19.83,8.47-2.07,15.46-3.94,21.22-5.5l8.39-7.78c-6.68,1.64-16.54,4.45-29.6,7.64-30.19,7.26-77.69,16.54-142.9,19.83-18.48.87-38.31,1.26-59.69,1.06h-5.61c-3.68,0-7.35.1-10.93.1q-33.38,0-61.82-1.94c-61.44-4-106-13.06-133.9-20-11.13-2.81-19.54-5.22-25.44-6.77-.1.1,8.31,7.89,8.31,7.89C28.2,269.46,33.82,271,40.54,272.68Z"/><path class="cls-9" d="M194,370.55a176.64,176.64,0,0,1-65.69-16.74L40.54,267c27.86,7,72.46,16.06,133.9,20Z"/><path class="cls-16" d="M455.4,268l-69.85,78.56a178,178,0,0,1-73.72,23.51l.68-82.24C377.71,284.54,425.21,275.26,455.4,268Z"/><path class="cls-17" d="M485,260.36l-18.48,17.12-8.61,8-35.8,33.18a195.42,195.42,0,0,1-124.32,52.24l-17.42.58c17.42-21.19,30.86-46.25,35.31-75.17C326.14,227.17,221,186.64,146,166.71c10.06,1,20,1.74,29.89,2.23,24.57,1.35,48.47,1.64,71.3,1.26,0-.1,5.61-.1,5.61-.1q19.59.43,40.34,0a824.09,824.09,0,0,0,95.59-7.26c6-.87,12.09-1.74,18.09-2.71a26.23,26.23,0,0,1,26.8,12.48l51.28,87.65Z"/><circle class="cls-18" cx="255.63" cy="290.55" r="18.74"/><circle class="cls-19" cx="255.63" cy="290.55" r="9.07"/><ellipse class="cls-10" cx="253.61" cy="293.09" rx="4.39" ry="5.44" transform="translate(-127.02 366.18) rotate(-60)"/><circle class="cls-20" cx="77.47" cy="274.14" r="18.74"/><circle class="cls-21" cx="77.47" cy="274.14" r="9.07"/><ellipse class="cls-10" cx="75.45" cy="276.68" rx="4.39" ry="5.44" transform="translate(-201.89 203.68) rotate(-60)"/><circle class="cls-22" cx="415.49" cy="274.19" r="18.74"/><circle class="cls-23" cx="415.49" cy="274.19" r="9.07"/><ellipse class="cls-10" cx="413.47" cy="276.73" rx="4.39" ry="5.44" transform="translate(-32.92 496.44) rotate(-60)"/><path class="cls-9" d="M423.47,317.44,418,322.57a180.18,180.18,0,0,1-106.13,47.5c-2,.19-4.16.39-6.19.48-16.35.87-35.12,1.35-55.63,1.06-20.51.29-39.28-.19-55.63-1.06H194a176.64,176.64,0,0,1-65.69-16.74A178.7,178.7,0,0,1,82,322.57L58.63,300.8c38.51,5.13,91,16.35,132.45,39.86C237,366.68,348.3,340.27,423.47,317.44Z"/><ellipse class="cls-24" cx="254.02" cy="347.51" rx="22.64" ry="14.11"/><path class="cls-25" d="M269.64,356.72l-10.93,93a3,3,0,0,1-4.06,2.61,2.81,2.81,0,0,1-2.13-2.52l-14-92.49c-1.45-9.77,5.42-18.77,14.42-18.77h2.22C263.93,338.53,270.7,347,269.64,356.72Z"/><path class="cls-4" d="M269.64,356.72l-10.93,93a3,3,0,0,1-4.06,2.61c2.52-25-.48-94-1.74-113.78h2.22C263.93,338.53,270.7,347,269.64,356.72Z"/></g></g></svg>